SplineFontDB: 3.2
FontName: Pretension-Black
FullName: Pretension Black
FamilyName: Pretension Black
Weight: Black
Copyright: Copyright 2016 The Inter Project Authors
Version: 4.000;git-a52131595
ItalicAngle: 0
UnderlinePosition: -318
UnderlineWidth: 246
Ascent: 1638
Descent: 410
InvalidEm: 0
sfntRevision: 0x00040000
LayerCount: 2
Layer: 0 1 "Back" 1
Layer: 1 1 "Fore" 0
XUID: [1021 89 -1234937351 4197718]
StyleMap: 0x0040
FSType: 0
OS2Version: 4
OS2_WeightWidthSlopeOnly: 0
OS2_UseTypoMetrics: 1
CreationTime: 1700438797
ModificationTime: 1707792135
PfmFamily: 17
TTFWeight: 900
TTFWidth: 5
LineGap: 0
VLineGap: 0
Panose: 2 0 5 3 0 0 0 2 0 4
OS2TypoAscent: 1984
OS2TypoAOffset: 0
OS2TypoDescent: -494
OS2TypoDOffset: 0
OS2TypoLinegap: 0
OS2WinAscent: 1984
OS2WinAOffset: 0
OS2WinDescent: 494
OS2WinDOffset: 0
HheadAscent: 1984
HheadAOffset: 0
HheadDescent: -494
HheadDOffset: 0
OS2SubXSize: 1331
OS2SubYSize: 1229
OS2SubXOff: 0
OS2SubYOff: 154
OS2SupXSize: 1331
OS2SupYSize: 1229
OS2SupXOff: 0
OS2SupYOff: 717
OS2StrikeYSize: 246
OS2StrikeYPos: 653
OS2CapHeight: 1490
OS2XHeight: 1087
OS2Vendor: 'RSMS'
OS2CodePages: 0000019f.00000000
OS2UnicodeRanges: e0000aff.5200a1ff.00000021.00000000
Lookup: 1 0 0 "'aalt' Access All Alternates in Latin lookup 0" { "'aalt' Access All Alternates in Latin lookup 0 subtable"  } ['aalt' ('DFLT' <'dflt' > 'latn' <'CAT ' 'MOL ' 'ROM ' 'dflt' > ) ]
Lookup: 3 0 0 "'aalt' Access All Alternates in Latin lookup 1" { "'aalt' Access All Alternates in Latin lookup 1 subtable"  } ['aalt' ('DFLT' <'dflt' > 'latn' <'CAT ' 'MOL ' 'ROM ' 'dflt' > ) ]
Lookup: 1 0 0 "Single Substitution lookup 2" { "Single Substitution lookup 2 subtable"  } []
Lookup: 4 0 0 "'ccmp' Glyph Composition/Decomposition in Latin lookup 3" { "'ccmp' Glyph Composition/Decomposition in Latin lookup 3 subtable"  } ['ccmp' ('DFLT' <'dflt' > 'latn' <'CAT ' 'MOL ' 'ROM ' 'dflt' > ) ]

StartChar: .notdef
Encoding: 1114112 -1 0
Width: 1344
Flags: W
LayerCount: 2
Fore
SplineSet
1016 -416 m 1,0,-1
 328 -416 l 1,1,-1
 328 1856 l 1,2,-1
 1016 1856 l 1,3,-1
 1016 -416 l 1,0,-1
512 -192 m 1,4,-1
 512 -256 l 1,5,-1
 832 -256 l 1,6,-1
 832 -192 l 1,7,-1
 617 -192 l 1,8,-1
 832 -65 l 1,9,-1
 832 0 l 1,10,-1
 512 0 l 1,11,-1
 512 -64 l 1,12,-1
 728 -64 l 1,13,-1
 512 -192 l 1,4,-1
512 320 m 1,14,-1
 512 64 l 1,15,-1
 832 64 l 1,16,-1
 832 320 l 1,17,-1
 512 320 l 1,14,-1
768 128 m 1,18,-1
 576 128 l 1,19,-1
 576 256 l 1,20,-1
 768 256 l 1,21,-1
 768 128 l 1,18,-1
512 704 m 1,22,-1
 512 448 l 1,23,-1
 832 448 l 1,24,-1
 832 704 l 1,25,-1
 640 704 l 1,26,-1
 640 576 l 1,27,-1
 704 576 l 1,28,-1
 704 640 l 1,29,-1
 768 640 l 1,30,-1
 768 512 l 1,31,-1
 576 512 l 1,32,-1
 576 704 l 1,33,-1
 512 704 l 1,22,-1
512 832 m 1,34,-1
 512 768 l 1,35,-1
 832 768 l 1,36,-1
 832 992 l 1,37,-1
 768 992 l 1,38,-1
 768 832 l 1,39,-1
 512 832 l 1,34,-1
512 960 m 1,40,-1
 512 896 l 1,41,-1
 704 896 l 1,42,-1
 704 1056 l 1,43,-1
 832 1056 l 1,44,-1
 832 1120 l 1,45,-1
 512 1120 l 1,46,-1
 512 1056 l 1,47,-1
 640 1056 l 1,48,-1
 640 960 l 1,49,-1
 512 960 l 1,40,-1
640 1248 m 1,50,-1
 576 1248 l 1,51,-1
 576 1344 l 1,52,-1
 640 1344 l 1,53,-1
 640 1248 l 1,50,-1
512 1408 m 1,54,-1
 512 1184 l 1,55,-1
 832 1184 l 1,56,-1
 832 1248 l 1,57,-1
 704 1248 l 1,58,-1
 704 1408 l 1,59,-1
 512 1408 l 1,54,-1
512 1536 m 1,60,-1
 512 1472 l 1,61,-1
 832 1472 l 1,62,-1
 832 1536 l 1,63,-1
 688 1536 l 1,64,-1
 688 1632 l 1,65,-1
 832 1632 l 1,66,-1
 832 1696 l 1,67,-1
 512 1696 l 1,68,-1
 512 1632 l 1,69,-1
 624 1632 l 1,70,-1
 624 1536 l 1,71,-1
 512 1536 l 1,60,-1
EndSplineSet
EndChar

StartChar: A
Encoding: 65 65 2
Width: 1597
GlyphClass: 2
Flags: W
AnchorPoint: "Anchor-4" 1574 0 basechar 0
AnchorPoint: "Anchor-1" 797 1490 basechar 0
AnchorPoint: "Anchor-0" 797 0 basechar 0
LayerCount: 2
Fore
SplineSet
23 0 m 1,0,-1
 515 1490 l 1,1,-1
 1071 1490 l 1,2,-1
 1574 0 l 1,3,-1
 1111 0 l 1,4,-1
 941 578 l 2,5,6
 886 767 886 767 836 960 c 128,-1,7
 786 1153 786 1153 740 1352 c 1,8,-1
 842 1352 l 1,9,10
 796 1153 796 1153 748.5 960 c 128,-1,11
 701 767 701 767 646 578 c 2,12,-1
 477 0 l 1,13,-1
 23 0 l 1,0,-1
389 266 m 1,14,-1
 389 577 l 1,15,-1
 1209 577 l 1,16,-1
 1209 266 l 1,17,-1
 389 266 l 1,14,-1
EndSplineSet
Substitution2: "'c2sc' Capitals to Small Capitals in Latin lookup 68 subtable" a.sc
Substitution2: "'ss06' Style Set 6 in Latin lookup 52 subtable" A.squared
Substitution2: "'ss05' Style Set 5 in Latin lookup 51 subtable" uni24B6
Substitution2: "Single Substitution lookup 44 subtable" ordfeminine
AlternateSubs2: "'aalt' Access All Alternates in Latin lookup 1 subtable" ordfeminine a.sc
Position2: "'cpsp' Capital Spacing in Latin lookup 0 subtable" dx=0 dy=0 dh=0 dv=0
EndChar

StartChar: uni023A
Encoding: 570 570 46
Width: 1597
GlyphClass: 2
Flags: W
AnchorPoint: "Anchor-4" 1574 0 basechar 0
AnchorPoint: "Anchor-1" 797 1490 basechar 0
AnchorPoint: "Anchor-0" 797 0 basechar 0
LayerCount: 2
Fore
SplineSet
1136 1678 m 1,0,-1
 572 -190 l 1,1,-1
 494 -190 l 1,2,-1
 1058 1678 l 1,3,-1
 1136 1678 l 1,0,-1
23 0 m 1,4,-1
 515 1490 l 1,5,-1
 1071 1490 l 1,6,-1
 1574 0 l 1,7,-1
 1111 0 l 1,8,-1
 941 578 l 2,9,10
 886 767 886 767 836 960 c 128,-1,11
 786 1153 786 1153 740 1352 c 1,12,-1
 842 1352 l 1,13,14
 796 1153 796 1153 748.5 960 c 128,-1,15
 701 767 701 767 646 578 c 2,16,-1
 477 0 l 1,17,-1
 23 0 l 1,4,-1
389 266 m 1,18,-1
 389 577 l 1,19,-1
 1209 577 l 1,20,-1
 1209 266 l 1,21,-1
 389 266 l 1,18,-1
EndSplineSet
Position2: "'cpsp' Capital Spacing in Latin lookup 0 subtable" dx=0 dy=0 dh=0 dv=0
EndChar

StartChar: Lambda
Encoding: 923 923 60
Width: 1597
GlyphClass: 2
Flags: W
AnchorPoint: "Anchor-1" 797 1490 basechar 0
AnchorPoint: "Anchor-0" 797 0 basechar 0
LayerCount: 2
Fore
SplineSet
23 0 m 1,0,-1
 515 1490 l 1,1,-1
 1071 1490 l 1,2,-1
 1574 0 l 1,3,-1
 1111 0 l 1,4,-1
 941 578 l 2,5,6
 886 767 886 767 836 960 c 128,-1,7
 786 1153 786 1153 740 1352 c 1,8,-1
 842 1352 l 1,9,10
 796 1153 796 1153 748.5 960 c 128,-1,11
 701 767 701 767 646 578 c 2,12,-1
 477 0 l 1,13,-1
 23 0 l 1,0,-1
EndSplineSet
Position2: "'cpsp' Capital Spacing in Latin lookup 0 subtable" dx=0 dy=0 dh=0 dv=0
EndChar

StartChar: AE
Encoding: 198 198 61
Width: 2156
GlyphClass: 2
Flags: W
AnchorPoint: "Anchor-1" 1357 1490 basechar 0
LayerCount: 2
Fore
SplineSet
23 0 m 1,0,-1
 605 1490 l 1,1,-1
 2084 1490 l 1,2,-1
 2084 1151 l 1,3,-1
 1380 1151 l 1,4,-1
 1380 913 l 1,5,-1
 2028 913 l 1,6,-1
 2028 584 l 1,7,-1
 1380 584 l 1,8,-1
 1380 339 l 1,9,-1
 2082 339 l 1,10,-1
 2082 0 l 1,11,-1
 987 0 l 1,12,-1
 987 1188 l 1,13,-1
 896 1188 l 1,14,-1
 460 0 l 1,15,-1
 23 0 l 1,0,-1
381 290 m 1,16,-1
 381 576 l 1,17,-1
 1155 576 l 1,18,-1
 1155 290 l 1,19,-1
 381 290 l 1,16,-1
EndSplineSet
Position2: "'cpsp' Capital Spacing in Latin lookup 0 subtable" dx=0 dy=0 dh=0 dv=0
EndChar

StartChar: B
Encoding: 66 66 65
Width: 1350
GlyphClass: 2
Flags: W
AnchorPoint: "Anchor-1" 659 1490 basechar 0
AnchorPoint: "Anchor-0" 657 0 basechar 0
LayerCount: 2
Fore
SplineSet
88 0 m 1,0,-1
 88 1490 l 1,1,-1
 734 1490 l 2,2,3
 904 1490 904 1490 1020 1443 c 128,-1,4
 1136 1396 1136 1396 1195 1312.5 c 128,-1,5
 1254 1229 1254 1229 1254 1119 c 0,6,7
 1254 1034 1254 1034 1218 965.5 c 128,-1,8
 1182 897 1182 897 1118 851.5 c 128,-1,9
 1054 806 1054 806 966 789 c 1,10,-1
 966 780 l 1,11,12
 1063 777 1063 777 1140.5 731.5 c 128,-1,13
 1218 686 1218 686 1263.5 607 c 128,-1,14
 1309 528 1309 528 1309 423 c 0,15,16
 1309 300 1309 300 1247 204.5 c 128,-1,17
 1185 109 1185 109 1068.5 54.5 c 128,-1,18
 952 0 952 0 791 0 c 2,19,-1
 88 0 l 1,0,-1
492 317 m 1,20,-1
 697 317 l 2,21,22
 786 317 786 317 834.5 357 c 128,-1,23
 883 397 883 397 883 467 c 0,24,25
 883 516 883 516 860.5 551 c 128,-1,26
 838 586 838 586 797.5 604 c 128,-1,27
 757 622 757 622 700 622 c 2,28,-1
 492 622 l 1,29,-1
 492 317 l 1,20,-1
492 894 m 1,30,-1
 673 894 l 2,31,32
 722 894 722 894 759.5 911 c 128,-1,33
 797 928 797 928 817.5 959.5 c 128,-1,34
 838 991 838 991 838 1035 c 0,35,36
 838 1101 838 1101 793 1138 c 128,-1,37
 748 1175 748 1175 676 1175 c 2,38,-1
 492 1175 l 1,39,-1
 492 894 l 1,30,-1
EndSplineSet
Substitution2: "'ss06' Style Set 6 in Latin lookup 52 subtable" B.squared
Substitution2: "'ss05' Style Set 5 in Latin lookup 51 subtable" uni24B7
Position2: "'cpsp' Capital Spacing in Latin lookup 0 subtable" dx=0 dy=0 dh=0 dv=0
EndChar

StartChar: uni0181
Encoding: 385 385 70
Width: 1830
GlyphClass: 2
Flags: W
AnchorPoint: "Anchor-1" 1139 1490 basechar 0
AnchorPoint: "Anchor-0" 1137 0 basechar 0
LayerCount: 2
Fore
SplineSet
31 1021 m 1,0,-1
 31 1117 l 2,1,2
 31 1297 31 1297 133.5 1393.5 c 128,-1,3
 236 1490 236 1490 444 1490 c 2,4,-1
 568 1490 l 1,5,-1
 568 1158 l 1,6,-1
 512 1158 l 2,7,8
 460 1158 460 1158 433.5 1135 c 128,-1,9
 407 1112 407 1112 407 1068 c 2,10,-1
 407 1021 l 1,11,-1
 31 1021 l 1,0,-1
568 0 m 1,12,-1
 568 1490 l 1,13,-1
 1214 1490 l 2,14,15
 1384 1490 1384 1490 1500 1443 c 128,-1,16
 1616 1396 1616 1396 1675 1312.5 c 128,-1,17
 1734 1229 1734 1229 1734 1119 c 0,18,19
 1734 1034 1734 1034 1698 965.5 c 128,-1,20
 1662 897 1662 897 1598 851.5 c 128,-1,21
 1534 806 1534 806 1446 789 c 1,22,-1
 1446 780 l 1,23,24
 1543 777 1543 777 1620.5 731.5 c 128,-1,25
 1698 686 1698 686 1743.5 607 c 128,-1,26
 1789 528 1789 528 1789 423 c 0,27,28
 1789 300 1789 300 1727 204.5 c 128,-1,29
 1665 109 1665 109 1548.5 54.5 c 128,-1,30
 1432 0 1432 0 1271 0 c 2,31,-1
 568 0 l 1,12,-1
972 317 m 1,32,-1
 1177 317 l 2,33,34
 1266 317 1266 317 1314.5 357 c 128,-1,35
 1363 397 1363 397 1363 467 c 0,36,37
 1363 516 1363 516 1340.5 551 c 128,-1,38
 1318 586 1318 586 1277.5 604 c 128,-1,39
 1237 622 1237 622 1180 622 c 2,40,-1
 972 622 l 1,41,-1
 972 317 l 1,32,-1
972 894 m 1,42,-1
 1153 894 l 2,43,44
 1202 894 1202 894 1239.5 911 c 128,-1,45
 1277 928 1277 928 1297.5 959.5 c 128,-1,46
 1318 991 1318 991 1318 1035 c 0,47,48
 1318 1101 1318 1101 1273 1138 c 128,-1,49
 1228 1175 1228 1175 1156 1175 c 2,50,-1
 972 1175 l 1,51,-1
 972 894 l 1,42,-1
EndSplineSet
Position2: "'cpsp' Capital Spacing in Latin lookup 0 subtable" dx=0 dy=0 dh=0 dv=0
EndChar

StartChar: C
Encoding: 67 67 73
Width: 1513
GlyphClass: 2
Flags: W
AnchorPoint: "Anchor-3" 765 7 basechar 0
AnchorPoint: "Anchor-1" 774 1490 basechar 0
LayerCount: 2
Fore
SplineSet
776 -22 m 0,0,1
 573 -22 573 -22 409.5 66.5 c 128,-1,2
 246 155 246 155 150.5 326 c 128,-1,3
 55 497 55 497 55 744 c 0,4,5
 55 994 55 994 151.5 1165.5 c 128,-1,6
 248 1337 248 1337 411.5 1424.5 c 128,-1,7
 575 1512 575 1512 776 1512 c 0,8,9
 917 1512 917 1512 1036 1472.5 c 128,-1,10
 1155 1433 1155 1433 1245 1358.5 c 128,-1,11
 1335 1284 1335 1284 1390.5 1177.5 c 128,-1,12
 1446 1071 1446 1071 1461 938 c 1,13,-1
 1046 938 l 1,14,15
 1039 988 1039 988 1017.5 1028.5 c 128,-1,16
 996 1069 996 1069 963.5 1097.5 c 128,-1,17
 931 1126 931 1126 886 1141 c 128,-1,18
 841 1156 841 1156 786 1156 c 0,19,20
 686 1156 686 1156 616 1107.5 c 128,-1,21
 546 1059 546 1059 510 967 c 128,-1,22
 474 875 474 875 474 744 c 0,23,24
 474 612 474 612 510 520 c 128,-1,25
 546 428 546 428 615.5 381 c 128,-1,26
 685 334 685 334 785 334 c 0,27,28
 840 334 840 334 884 349.5 c 128,-1,29
 928 365 928 365 962 393.5 c 128,-1,30
 996 422 996 422 1017.5 462 c 128,-1,31
 1039 502 1039 502 1047 553 c 1,32,-1
 1462 553 l 1,33,34
 1450 439 1450 439 1399 336 c 128,-1,35
 1348 233 1348 233 1260.5 152.5 c 128,-1,36
 1173 72 1173 72 1051.5 25 c 128,-1,37
 930 -22 930 -22 776 -22 c 0,0,1
EndSplineSet
Substitution2: "'ss06' Style Set 6 in Latin lookup 52 subtable" C.squared
Substitution2: "'ss05' Style Set 5 in Latin lookup 51 subtable" uni24B8
Position2: "'cpsp' Capital Spacing in Latin lookup 0 subtable" dx=0 dy=0 dh=0 dv=0
EndChar

StartChar: uni0187
Encoding: 391 391 74
Width: 1513
GlyphClass: 2
Flags: W
AnchorPoint: "Anchor-3" 765 7 basechar 0
AnchorPoint: "Anchor-1" 774 1490 basechar 0
LayerCount: 2
Fore
SplineSet
1063 938 m 1,0,-1
 1063 1314 l 2,1,2
 1063 1502 1063 1502 1163.5 1595.5 c 128,-1,3
 1264 1689 1264 1689 1476 1689 c 0,4,5
 1537 1689 1537 1689 1590.5 1685.5 c 128,-1,6
 1644 1682 1644 1682 1682 1676 c 1,7,-1
 1682 1383 l 1,8,9
 1658 1385 1658 1385 1626.5 1386.5 c 128,-1,10
 1595 1388 1595 1388 1557 1388 c 0,11,12
 1507 1388 1507 1388 1484 1368 c 128,-1,13
 1461 1348 1461 1348 1461 1303 c 2,14,-1
 1461 938 l 1,15,-1
 1063 938 l 1,0,-1
776 -22 m 0,16,17
 573 -22 573 -22 409.5 66.5 c 128,-1,18
 246 155 246 155 150.5 326 c 128,-1,19
 55 497 55 497 55 744 c 0,20,21
 55 994 55 994 151.5 1165.5 c 128,-1,22
 248 1337 248 1337 411.5 1424.5 c 128,-1,23
 575 1512 575 1512 776 1512 c 0,24,25
 917 1512 917 1512 1036 1472.5 c 128,-1,26
 1155 1433 1155 1433 1245 1358.5 c 128,-1,27
 1335 1284 1335 1284 1390.5 1177.5 c 128,-1,28
 1446 1071 1446 1071 1461 938 c 1,29,-1
 1046 938 l 1,30,31
 1039 988 1039 988 1017.5 1028.5 c 128,-1,32
 996 1069 996 1069 963.5 1097.5 c 128,-1,33
 931 1126 931 1126 886 1141 c 128,-1,34
 841 1156 841 1156 786 1156 c 0,35,36
 686 1156 686 1156 616 1107.5 c 128,-1,37
 546 1059 546 1059 510 967 c 128,-1,38
 474 875 474 875 474 744 c 0,39,40
 474 612 474 612 510 520 c 128,-1,41
 546 428 546 428 615.5 381 c 128,-1,42
 685 334 685 334 785 334 c 0,43,44
 840 334 840 334 884 349.5 c 128,-1,45
 928 365 928 365 962 393.5 c 128,-1,46
 996 422 996 422 1017.5 462 c 128,-1,47
 1039 502 1039 502 1047 553 c 1,48,-1
 1462 553 l 1,49,50
 1450 439 1450 439 1399 336 c 128,-1,51
 1348 233 1348 233 1260.5 152.5 c 128,-1,52
 1173 72 1173 72 1051.5 25 c 128,-1,53
 930 -22 930 -22 776 -22 c 0,16,17
EndSplineSet
Position2: "'cpsp' Capital Spacing in Latin lookup 0 subtable" dx=0 dy=0 dh=0 dv=0
EndChar

StartChar: uni023B
Encoding: 571 571 81
Width: 1513
GlyphClass: 2
Flags: W
AnchorPoint: "Anchor-3" 765 7 basechar 0
AnchorPoint: "Anchor-1" 774 1490 basechar 0
LayerCount: 2
Fore
SplineSet
396 -190 m 1,0,-1
 960 1678 l 1,1,-1
 1168 1678 l 1,2,-1
 602 -190 l 1,3,-1
 396 -190 l 1,0,-1
776 -22 m 0,4,5
 573 -22 573 -22 409.5 66.5 c 128,-1,6
 246 155 246 155 150.5 326 c 128,-1,7
 55 497 55 497 55 744 c 0,8,9
 55 994 55 994 151.5 1165.5 c 128,-1,10
 248 1337 248 1337 411.5 1424.5 c 128,-1,11
 575 1512 575 1512 776 1512 c 0,12,13
 917 1512 917 1512 1036 1472.5 c 128,-1,14
 1155 1433 1155 1433 1245 1358.5 c 128,-1,15
 1335 1284 1335 1284 1390.5 1177.5 c 128,-1,16
 1446 1071 1446 1071 1461 938 c 1,17,-1
 1046 938 l 1,18,19
 1039 988 1039 988 1017.5 1028.5 c 128,-1,20
 996 1069 996 1069 963.5 1097.5 c 128,-1,21
 931 1126 931 1126 886 1141 c 128,-1,22
 841 1156 841 1156 786 1156 c 0,23,24
 686 1156 686 1156 616 1107.5 c 128,-1,25
 546 1059 546 1059 510 967 c 128,-1,26
 474 875 474 875 474 744 c 0,27,28
 474 612 474 612 510 520 c 128,-1,29
 546 428 546 428 615.5 381 c 128,-1,30
 685 334 685 334 785 334 c 0,31,32
 840 334 840 334 884 349.5 c 128,-1,33
 928 365 928 365 962 393.5 c 128,-1,34
 996 422 996 422 1017.5 462 c 128,-1,35
 1039 502 1039 502 1047 553 c 1,36,-1
 1462 553 l 1,37,38
 1450 439 1450 439 1399 336 c 128,-1,39
 1348 233 1348 233 1260.5 152.5 c 128,-1,40
 1173 72 1173 72 1051.5 25 c 128,-1,41
 930 -22 930 -22 776 -22 c 0,4,5
EndSplineSet
Ligature2: "'ccmp' Glyph Composition/Decomposition in Latin lookup 6 subtable" C uni0338
Position2: "'cpsp' Capital Spacing in Latin lookup 0 subtable" dx=0 dy=0 dh=0 dv=0
EndChar

StartChar: uni0186
Encoding: 390 390 82
Width: 1513
GlyphClass: 2
Flags: W
AnchorPoint: "Anchor-3" 748 1485 basechar 0
AnchorPoint: "Anchor-1" 740 0 basechar 0
LayerCount: 2
Fore
SplineSet
737 1512 m 0,0,1
 941 1512 941 1512 1104.5 1423.5 c 128,-1,2
 1268 1335 1268 1335 1363 1164.5 c 128,-1,3
 1458 994 1458 994 1458 746 c 256,4,5
 1458 498 1458 498 1362 327 c 128,-1,6
 1266 156 1266 156 1103 67 c 128,-1,7
 940 -22 940 -22 737 -22 c 0,8,9
 596 -22 596 -22 477.5 18 c 128,-1,10
 359 58 359 58 269 132.5 c 128,-1,11
 179 207 179 207 123.5 313.5 c 128,-1,12
 68 420 68 420 53 554 c 1,13,-1
 467 554 l 1,14,15
 475 503 475 503 496 462.5 c 128,-1,16
 517 422 517 422 550 393.5 c 128,-1,17
 583 365 583 365 627.5 349.5 c 128,-1,18
 672 334 672 334 727 334 c 0,19,20
 828 334 828 334 898 383 c 128,-1,21
 968 432 968 432 1004 524.5 c 128,-1,22
 1040 617 1040 617 1040 746 c 0,23,24
 1040 880 1040 880 1004 971.5 c 128,-1,25
 968 1063 968 1063 898 1109.5 c 128,-1,26
 828 1156 828 1156 728 1156 c 0,27,28
 674 1156 674 1156 629.5 1141.5 c 128,-1,29
 585 1127 585 1127 551.5 1098 c 128,-1,30
 518 1069 518 1069 496.5 1029 c 128,-1,31
 475 989 475 989 467 939 c 1,32,-1
 52 939 l 1,33,34
 64 1052 64 1052 114.5 1155.5 c 128,-1,35
 165 1259 165 1259 252.5 1339.5 c 128,-1,36
 340 1420 340 1420 461.5 1466 c 128,-1,37
 583 1512 583 1512 737 1512 c 0,0,1
EndSplineSet
Position2: "'cpsp' Capital Spacing in Latin lookup 0 subtable" dx=0 dy=0 dh=0 dv=0
EndChar

StartChar: D
Encoding: 68 68 84
Width: 1468
GlyphClass: 2
Flags: W
AnchorPoint: "Anchor-1" 591 1490 basechar 0
AnchorPoint: "Anchor-0" 670 0 basechar 0
LayerCount: 2
Fore
SplineSet
667 0 m 2,0,-1
 259 0 l 1,1,-1
 259 344 l 1,2,-1
 649 344 l 2,3,4
 765 344 765 344 843.5 383.5 c 128,-1,5
 922 423 922 423 961 511.5 c 128,-1,6
 1000 600 1000 600 1000 744 c 0,7,8
 1000 891 1000 891 959.5 979.5 c 128,-1,9
 919 1068 919 1068 838.5 1107 c 128,-1,10
 758 1146 758 1146 637 1146 c 2,11,-1
 253 1146 l 1,12,-1
 253 1490 l 1,13,-1
 660 1490 l 2,14,15
 891 1490 891 1490 1059.5 1399.5 c 128,-1,16
 1228 1309 1228 1309 1320.5 1141.5 c 128,-1,17
 1413 974 1413 974 1413 744 c 0,18,19
 1413 515 1413 515 1321.5 348 c 128,-1,20
 1230 181 1230 181 1062.5 90.5 c 128,-1,21
 895 0 895 0 667 0 c 2,0,-1
498 1490 m 1,22,-1
 498 0 l 1,23,-1
 88 0 l 1,24,-1
 88 1490 l 1,25,-1
 498 1490 l 1,22,-1
EndSplineSet
Substitution2: "'ss06' Style Set 6 in Latin lookup 52 subtable" D.squared
Substitution2: "'ss05' Style Set 5 in Latin lookup 51 subtable" uni24B9
Position2: "'cpsp' Capital Spacing in Latin lookup 0 subtable" dx=0 dy=0 dh=0 dv=0
EndChar

StartChar: uni018A
Encoding: 394 394 85
Width: 1948
GlyphClass: 2
Flags: W
AnchorPoint: "Anchor-1" 1071 1490 basechar 0
AnchorPoint: "Anchor-0" 1150 0 basechar 0
LayerCount: 2
Fore
SplineSet
31 1021 m 1,0,-1
 31 1117 l 2,1,2
 31 1297 31 1297 133.5 1393.5 c 128,-1,3
 236 1490 236 1490 444 1490 c 2,4,-1
 568 1490 l 1,5,-1
 568 1158 l 1,6,-1
 512 1158 l 2,7,8
 460 1158 460 1158 433.5 1135 c 128,-1,9
 407 1112 407 1112 407 1068 c 2,10,-1
 407 1021 l 1,11,-1
 31 1021 l 1,0,-1
1147 0 m 2,12,-1
 739 0 l 1,13,-1
 739 344 l 1,14,-1
 1129 344 l 2,15,16
 1245 344 1245 344 1323.5 383.5 c 128,-1,17
 1402 423 1402 423 1441 511.5 c 128,-1,18
 1480 600 1480 600 1480 744 c 0,19,20
 1480 891 1480 891 1440 979.5 c 128,-1,21
 1400 1068 1400 1068 1319 1107 c 128,-1,22
 1238 1146 1238 1146 1117 1146 c 2,23,-1
 733 1146 l 1,24,-1
 733 1490 l 1,25,-1
 1140 1490 l 2,26,27
 1371 1490 1371 1490 1540 1399.5 c 128,-1,28
 1709 1309 1709 1309 1801 1141.5 c 128,-1,29
 1893 974 1893 974 1893 744 c 0,30,31
 1893 515 1893 515 1801.5 348 c 128,-1,32
 1710 181 1710 181 1542.5 90.5 c 128,-1,33
 1375 0 1375 0 1147 0 c 2,12,-1
978 1490 m 1,34,-1
 978 0 l 1,35,-1
 568 0 l 1,36,-1
 568 1490 l 1,37,-1
 978 1490 l 1,34,-1
EndSplineSet
Position2: "'cpsp' Capital Spacing in Latin lookup 0 subtable" dx=0 dy=0 dh=0 dv=0
EndChar

StartChar: E
Encoding: 69 69 95
Width: 1275
GlyphClass: 2
Flags: W
AnchorPoint: "Anchor-4" 1200 0 basechar 0
AnchorPoint: "Anchor-3" 645 0 basechar 0
AnchorPoint: "Anchor-1" 646 1490 basechar 0
AnchorPoint: "Anchor-0" 646 0 basechar 0
LayerCount: 2
Fore
SplineSet
88 0 m 1,0,-1
 88 1490 l 1,1,-1
 1203 1490 l 1,2,-1
 1203 1151 l 1,3,-1
 498 1151 l 1,4,-1
 498 914 l 1,5,-1
 1146 914 l 1,6,-1
 1146 585 l 1,7,-1
 498 585 l 1,8,-1
 498 339 l 1,9,-1
 1200 339 l 1,10,-1
 1200 0 l 1,11,-1
 88 0 l 1,0,-1
EndSplineSet
Substitution2: "'ss06' Style Set 6 in Latin lookup 52 subtable" E.squared
Substitution2: "'ss05' Style Set 5 in Latin lookup 51 subtable" uni24BA
Position2: "'cpsp' Capital Spacing in Latin lookup 0 subtable" dx=0 dy=0 dh=0 dv=0
EndChar

StartChar: uni0246
Encoding: 582 582 121
Width: 1275
GlyphClass: 2
Flags: W
AnchorPoint: "Anchor-4" 1200 0 basechar 0
AnchorPoint: "Anchor-3" 645 0 basechar 0
AnchorPoint: "Anchor-1" 646 1490 basechar 0
AnchorPoint: "Anchor-0" 646 0 basechar 0
LayerCount: 2
Fore
SplineSet
314 -190 m 1,0,-1
 854 1678 l 1,1,-1
 1018 1678 l 1,2,-1
 480 -190 l 1,3,-1
 314 -190 l 1,0,-1
88 0 m 1,4,-1
 88 1490 l 1,5,-1
 1203 1490 l 1,6,-1
 1203 1151 l 1,7,-1
 498 1151 l 1,8,-1
 498 914 l 1,9,-1
 1146 914 l 1,10,-1
 1146 585 l 1,11,-1
 498 585 l 1,12,-1
 498 339 l 1,13,-1
 1200 339 l 1,14,-1
 1200 0 l 1,15,-1
 88 0 l 1,4,-1
EndSplineSet
Position2: "'cpsp' Capital Spacing in Latin lookup 0 subtable" dx=0 dy=0 dh=0 dv=0
EndChar

StartChar: Eturn
Encoding: 398 398 122
Width: 1275
GlyphClass: 2
Flags: W
AnchorPoint: "Anchor-4" 75 1490 basechar 0
AnchorPoint: "Anchor-3" 640 0 basechar 0
AnchorPoint: "Anchor-1" 638 1490 basechar 0
AnchorPoint: "Anchor-0" 638 0 basechar 0
LayerCount: 2
Fore
SplineSet
1187 1490 m 1,0,-1
 1187 0 l 1,1,-1
 73 0 l 1,2,-1
 73 339 l 1,3,-1
 777 339 l 1,4,-1
 777 578 l 1,5,-1
 129 578 l 1,6,-1
 129 907 l 1,7,-1
 777 907 l 1,8,-1
 777 1151 l 1,9,-1
 75 1151 l 1,10,-1
 75 1490 l 1,11,-1
 1187 1490 l 1,0,-1
EndSplineSet
Position2: "'cpsp' Capital Spacing in Latin lookup 0 subtable" dx=0 dy=0 dh=0 dv=0
EndChar

StartChar: F
Encoding: 70 70 137
Width: 1218
GlyphClass: 2
Flags: W
AnchorPoint: "Anchor-1" 630 1490 basechar 0
AnchorPoint: "Anchor-0" 294 0 basechar 0
LayerCount: 2
Fore
SplineSet
88 0 m 1,0,-1
 88 1490 l 1,1,-1
 1172 1490 l 1,2,-1
 1172 1151 l 1,3,-1
 498 1151 l 1,4,-1
 498 852 l 1,5,-1
 1120 852 l 1,6,-1
 1120 524 l 1,7,-1
 498 524 l 1,8,-1
 498 0 l 1,9,-1
 88 0 l 1,0,-1
EndSplineSet
Substitution2: "'ss06' Style Set 6 in Latin lookup 52 subtable" F.squared
Substitution2: "'ss05' Style Set 5 in Latin lookup 51 subtable" uni24BB
Position2: "'cpsp' Capital Spacing in Latin lookup 0 subtable" dx=0 dy=0 dh=0 dv=0
EndChar

StartChar: uni0191
Encoding: 401 401 138
Width: 1218
GlyphClass: 2
Flags: W
AnchorPoint: "Anchor-1" 630 1490 basechar 0
AnchorPoint: "Anchor-0" 294 0 basechar 0
LayerCount: 2
Fore
SplineSet
-130 -417 m 1,0,-1
 -130 -108 l 1,1,2
 -107 -111 -107 -111 -75 -112 c 128,-1,3
 -43 -113 -43 -113 -5 -113 c 0,4,5
 45 -113 45 -113 66.5 -94 c 128,-1,6
 88 -75 88 -75 88 -32 c 2,7,-1
 88 120 l 1,8,-1
 498 120 l 1,9,-1
 498 -55 l 2,10,11
 498 -242 498 -242 393 -335.5 c 128,-1,12
 288 -429 288 -429 77 -429 c 0,13,14
 15 -429 15 -429 -38.5 -426 c 128,-1,15
 -92 -423 -92 -423 -130 -417 c 1,0,-1
88 0 m 1,16,-1
 88 1490 l 1,17,-1
 1172 1490 l 1,18,-1
 1172 1151 l 1,19,-1
 498 1151 l 1,20,-1
 498 852 l 1,21,-1
 1120 852 l 1,22,-1
 1120 524 l 1,23,-1
 498 524 l 1,24,-1
 498 0 l 1,25,-1
 88 0 l 1,16,-1
EndSplineSet
Position2: "'cpsp' Capital Spacing in Latin lookup 0 subtable" dx=0 dy=0 dh=0 dv=0
EndChar

StartChar: Fturn
Encoding: 8498 8498 140
Width: 1218
GlyphClass: 2
Flags: W
AnchorPoint: "Anchor-1" 900 1490 basechar 0
AnchorPoint: "Anchor-0" 580 0 basechar 0
LayerCount: 2
Fore
SplineSet
1130 1490 m 1,0,-1
 1130 0 l 1,1,-1
 46 0 l 1,2,-1
 46 339 l 1,3,-1
 720 339 l 1,4,-1
 720 640 l 1,5,-1
 98 640 l 1,6,-1
 98 968 l 1,7,-1
 720 968 l 1,8,-1
 720 1490 l 1,9,-1
 1130 1490 l 1,0,-1
EndSplineSet
Position2: "'cpsp' Capital Spacing in Latin lookup 0 subtable" dx=0 dy=0 dh=0 dv=0
EndChar

StartChar: G
Encoding: 1114113 -1 141
Width: 1531
GlyphClass: 2
Flags: W
AnchorPoint: "Anchor-1" 772 1490 basechar 0
AnchorPoint: "Anchor-0" 768 0 basechar 0
LayerCount: 2
Fore
SplineSet
786 -22 m 0,0,1
 567 -22 567 -22 402.5 71.5 c 128,-1,2
 238 165 238 165 146.5 337 c 128,-1,3
 55 509 55 509 55 743 c 0,4,5
 55 991 55 991 152.5 1163 c 128,-1,6
 250 1335 250 1335 415 1423.5 c 128,-1,7
 580 1512 580 1512 781 1512 c 0,8,9
 916 1512 916 1512 1032.5 1474.5 c 128,-1,10
 1149 1437 1149 1437 1239 1367 c 128,-1,11
 1329 1297 1329 1297 1384.5 1201 c 128,-1,12
 1440 1105 1440 1105 1451 988 c 1,13,-1
 1035 988 l 1,14,15
 1026 1027 1026 1027 1006.5 1058.5 c 128,-1,16
 987 1090 987 1090 956.5 1112 c 128,-1,17
 926 1134 926 1134 885.5 1145 c 128,-1,18
 845 1156 845 1156 794 1156 c 0,19,20
 691 1156 691 1156 619.5 1108 c 128,-1,21
 548 1060 548 1060 511 968.5 c 128,-1,22
 474 877 474 877 474 746 c 256,23,24
 474 615 474 615 510 523 c 128,-1,25
 546 431 546 431 618 382.5 c 128,-1,26
 690 334 690 334 796 334 c 0,27,28
 886 334 886 334 946.5 361 c 128,-1,29
 1007 388 1007 388 1037 435.5 c 128,-1,30
 1067 483 1067 483 1067 548 c 1,31,-1
 1146 540 l 1,32,-1
 797 540 l 1,33,-1
 797 832 l 1,34,-1
 1465 832 l 1,35,-1
 1465 622 l 2,36,37
 1465 423 1465 423 1379.5 278.5 c 128,-1,38
 1294 134 1294 134 1140.5 56 c 128,-1,39
 987 -22 987 -22 786 -22 c 0,0,1
EndSplineSet
Substitution2: "'c2sc' Capitals to Small Capitals in Latin lookup 68 subtable" g.sc
Substitution2: "'cv10' Character Variants 10 in Latin lookup 64 subtable" G.1
Substitution2: "'ss06' Style Set 6 in Latin lookup 52 subtable" G.squared
Substitution2: "'ss05' Style Set 5 in Latin lookup 51 subtable" uni24BC
Substitution2: "'salt' Stylistic Alternatives in Latin lookup 46 subtable" G.1
Substitution2: "'aalt' Access All Alternates in Latin lookup 0 subtable" g.sc
Position2: "'cpsp' Capital Spacing in Latin lookup 0 subtable" dx=0 dy=0 dh=0 dv=0
EndChar

StartChar: uni0193
Encoding: 1114115 -1 143
Width: 1531
GlyphClass: 2
Flags: W
AnchorPoint: "Anchor-1" 772 1490 basechar 0
AnchorPoint: "Anchor-0" 768 0 basechar 0
LayerCount: 2
Fore
SplineSet
1053 988 m 1,0,-1
 1053 1307 l 2,1,2
 1053 1494 1053 1494 1154 1587 c 128,-1,3
 1255 1680 1255 1680 1466 1680 c 0,4,5
 1528 1680 1528 1680 1581.5 1677.5 c 128,-1,6
 1635 1675 1635 1675 1673 1669 c 1,7,-1
 1673 1375 l 1,8,9
 1649 1377 1649 1377 1617 1378 c 128,-1,10
 1585 1379 1585 1379 1547 1379 c 0,11,12
 1497 1379 1497 1379 1474 1359 c 128,-1,13
 1451 1339 1451 1339 1451 1296 c 2,14,-1
 1451 988 l 1,15,-1
 1053 988 l 1,0,-1
786 -22 m 0,16,17
 567 -22 567 -22 402.5 71.5 c 128,-1,18
 238 165 238 165 146.5 337 c 128,-1,19
 55 509 55 509 55 743 c 0,20,21
 55 991 55 991 152.5 1163 c 128,-1,22
 250 1335 250 1335 415 1423.5 c 128,-1,23
 580 1512 580 1512 781 1512 c 0,24,25
 916 1512 916 1512 1032.5 1474.5 c 128,-1,26
 1149 1437 1149 1437 1239 1367 c 128,-1,27
 1329 1297 1329 1297 1384.5 1201 c 128,-1,28
 1440 1105 1440 1105 1451 988 c 1,29,-1
 1035 988 l 1,30,31
 1026 1027 1026 1027 1006.5 1058.5 c 128,-1,32
 987 1090 987 1090 956.5 1112 c 128,-1,33
 926 1134 926 1134 885.5 1145 c 128,-1,34
 845 1156 845 1156 794 1156 c 0,35,36
 691 1156 691 1156 619.5 1108 c 128,-1,37
 548 1060 548 1060 511 968.5 c 128,-1,38
 474 877 474 877 474 746 c 256,39,40
 474 615 474 615 510 523 c 128,-1,41
 546 431 546 431 618 382.5 c 128,-1,42
 690 334 690 334 796 334 c 0,43,44
 886 334 886 334 946.5 361 c 128,-1,45
 1007 388 1007 388 1037 435.5 c 128,-1,46
 1067 483 1067 483 1067 548 c 1,47,-1
 1146 540 l 1,48,-1
 797 540 l 1,49,-1
 797 832 l 1,50,-1
 1465 832 l 1,51,-1
 1465 622 l 2,52,53
 1465 423 1465 423 1379.5 278.5 c 128,-1,54
 1294 134 1294 134 1140.5 56 c 128,-1,55
 987 -22 987 -22 786 -22 c 0,16,17
EndSplineSet
Substitution2: "'c2sc' Capitals to Small Capitals in Latin lookup 68 subtable" uni0260.sc
Substitution2: "'cv10' Character Variants 10 in Latin lookup 64 subtable" uni0193.1
Substitution2: "'salt' Stylistic Alternatives in Latin lookup 46 subtable" uni0193.1
Substitution2: "'aalt' Access All Alternates in Latin lookup 0 subtable" uni0260.sc
Position2: "'cpsp' Capital Spacing in Latin lookup 0 subtable" dx=0 dy=0 dh=0 dv=0
EndChar

StartChar: G.1
Encoding: 57346 57346 151
AltUni2: 000047.ffffffff.0
Width: 1547
GlyphClass: 2
Flags: W
AnchorPoint: "Anchor-1" 772 1490 basechar 0
AnchorPoint: "Anchor-0" 768 0 basechar 0
LayerCount: 2
Fore
SplineSet
735 -22 m 0,0,1
 547 -22 547 -22 392.5 71.5 c 128,-1,2
 238 165 238 165 146.5 337 c 128,-1,3
 55 509 55 509 55 743 c 0,4,5
 55 991 55 991 152.5 1163 c 128,-1,6
 250 1335 250 1335 415 1423.5 c 128,-1,7
 580 1512 580 1512 781 1512 c 0,8,9
 916 1512 916 1512 1032.5 1474.5 c 128,-1,10
 1149 1437 1149 1437 1239 1367 c 128,-1,11
 1329 1297 1329 1297 1384.5 1201 c 128,-1,12
 1440 1105 1440 1105 1451 988 c 1,13,-1
 1035 988 l 1,14,15
 1026 1027 1026 1027 1006.5 1058.5 c 128,-1,16
 987 1090 987 1090 956.5 1112 c 128,-1,17
 926 1134 926 1134 885.5 1145 c 128,-1,18
 845 1156 845 1156 794 1156 c 0,19,20
 691 1156 691 1156 619.5 1108 c 128,-1,21
 548 1060 548 1060 511 968.5 c 128,-1,22
 474 877 474 877 474 746 c 256,23,24
 474 615 474 615 510.5 523 c 128,-1,25
 547 431 547 431 619.5 382.5 c 128,-1,26
 692 334 692 334 800 334 c 0,27,28
 886 334 886 334 945.5 361 c 128,-1,29
 1005 388 1005 388 1036.5 435.5 c 128,-1,30
 1068 483 1068 483 1068 548 c 1,31,-1
 1209 548 l 1,32,-1
 1209 449 l 2,33,34
 1209 338 1209 338 1177.5 250.5 c 128,-1,35
 1146 163 1146 163 1084.5 102.5 c 128,-1,36
 1023 42 1023 42 935 10 c 128,-1,37
 847 -22 847 -22 735 -22 c 0,0,1
1216 0 m 1,38,-1
 1166 336 l 1,39,-1
 1166 540 l 1,40,-1
 798 540 l 1,41,-1
 798 832 l 1,42,-1
 1466 832 l 1,43,-1
 1466 0 l 1,44,-1
 1216 0 l 1,38,-1
EndSplineSet
Substitution2: "'ss06' Style Set 6 in Latin lookup 52 subtable" G.1.squared
EndChar

StartChar: uni0193.1
Encoding: 57348 57348 153
AltUni2: 000193.ffffffff.0
Width: 1547
GlyphClass: 2
Flags: W
AnchorPoint: "Anchor-1" 772 1490 basechar 0
AnchorPoint: "Anchor-0" 768 0 basechar 0
LayerCount: 2
Fore
SplineSet
1053 988 m 1,0,-1
 1053 1307 l 2,1,2
 1053 1494 1053 1494 1154 1587 c 128,-1,3
 1255 1680 1255 1680 1466 1680 c 0,4,5
 1528 1680 1528 1680 1581.5 1677.5 c 128,-1,6
 1635 1675 1635 1675 1673 1669 c 1,7,-1
 1673 1375 l 1,8,9
 1649 1377 1649 1377 1617 1378 c 128,-1,10
 1585 1379 1585 1379 1547 1379 c 0,11,12
 1497 1379 1497 1379 1474 1359 c 128,-1,13
 1451 1339 1451 1339 1451 1296 c 2,14,-1
 1451 988 l 1,15,-1
 1053 988 l 1,0,-1
735 -22 m 0,16,17
 547 -22 547 -22 392.5 71.5 c 128,-1,18
 238 165 238 165 146.5 337 c 128,-1,19
 55 509 55 509 55 743 c 0,20,21
 55 991 55 991 152.5 1163 c 128,-1,22
 250 1335 250 1335 415 1423.5 c 128,-1,23
 580 1512 580 1512 781 1512 c 0,24,25
 916 1512 916 1512 1032.5 1474.5 c 128,-1,26
 1149 1437 1149 1437 1239 1367 c 128,-1,27
 1329 1297 1329 1297 1384.5 1201 c 128,-1,28
 1440 1105 1440 1105 1451 988 c 1,29,-1
 1035 988 l 1,30,31
 1026 1027 1026 1027 1006.5 1058.5 c 128,-1,32
 987 1090 987 1090 956.5 1112 c 128,-1,33
 926 1134 926 1134 885.5 1145 c 128,-1,34
 845 1156 845 1156 794 1156 c 0,35,36
 691 1156 691 1156 619.5 1108 c 128,-1,37
 548 1060 548 1060 511 968.5 c 128,-1,38
 474 877 474 877 474 746 c 256,39,40
 474 615 474 615 510.5 523 c 128,-1,41
 547 431 547 431 619.5 382.5 c 128,-1,42
 692 334 692 334 800 334 c 0,43,44
 886 334 886 334 945.5 361 c 128,-1,45
 1005 388 1005 388 1036.5 435.5 c 128,-1,46
 1068 483 1068 483 1068 548 c 1,47,-1
 1209 548 l 1,48,-1
 1209 449 l 2,49,50
 1209 338 1209 338 1177.5 250.5 c 128,-1,51
 1146 163 1146 163 1084.5 102.5 c 128,-1,52
 1023 42 1023 42 935 10 c 128,-1,53
 847 -22 847 -22 735 -22 c 0,16,17
1216 0 m 1,54,-1
 1166 336 l 1,55,-1
 1166 540 l 1,56,-1
 798 540 l 1,57,-1
 798 832 l 1,58,-1
 1466 832 l 1,59,-1
 1466 0 l 1,60,-1
 1216 0 l 1,54,-1
EndSplineSet
EndChar

StartChar: H
Encoding: 72 72 161
Width: 1512
GlyphClass: 2
Flags: W
AnchorPoint: "Anchor-3" 292 1 basechar 0
AnchorPoint: "Anchor-1" 757 1490 basechar 0
AnchorPoint: "Anchor-0" 757 0 basechar 0
LayerCount: 2
Fore
SplineSet
88 0 m 1,0,-1
 88 1490 l 1,1,-1
 498 1490 l 1,2,-1
 498 929 l 1,3,-1
 1014 929 l 1,4,-1
 1014 1490 l 1,5,-1
 1424 1490 l 1,6,-1
 1424 0 l 1,7,-1
 1014 0 l 1,8,-1
 1014 590 l 1,9,-1
 498 590 l 1,10,-1
 498 0 l 1,11,-1
 88 0 l 1,0,-1
EndSplineSet
Substitution2: "'c2sc' Capitals to Small Capitals in Latin lookup 68 subtable" h.sc
Substitution2: "'ss06' Style Set 6 in Latin lookup 52 subtable" H.squared
Substitution2: "'ss05' Style Set 5 in Latin lookup 51 subtable" uni24BD
Substitution2: "'aalt' Access All Alternates in Latin lookup 0 subtable" h.sc
Position2: "'cpsp' Capital Spacing in Latin lookup 0 subtable" dx=0 dy=0 dh=0 dv=0
EndChar

StartChar: Hbar
Encoding: 294 294 169
Width: 1690
GlyphClass: 2
Flags: W
AnchorPoint: "Anchor-3" 376 1 basechar 0
AnchorPoint: "Anchor-1" 841 1490 basechar 0
AnchorPoint: "Anchor-0" 841 0 basechar 0
LayerCount: 2
Fore
SplineSet
1642 1268 m 1,0,-1
 1642 1076 l 1,1,-1
 48 1076 l 1,2,-1
 48 1268 l 1,3,-1
 1642 1268 l 1,0,-1
172 0 m 1,4,-1
 172 1490 l 1,5,-1
 582 1490 l 1,6,-1
 582 929 l 1,7,-1
 1098 929 l 1,8,-1
 1098 1490 l 1,9,-1
 1508 1490 l 1,10,-1
 1508 0 l 1,11,-1
 1098 0 l 1,12,-1
 1098 590 l 1,13,-1
 582 590 l 1,14,-1
 582 0 l 1,15,-1
 172 0 l 1,4,-1
EndSplineSet
Position2: "'cpsp' Capital Spacing in Latin lookup 0 subtable" dx=0 dy=0 dh=0 dv=0
EndChar

StartChar: uni04C7
Encoding: 1223 1223 170
Width: 1512
GlyphClass: 2
Flags: W
AnchorPoint: "Anchor-3" 292 1 basechar 0
AnchorPoint: "Anchor-1" 757 1490 basechar 0
AnchorPoint: "Anchor-0" 757 0 basechar 0
LayerCount: 2
Fore
SplineSet
796 -417 m 1,0,-1
 796 -108 l 1,1,2
 819 -111 819 -111 851 -112 c 128,-1,3
 883 -113 883 -113 921 -113 c 0,4,5
 972 -113 972 -113 993 -94 c 128,-1,6
 1014 -75 1014 -75 1014 -32 c 2,7,-1
 1014 120 l 1,8,-1
 1424 120 l 1,9,-1
 1424 -55 l 2,10,11
 1424 -242 1424 -242 1319 -335.5 c 128,-1,12
 1214 -429 1214 -429 1003 -429 c 0,13,14
 941 -429 941 -429 887.5 -426 c 128,-1,15
 834 -423 834 -423 796 -417 c 1,0,-1
88 0 m 1,16,-1
 88 1490 l 1,17,-1
 498 1490 l 1,18,-1
 498 929 l 1,19,-1
 1014 929 l 1,20,-1
 1014 1490 l 1,21,-1
 1424 1490 l 1,22,-1
 1424 0 l 1,23,-1
 1014 0 l 1,24,-1
 1014 590 l 1,25,-1
 498 590 l 1,26,-1
 498 0 l 1,27,-1
 88 0 l 1,16,-1
EndSplineSet
Position2: "'cpsp' Capital Spacing in Latin lookup 0 subtable" dx=0 dy=0 dh=0 dv=0
EndChar

StartChar: uni04A4
Encoding: 1188 1188 173
Width: 2074
GlyphClass: 2
Flags: W
AnchorPoint: "Anchor-3" 292 1 basechar 0
AnchorPoint: "Anchor-1" 757 1490 basechar 0
AnchorPoint: "Anchor-0" 757 0 basechar 0
LayerCount: 2
Fore
SplineSet
2026 1490 m 1,0,-1
 2026 1164 l 1,1,-1
 1370 1164 l 1,2,-1
 1028 1490 l 1,3,-1
 2026 1490 l 1,0,-1
88 0 m 1,4,-1
 88 1490 l 1,5,-1
 498 1490 l 1,6,-1
 498 929 l 1,7,-1
 1014 929 l 1,8,-1
 1014 1490 l 1,9,-1
 1424 1490 l 1,10,-1
 1424 0 l 1,11,-1
 1014 0 l 1,12,-1
 1014 590 l 1,13,-1
 498 590 l 1,14,-1
 498 0 l 1,15,-1
 88 0 l 1,4,-1
EndSplineSet
Position2: "'cpsp' Capital Spacing in Latin lookup 0 subtable" dx=0 dy=0 dh=0 dv=0
EndChar

StartChar: uni01F6
Encoding: 502 502 174
Width: 2266
Flags: W
LayerCount: 2
Fore
SplineSet
1595 -22 m 0,0,1
 1420 -22 1420 -22 1289.5 41 c 128,-1,2
 1159 104 1159 104 1086.5 217.5 c 128,-1,3
 1014 331 1014 331 1014 483 c 2,4,-1
 1014 582 l 1,5,-1
 498 582 l 1,6,-1
 498 0 l 1,7,-1
 88 0 l 1,8,-1
 88 1490 l 1,9,-1
 498 1490 l 1,10,-1
 498 921 l 1,11,-1
 1014 921 l 1,12,-1
 1014 1490 l 1,13,-1
 1424 1490 l 1,14,-1
 1424 496 l 2,15,16
 1424 438 1424 438 1445 395 c 128,-1,17
 1466 352 1466 352 1505.5 329 c 128,-1,18
 1545 306 1545 306 1598 306 c 0,19,20
 1652 306 1652 306 1690.5 329 c 128,-1,21
 1729 352 1729 352 1749.5 395 c 128,-1,22
 1770 438 1770 438 1770 496 c 2,23,-1
 1770 1062 l 1,24,-1
 2172 1062 l 1,25,-1
 2172 483 l 2,26,27
 2173 331 2173 331 2101.5 217.5 c 128,-1,28
 2030 104 2030 104 1900.5 41 c 128,-1,29
 1771 -22 1771 -22 1595 -22 c 0,0,1
EndSplineSet
Position2: "'cpsp' Capital Spacing in Latin lookup 0 subtable" dx=0 dy=0 dh=0 dv=0
EndChar

StartChar: I
Encoding: 73 73 197
Width: 586
GlyphClass: 2
Flags: W
AnchorPoint: "Anchor-4" 498 0 basechar 0
AnchorPoint: "Anchor-1" 295 1490 basechar 0
AnchorPoint: "Anchor-0" 293 0 basechar 0
LayerCount: 2
Fore
SplineSet
498 1490 m 1,0,-1
 498 0 l 1,1,-1
 88 0 l 1,2,-1
 88 1490 l 1,3,-1
 498 1490 l 1,0,-1
EndSplineSet
Substitution2: "'c2sc' Capitals to Small Capitals in Latin lookup 68 subtable" i.sc
Substitution2: "'cv08' Character Variants 08 in Latin lookup 62 subtable" I.1
Substitution2: "'ss06' Style Set 6 in Latin lookup 52 subtable" I.squared
Substitution2: "'ss05' Style Set 5 in Latin lookup 51 subtable" uni24BE
Substitution2: "'ss04' Style Set 4 in Latin lookup 50 subtable" I.1
Substitution2: "'ss02' Style Set 2 in Latin lookup 48 subtable" I.1
Substitution2: "'salt' Stylistic Alternatives in Latin lookup 46 subtable" I.1
Substitution2: "'aalt' Access All Alternates in Latin lookup 0 subtable" i.sc
Position2: "'cpsp' Capital Spacing in Latin lookup 0 subtable" dx=0 dy=0 dh=0 dv=0
EndChar

StartChar: I.1
Encoding: 57356 57356 235
Width: 967
GlyphClass: 2
Flags: W
AnchorPoint: "Anchor-4" 913 0 basechar 0
AnchorPoint: "Anchor-1" 484 1490 basechar 0
AnchorPoint: "Anchor-0" 484 0 basechar 0
LayerCount: 2
Fore
SplineSet
54 0 m 1,0,-1
 54 326 l 1,1,-1
 278 326 l 1,2,-1
 278 1164 l 1,3,-1
 54 1164 l 1,4,-1
 54 1490 l 1,5,-1
 913 1490 l 1,6,-1
 913 1164 l 1,7,-1
 688 1164 l 1,8,-1
 688 326 l 1,9,-1
 913 326 l 1,10,-1
 913 0 l 1,11,-1
 54 0 l 1,0,-1
EndSplineSet
EndChar

StartChar: J
Encoding: 74 74 267
Width: 1210
GlyphClass: 2
Flags: W
AnchorPoint: "Anchor-1" 918 1490 basechar 0
LayerCount: 2
Fore
SplineSet
580 -22 m 0,0,1
 322 -22 322 -22 182.5 105.5 c 128,-1,2
 43 233 43 233 43 470 c 2,3,-1
 43 576 l 1,4,-1
 437 576 l 1,5,-1
 437 464 l 2,6,7
 437 388 437 388 473 348 c 128,-1,8
 509 308 509 308 576 308 c 256,9,10
 643 308 643 308 679 348 c 128,-1,11
 715 388 715 388 715 465 c 2,12,-1
 715 1490 l 1,13,-1
 1122 1490 l 1,14,-1
 1122 465 l 2,15,16
 1122 231 1122 231 981.5 104.5 c 128,-1,17
 841 -22 841 -22 580 -22 c 0,0,1
EndSplineSet
Substitution2: "'ss06' Style Set 6 in Latin lookup 52 subtable" J.squared
Substitution2: "'ss05' Style Set 5 in Latin lookup 51 subtable" uni24BF
Position2: "'cpsp' Capital Spacing in Latin lookup 0 subtable" dx=0 dy=0 dh=0 dv=0
EndChar

StartChar: K
Encoding: 75 75 272
Width: 1525
GlyphClass: 2
Flags: W
AnchorPoint: "Anchor-1" 742 1490 basechar 0
AnchorPoint: "Anchor-0" 742 0 basechar 0
LayerCount: 2
Fore
SplineSet
395 237 m 1,0,-1
 395 661 l 1,1,2
 441 741 441 741 485.5 811 c 128,-1,3
 530 881 530 881 581.5 952 c 128,-1,4
 633 1023 633 1023 697 1108 c 2,5,-1
 994 1490 l 1,6,-1
 1473 1490 l 1,7,-1
 850 723 l 1,8,-1
 813 732 l 1,9,-1
 395 237 l 1,0,-1
88 0 m 1,10,-1
 88 1490 l 1,11,-1
 498 1490 l 1,12,-1
 498 1171 l 1,13,-1
 495 741 l 1,14,-1
 498 545 l 1,15,-1
 498 0 l 1,16,-1
 88 0 l 1,10,-1
1026 0 m 1,17,-1
 667 600 l 1,18,-1
 918 904 l 1,19,-1
 1502 0 l 1,20,-1
 1026 0 l 1,17,-1
EndSplineSet
Substitution2: "'ss06' Style Set 6 in Latin lookup 52 subtable" K.squared
Substitution2: "'ss05' Style Set 5 in Latin lookup 51 subtable" uni24C0
Position2: "'cpsp' Capital Spacing in Latin lookup 0 subtable" dx=0 dy=0 dh=0 dv=0
EndChar

StartChar: uni04A0
Encoding: 1184 1184 278
Width: 1868
GlyphClass: 2
Flags: W
AnchorPoint: "Anchor-1" 1048 1490 basechar 0
LayerCount: 2
Fore
SplineSet
628 1490 m 1,0,-1
 628 1151 l 1,1,-1
 48 1151 l 1,2,-1
 48 1490 l 1,3,-1
 628 1490 l 1,0,-1
432 0 m 1,4,-1
 432 1490 l 1,5,-1
 842 1490 l 1,6,-1
 842 930 l 1,7,-1
 956 930 l 1,8,-1
 1345 1490 l 1,9,-1
 1819 1490 l 1,10,-1
 1287 765 l 1,11,-1
 1845 0 l 1,12,-1
 1371 0 l 1,13,-1
 952 595 l 1,14,-1
 842 595 l 1,15,-1
 842 0 l 1,16,-1
 432 0 l 1,4,-1
EndSplineSet
Position2: "'cpsp' Capital Spacing in Latin lookup 0 subtable" dx=0 dy=0 dh=0 dv=0
EndChar

StartChar: uni0198
Encoding: 408 408 280
Width: 1555
Flags: W
LayerCount: 2
Fore
SplineSet
88 0 m 1,0,-1
 88 1490 l 1,1,-1
 492 1490 l 1,2,-1
 492 915 l 1,3,-1
 512 915 l 1,4,-1
 935 1343 l 2,5,6
 1024 1432 1024 1432 1122 1474 c 128,-1,7
 1220 1516 1220 1516 1328 1507.5 c 128,-1,8
 1436 1499 1436 1499 1553 1435 c 1,9,-1
 1433 1153 l 1,10,11
 1363 1185 1363 1185 1322.5 1164 c 128,-1,12
 1282 1143 1282 1143 1235 1096 c 2,13,-1
 932 793 l 1,14,-1
 1540 0 l 1,15,-1
 1056 0 l 1,16,-1
 672 504 l 1,17,-1
 492 319 l 1,18,-1
 492 0 l 1,19,-1
 88 0 l 1,0,-1
EndSplineSet
Position2: "'cpsp' Capital Spacing in Latin lookup 0 subtable" dx=0 dy=0 dh=0 dv=0
EndChar

StartChar: L
Encoding: 76 76 282
Width: 1168
GlyphClass: 2
Flags: W
AnchorPoint: "Anchor-1" 292 1490 basechar 0
AnchorPoint: "Anchor-0" 595 0 basechar 0
LayerCount: 2
Fore
SplineSet
88 0 m 1,0,-1
 88 1490 l 1,1,-1
 498 1490 l 1,2,-1
 498 339 l 1,3,-1
 1120 339 l 1,4,-1
 1120 0 l 1,5,-1
 88 0 l 1,0,-1
EndSplineSet
Substitution2: "'c2sc' Capitals to Small Capitals in Latin lookup 68 subtable" l.sc
Substitution2: "'ss06' Style Set 6 in Latin lookup 52 subtable" L.squared
Substitution2: "'ss05' Style Set 5 in Latin lookup 51 subtable" uni24C1
Substitution2: "'aalt' Access All Alternates in Latin lookup 0 subtable" l.sc
Position2: "'cpsp' Capital Spacing in Latin lookup 0 subtable" dx=0 dy=0 dh=0 dv=0
EndChar

StartChar: M
Encoding: 77 77 293
Width: 1926
GlyphClass: 2
Flags: W
AnchorPoint: "Anchor-1" 964 1490 basechar 0
AnchorPoint: "Anchor-0" 964 0 basechar 0
LayerCount: 2
Fore
SplineSet
88 0 m 1,0,-1
 88 1490 l 1,1,-1
 719 1490 l 1,2,-1
 852 1024 l 2,3,4
 869 965 869 965 892 872 c 128,-1,5
 915 779 915 779 937.5 674.5 c 128,-1,6
 960 570 960 570 979.5 474.5 c 128,-1,7
 999 379 999 379 1011 313 c 1,8,-1
 919 313 l 1,9,10
 931 380 931 380 950 475.5 c 128,-1,11
 969 571 969 571 991.5 675 c 128,-1,12
 1014 779 1014 779 1036 871.5 c 128,-1,13
 1058 964 1058 964 1076 1024 c 2,14,-1
 1208 1490 l 1,15,-1
 1838 1490 l 1,16,-1
 1838 0 l 1,17,-1
 1430 0 l 1,18,-1
 1430 577 l 2,19,20
 1430 628 1430 628 1432.5 710.5 c 128,-1,21
 1435 793 1435 793 1438 891.5 c 128,-1,22
 1441 990 1441 990 1443.5 1090.5 c 128,-1,23
 1446 1191 1446 1191 1446 1276 c 1,24,-1
 1482 1276 l 1,25,26
 1462 1186 1462 1186 1438 1086 c 128,-1,27
 1414 986 1414 986 1389.5 889.5 c 128,-1,28
 1365 793 1365 793 1343 711.5 c 128,-1,29
 1321 630 1321 630 1305 577 c 2,30,-1
 1133 0 l 1,31,-1
 796 0 l 1,32,-1
 620 577 l 2,33,34
 604 631 604 631 581.5 712 c 128,-1,35
 559 793 559 793 534 889.5 c 128,-1,36
 509 986 509 986 484.5 1086 c 128,-1,37
 460 1186 460 1186 439 1276 c 1,38,-1
 480 1276 l 1,39,40
 480 1190 480 1190 483 1090 c 128,-1,41
 486 990 486 990 488.5 891.5 c 128,-1,42
 491 793 491 793 494 710 c 128,-1,43
 497 627 497 627 497 577 c 2,44,-1
 497 0 l 1,45,-1
 88 0 l 1,0,-1
EndSplineSet
Substitution2: "'c2sc' Capitals to Small Capitals in Latin lookup 68 subtable" m.sc
Substitution2: "'ss06' Style Set 6 in Latin lookup 52 subtable" M.squared
Substitution2: "'ss05' Style Set 5 in Latin lookup 51 subtable" uni24C2
Substitution2: "'aalt' Access All Alternates in Latin lookup 0 subtable" m.sc
Position2: "'cpsp' Capital Spacing in Latin lookup 0 subtable" dx=0 dy=0 dh=0 dv=0
EndChar

StartChar: N
Encoding: 78 78 301
Width: 1545
GlyphClass: 2
Flags: W
AnchorPoint: "Anchor-1" 774 1490 basechar 0
AnchorPoint: "Anchor-0" 774 0 basechar 0
LayerCount: 2
Fore
SplineSet
88 0 m 1,0,-1
 88 1490 l 1,1,-1
 521 1490 l 1,2,-1
 880 906 l 2,3,4
 915 849 915 849 953 778 c 128,-1,5
 991 707 991 707 1030 623.5 c 128,-1,6
 1069 540 1069 540 1106 447 c 1,7,-1
 1064 389 l 1,8,9
 1058 469 1058 469 1053 574.5 c 128,-1,10
 1048 680 1048 680 1044.5 780 c 128,-1,11
 1041 880 1041 880 1041 944 c 2,12,-1
 1041 1490 l 1,13,-1
 1457 1490 l 1,14,-1
 1457 0 l 1,15,-1
 1024 0 l 1,16,-1
 689 544 l 2,17,18
 647 615 647 615 603.5 694 c 128,-1,19
 560 773 560 773 515 864.5 c 128,-1,20
 470 956 470 956 419 1065 c 1,21,-1
 481 1077 l 1,22,23
 489 971 489 971 494 869 c 128,-1,24
 499 767 499 767 502 682 c 128,-1,25
 505 597 505 597 505 544 c 2,26,-1
 505 0 l 1,27,-1
 88 0 l 1,0,-1
EndSplineSet
Substitution2: "'c2sc' Capitals to Small Capitals in Latin lookup 68 subtable" n.sc
Substitution2: "'ss06' Style Set 6 in Latin lookup 52 subtable" N.squared
Substitution2: "'ss05' Style Set 5 in Latin lookup 51 subtable" uni24C3
Substitution2: "'aalt' Access All Alternates in Latin lookup 0 subtable" n.sc
Position2: "'cpsp' Capital Spacing in Latin lookup 0 subtable" dx=0 dy=0 dh=0 dv=0
EndChar

StartChar: Nhook
Encoding: 413 413 311
Width: 1545
GlyphClass: 2
Flags: W
AnchorPoint: "Anchor-1" 774 1490 basechar 0
AnchorPoint: "Anchor-0" 774 0 basechar 0
LayerCount: 2
Fore
SplineSet
-130 -417 m 1,0,-1
 -130 -108 l 1,1,2
 -107 -111 -107 -111 -75 -112 c 128,-1,3
 -43 -113 -43 -113 -5 -113 c 0,4,5
 46 -113 46 -113 67 -94 c 128,-1,6
 88 -75 88 -75 88 -32 c 2,7,-1
 88 120 l 1,8,-1
 498 120 l 1,9,-1
 498 -55 l 2,10,11
 498 -242 498 -242 393 -335.5 c 128,-1,12
 288 -429 288 -429 77 -429 c 0,13,14
 15 -429 15 -429 -38.5 -426 c 128,-1,15
 -92 -423 -92 -423 -130 -417 c 1,0,-1
88 0 m 1,16,-1
 88 1490 l 1,17,-1
 521 1490 l 1,18,-1
 880 906 l 2,19,20
 915 849 915 849 953 778 c 128,-1,21
 991 707 991 707 1030 623.5 c 128,-1,22
 1069 540 1069 540 1106 447 c 1,23,-1
 1064 389 l 1,24,25
 1058 469 1058 469 1053 574.5 c 128,-1,26
 1048 680 1048 680 1044.5 780 c 128,-1,27
 1041 880 1041 880 1041 944 c 2,28,-1
 1041 1490 l 1,29,-1
 1457 1490 l 1,30,-1
 1457 0 l 1,31,-1
 1024 0 l 1,32,-1
 689 544 l 2,33,34
 647 615 647 615 603.5 694 c 128,-1,35
 560 773 560 773 515 864.5 c 128,-1,36
 470 956 470 956 419 1065 c 1,37,-1
 481 1077 l 1,38,39
 489 971 489 971 494 869 c 128,-1,40
 499 767 499 767 502 682 c 128,-1,41
 505 597 505 597 505 544 c 2,42,-1
 505 0 l 1,43,-1
 88 0 l 1,16,-1
EndSplineSet
Position2: "'cpsp' Capital Spacing in Latin lookup 0 subtable" dx=0 dy=0 dh=0 dv=0
EndChar

StartChar: Eng
Encoding: 330 330 312
Width: 1545
GlyphClass: 2
Flags: W
AnchorPoint: "Anchor-1" 774 1490 basechar 0
AnchorPoint: "Anchor-0" 774 0 basechar 0
LayerCount: 2
Fore
SplineSet
828 -417 m 1,0,-1
 828 -108 l 1,1,2
 851 -111 851 -111 883 -112 c 128,-1,3
 915 -113 915 -113 953 -113 c 0,4,5
 1004 -113 1004 -113 1025 -94 c 128,-1,6
 1046 -75 1046 -75 1046 -32 c 2,7,-1
 1046 120 l 1,8,-1
 1456 120 l 1,9,-1
 1456 -55 l 2,10,11
 1456 -242 1456 -242 1351 -335.5 c 128,-1,12
 1246 -429 1246 -429 1035 -429 c 0,13,14
 973 -429 973 -429 919.5 -426 c 128,-1,15
 866 -423 866 -423 828 -417 c 1,0,-1
88 0 m 1,16,-1
 88 1490 l 1,17,-1
 521 1490 l 1,18,-1
 880 906 l 2,19,20
 915 849 915 849 953 778 c 128,-1,21
 991 707 991 707 1030 623.5 c 128,-1,22
 1069 540 1069 540 1106 447 c 1,23,-1
 1064 389 l 1,24,25
 1058 469 1058 469 1053 574.5 c 128,-1,26
 1048 680 1048 680 1044.5 780 c 128,-1,27
 1041 880 1041 880 1041 944 c 2,28,-1
 1041 1490 l 1,29,-1
 1457 1490 l 1,30,-1
 1457 0 l 1,31,-1
 1024 0 l 1,32,-1
 689 544 l 2,33,34
 647 615 647 615 603.5 694 c 128,-1,35
 560 773 560 773 515 864.5 c 128,-1,36
 470 956 470 956 419 1065 c 1,37,-1
 481 1077 l 1,38,39
 489 971 489 971 494 869 c 128,-1,40
 499 767 499 767 502 682 c 128,-1,41
 505 597 505 597 505 544 c 2,42,-1
 505 0 l 1,43,-1
 88 0 l 1,16,-1
EndSplineSet
Position2: "'cpsp' Capital Spacing in Latin lookup 0 subtable" dx=0 dy=0 dh=0 dv=0
EndChar

StartChar: uni0418
Encoding: 1048 1048 313
Width: 1545
GlyphClass: 2
Flags: W
AnchorPoint: "Anchor-1" 748 1490 basechar 0
AnchorPoint: "Anchor-0" 771 0 basechar 0
LayerCount: 2
Fore
SplineSet
1457 0 m 1,0,-1
 1040 0 l 1,1,-1
 1040 544 l 2,2,3
 1040 597 1040 597 1043 682 c 128,-1,4
 1046 767 1046 767 1051 869 c 128,-1,5
 1056 971 1056 971 1064 1077 c 1,6,-1
 1126 1065 l 1,7,8
 1076 956 1076 956 1030.5 864.5 c 128,-1,9
 985 773 985 773 942.5 694 c 128,-1,10
 900 615 900 615 856 544 c 2,11,-1
 521 0 l 1,12,-1
 88 0 l 1,13,-1
 88 1490 l 1,14,-1
 504 1490 l 1,15,-1
 504 944 l 2,16,17
 504 880 504 880 500.5 780 c 128,-1,18
 497 680 497 680 491.5 574.5 c 128,-1,19
 486 469 486 469 481 389 c 1,20,-1
 439 447 l 1,21,22
 476 540 476 540 515 623.5 c 128,-1,23
 554 707 554 707 592.5 778 c 128,-1,24
 631 849 631 849 665 906 c 2,25,-1
 1024 1490 l 1,26,-1
 1457 1490 l 1,27,-1
 1457 0 l 1,0,-1
EndSplineSet
Position2: "'cpsp' Capital Spacing in Latin lookup 0 subtable" dx=0 dy=0 dh=0 dv=0
EndChar

StartChar: O
Encoding: 79 79 322
Width: 1558
GlyphClass: 2
Flags: W
AnchorPoint: "Anchor-4" 1503 744 basechar 0
AnchorPoint: "Anchor-1" 780 1490 basechar 0
AnchorPoint: "Anchor-0" 780 0 basechar 0
LayerCount: 2
Fore
SplineSet
780 -22 m 0,0,1
 577 -22 577 -22 412 67 c 128,-1,2
 247 156 247 156 151 327 c 128,-1,3
 55 498 55 498 55 744 c 0,4,5
 55 993 55 993 151 1164.5 c 128,-1,6
 247 1336 247 1336 412 1424 c 128,-1,7
 577 1512 577 1512 780 1512 c 0,8,9
 982 1512 982 1512 1146.5 1424 c 128,-1,10
 1311 1336 1311 1336 1407 1164.5 c 128,-1,11
 1503 993 1503 993 1503 744 c 0,12,13
 1503 497 1503 497 1407 326 c 128,-1,14
 1311 155 1311 155 1146.5 66.5 c 128,-1,15
 982 -22 982 -22 780 -22 c 0,0,1
780 334 m 256,16,17
 879 334 879 334 947 382 c 128,-1,18
 1015 430 1015 430 1050.5 522 c 128,-1,19
 1086 614 1086 614 1086 744 c 0,20,21
 1086 876 1086 876 1050.5 968 c 128,-1,22
 1015 1060 1015 1060 947 1108 c 128,-1,23
 879 1156 879 1156 780 1156 c 256,24,25
 681 1156 681 1156 612.5 1108.5 c 128,-1,26
 544 1061 544 1061 509 968.5 c 128,-1,27
 474 876 474 876 474 744 c 0,28,29
 474 614 474 614 509 522.5 c 128,-1,30
 544 431 544 431 612.5 382.5 c 128,-1,31
 681 334 681 334 780 334 c 256,16,17
EndSplineSet
Substitution2: "'ss06' Style Set 6 in Latin lookup 52 subtable" O.squared
Substitution2: "'ss05' Style Set 5 in Latin lookup 51 subtable" uni24C4
Substitution2: "Single Substitution lookup 44 subtable" ordmasculine
Substitution2: "'aalt' Access All Alternates in Latin lookup 0 subtable" ordmasculine
Position2: "'cpsp' Capital Spacing in Latin lookup 0 subtable" dx=0 dy=0 dh=0 dv=0
EndChar

StartChar: Ohorn
Encoding: 416 416 326
Width: 1578
GlyphClass: 2
Flags: W
AnchorPoint: "Anchor-4" 1503 744 basechar 0
AnchorPoint: "Anchor-1" 780 1490 basechar 0
AnchorPoint: "Anchor-0" 780 0 basechar 0
LayerCount: 2
Fore
SplineSet
790 1276 m 1,0,-1
 790 1512 l 1,1,2
 833 1512 833 1512 868.5 1509 c 128,-1,3
 904 1506 904 1506 941.5 1501.5 c 128,-1,4
 979 1497 979 1497 1025 1493.5 c 128,-1,5
 1071 1490 1071 1490 1133 1490 c 0,6,7
 1165 1490 1165 1490 1165 1522 c 2,8,-1
 1165 1714 l 1,9,-1
 1513 1714 l 1,10,-1
 1513 1480 l 2,11,12
 1513 1362 1513 1362 1438 1312 c 128,-1,13
 1363 1262 1363 1262 1255 1262 c 0,14,15
 1197 1262 1197 1262 1139 1264.5 c 128,-1,16
 1081 1267 1081 1267 1022.5 1270 c 128,-1,17
 964 1273 964 1273 906 1274.5 c 128,-1,18
 848 1276 848 1276 790 1276 c 1,0,-1
780 -22 m 0,19,20
 577 -22 577 -22 412 67 c 128,-1,21
 247 156 247 156 151 327 c 128,-1,22
 55 498 55 498 55 744 c 0,23,24
 55 993 55 993 151 1164.5 c 128,-1,25
 247 1336 247 1336 412 1424 c 128,-1,26
 577 1512 577 1512 780 1512 c 0,27,28
 982 1512 982 1512 1146.5 1424 c 128,-1,29
 1311 1336 1311 1336 1407 1164.5 c 128,-1,30
 1503 993 1503 993 1503 744 c 0,31,32
 1503 497 1503 497 1407 326 c 128,-1,33
 1311 155 1311 155 1146.5 66.5 c 128,-1,34
 982 -22 982 -22 780 -22 c 0,19,20
780 334 m 256,35,36
 879 334 879 334 947 382 c 128,-1,37
 1015 430 1015 430 1050.5 522 c 128,-1,38
 1086 614 1086 614 1086 744 c 0,39,40
 1086 876 1086 876 1050.5 968 c 128,-1,41
 1015 1060 1015 1060 947 1108 c 128,-1,42
 879 1156 879 1156 780 1156 c 256,43,44
 681 1156 681 1156 612.5 1108.5 c 128,-1,45
 544 1061 544 1061 509 968.5 c 128,-1,46
 474 876 474 876 474 744 c 0,47,48
 474 614 474 614 509 522.5 c 128,-1,49
 544 431 544 431 612.5 382.5 c 128,-1,50
 681 334 681 334 780 334 c 256,35,36
EndSplineSet
Position2: "'cpsp' Capital Spacing in Latin lookup 0 subtable" dx=0 dy=0 dh=0 dv=0
EndChar

StartChar: uni03F4
Encoding: 1012 1012 368
Width: 1558
GlyphClass: 2
Flags: W
AnchorPoint: "Anchor-4" 1503 744 basechar 0
AnchorPoint: "Anchor-1" 780 1490 basechar 0
AnchorPoint: "Anchor-0" 780 0 basechar 0
LayerCount: 2
Fore
SplineSet
1264 862 m 1,0,-1
 1264 628 l 1,1,-1
 350 628 l 1,2,-1
 350 862 l 1,3,-1
 1264 862 l 1,0,-1
780 -22 m 0,4,5
 577 -22 577 -22 412 67 c 128,-1,6
 247 156 247 156 151 327 c 128,-1,7
 55 498 55 498 55 744 c 0,8,9
 55 993 55 993 151 1164.5 c 128,-1,10
 247 1336 247 1336 412 1424 c 128,-1,11
 577 1512 577 1512 780 1512 c 0,12,13
 982 1512 982 1512 1146.5 1424 c 128,-1,14
 1311 1336 1311 1336 1407 1164.5 c 128,-1,15
 1503 993 1503 993 1503 744 c 0,16,17
 1503 497 1503 497 1407 326 c 128,-1,18
 1311 155 1311 155 1146.5 66.5 c 128,-1,19
 982 -22 982 -22 780 -22 c 0,4,5
780 334 m 256,20,21
 879 334 879 334 947 382 c 128,-1,22
 1015 430 1015 430 1050.5 522 c 128,-1,23
 1086 614 1086 614 1086 744 c 0,24,25
 1086 876 1086 876 1050.5 968 c 128,-1,26
 1015 1060 1015 1060 947 1108 c 128,-1,27
 879 1156 879 1156 780 1156 c 256,28,29
 681 1156 681 1156 612.5 1108.5 c 128,-1,30
 544 1061 544 1061 509 968.5 c 128,-1,31
 474 876 474 876 474 744 c 0,32,33
 474 614 474 614 509 522.5 c 128,-1,34
 544 431 544 431 612.5 382.5 c 128,-1,35
 681 334 681 334 780 334 c 256,20,21
EndSplineSet
Position2: "'cpsp' Capital Spacing in Latin lookup 0 subtable" dx=0 dy=0 dh=0 dv=0
EndChar

StartChar: OE
Encoding: 338 338 375
Width: 2141
GlyphClass: 2
Flags: W
AnchorPoint: "Anchor-4" 2067 0 basechar 0
AnchorPoint: "Anchor-3" 1512 0 basechar 0
AnchorPoint: "Anchor-1" 1511 1490 basechar 0
AnchorPoint: "Anchor-0" 1511 0 basechar 0
LayerCount: 2
Fore
SplineSet
803 0 m 2,0,1
 575 0 575 0 407 91 c 128,-1,2
 239 182 239 182 147 349 c 128,-1,3
 55 516 55 516 55 744 c 0,4,5
 55 974 55 974 148 1141.5 c 128,-1,6
 241 1309 241 1309 410 1399.5 c 128,-1,7
 579 1490 579 1490 809 1490 c 2,8,-1
 1201 1490 l 1,9,-1
 1201 1146 l 1,10,-1
 833 1146 l 2,11,12
 711 1146 711 1146 630.5 1107 c 128,-1,13
 550 1068 550 1068 509.5 979.5 c 128,-1,14
 469 891 469 891 469 744 c 0,15,16
 469 599 469 599 508.5 511 c 128,-1,17
 548 423 548 423 626 383.5 c 128,-1,18
 704 344 704 344 821 344 c 2,19,-1
 1195 344 l 1,20,-1
 1195 0 l 1,21,-1
 803 0 l 2,0,1
955 0 m 1,22,-1
 955 1490 l 1,23,-1
 2068 1490 l 1,24,-1
 2068 1151 l 1,25,-1
 1365 1151 l 1,26,-1
 1365 914 l 1,27,-1
 2012 914 l 1,28,-1
 2012 585 l 1,29,-1
 1365 585 l 1,30,-1
 1365 339 l 1,31,-1
 2067 339 l 1,32,-1
 2067 0 l 1,33,-1
 955 0 l 1,22,-1
EndSplineSet
Substitution2: "'c2sc' Capitals to Small Capitals in Latin lookup 68 subtable" oe.sc
Substitution2: "'aalt' Access All Alternates in Latin lookup 0 subtable" oe.sc
Position2: "'cpsp' Capital Spacing in Latin lookup 0 subtable" dx=0 dy=0 dh=0 dv=0
EndChar

StartChar: P
Encoding: 80 80 376
Width: 1336
GlyphClass: 2
Flags: W
AnchorPoint: "Anchor-1" 656 1490 basechar 0
LayerCount: 2
Fore
SplineSet
88 0 m 1,0,-1
 88 1490 l 1,1,-1
 726 1490 l 2,2,3
 898 1490 898 1490 1025 1426 c 128,-1,4
 1152 1362 1152 1362 1222 1244 c 128,-1,5
 1292 1126 1292 1126 1292 966 c 0,6,7
 1292 807 1292 807 1221.5 690.5 c 128,-1,8
 1151 574 1151 574 1022 510 c 128,-1,9
 893 446 893 446 719 446 c 2,10,-1
 330 446 l 1,11,-1
 330 775 l 1,12,-1
 662 775 l 2,13,14
 730 775 730 775 778.5 798.5 c 128,-1,15
 827 822 827 822 853 865 c 128,-1,16
 879 908 879 908 879 966 c 0,17,18
 879 1027 879 1027 853 1069 c 128,-1,19
 827 1111 827 1111 778.5 1134.5 c 128,-1,20
 730 1158 730 1158 662 1158 c 2,21,-1
 498 1158 l 1,22,-1
 498 0 l 1,23,-1
 88 0 l 1,0,-1
EndSplineSet
Substitution2: "'ss06' Style Set 6 in Latin lookup 52 subtable" P.squared
Substitution2: "'ss05' Style Set 5 in Latin lookup 51 subtable" uni24C5
Position2: "'cpsp' Capital Spacing in Latin lookup 0 subtable" dx=0 dy=0 dh=0 dv=0
EndChar

StartChar: uni048E
Encoding: 1166 1166 379
Width: 1374
GlyphClass: 2
Flags: W
AnchorPoint: "Anchor-1" 668 1490 basechar 0
LayerCount: 2
Fore
SplineSet
708 992 m 1,0,-1
 1120 352 l 1,1,-1
 990 268 l 1,2,-1
 576 908 l 1,3,-1
 708 992 l 1,0,-1
100 0 m 1,4,-1
 100 1490 l 1,5,-1
 738 1490 l 2,6,7
 910 1490 910 1490 1037 1426 c 128,-1,8
 1164 1362 1164 1362 1234 1244 c 128,-1,9
 1304 1126 1304 1126 1304 966 c 0,10,11
 1304 807 1304 807 1233.5 690.5 c 128,-1,12
 1163 574 1163 574 1034 510 c 128,-1,13
 905 446 905 446 731 446 c 2,14,-1
 342 446 l 1,15,-1
 342 775 l 1,16,-1
 674 775 l 2,17,18
 742 775 742 775 790.5 798.5 c 128,-1,19
 839 822 839 822 865 865 c 128,-1,20
 891 908 891 908 891 966 c 0,21,22
 891 1027 891 1027 865 1069 c 128,-1,23
 839 1111 839 1111 790.5 1134.5 c 128,-1,24
 742 1158 742 1158 674 1158 c 2,25,-1
 510 1158 l 1,26,-1
 510 0 l 1,27,-1
 100 0 l 1,4,-1
EndSplineSet
Position2: "'cpsp' Capital Spacing in Latin lookup 0 subtable" dx=0 dy=0 dh=0 dv=0
EndChar

StartChar: uni01A4
Encoding: 420 420 380
Width: 1816
GlyphClass: 2
Flags: W
AnchorPoint: "Anchor-1" 1136 1490 basechar 0
LayerCount: 2
Fore
SplineSet
33 1021 m 1,0,-1
 33 1117 l 2,1,2
 33 1297 33 1297 135.5 1393.5 c 128,-1,3
 238 1490 238 1490 446 1490 c 2,4,-1
 570 1490 l 1,5,-1
 570 1158 l 1,6,-1
 514 1158 l 2,7,8
 462 1158 462 1158 435.5 1135 c 128,-1,9
 409 1112 409 1112 409 1068 c 2,10,-1
 409 1021 l 1,11,-1
 33 1021 l 1,0,-1
568 0 m 1,12,-1
 568 1490 l 1,13,-1
 1206 1490 l 2,14,15
 1378 1490 1378 1490 1505 1426 c 128,-1,16
 1632 1362 1632 1362 1702 1244 c 128,-1,17
 1772 1126 1772 1126 1772 966 c 0,18,19
 1772 807 1772 807 1701.5 690.5 c 128,-1,20
 1631 574 1631 574 1502 510 c 128,-1,21
 1373 446 1373 446 1199 446 c 2,22,-1
 810 446 l 1,23,-1
 810 775 l 1,24,-1
 1142 775 l 2,25,26
 1210 775 1210 775 1258.5 798.5 c 128,-1,27
 1307 822 1307 822 1333 865 c 128,-1,28
 1359 908 1359 908 1359 966 c 0,29,30
 1359 1027 1359 1027 1333 1069 c 128,-1,31
 1307 1111 1307 1111 1258.5 1134.5 c 128,-1,32
 1210 1158 1210 1158 1142 1158 c 2,33,-1
 978 1158 l 1,34,-1
 978 0 l 1,35,-1
 568 0 l 1,12,-1
EndSplineSet
Position2: "'cpsp' Capital Spacing in Latin lookup 0 subtable" dx=0 dy=0 dh=0 dv=0
EndChar

StartChar: Q
Encoding: 81 81 383
Width: 1570
GlyphClass: 2
Flags: W
AnchorPoint: "Anchor-4" 1503 744 basechar 0
AnchorPoint: "Anchor-1" 780 1490 basechar 0
AnchorPoint: "Anchor-0" 780 0 basechar 0
LayerCount: 2
Fore
SplineSet
640 552 m 1,0,-1
 954 552 l 1,1,-1
 1068 410 l 1,2,-1
 1260 192 l 1,3,-1
 1514 -110 l 1,4,-1
 1160 -110 l 1,5,-1
 986 96 l 1,6,-1
 856 268 l 1,7,-1
 640 552 l 1,0,-1
780 -22 m 0,8,9
 577 -22 577 -22 412 67 c 128,-1,10
 247 156 247 156 151 327 c 128,-1,11
 55 498 55 498 55 744 c 0,12,13
 55 993 55 993 151 1164.5 c 128,-1,14
 247 1336 247 1336 412 1424 c 128,-1,15
 577 1512 577 1512 780 1512 c 0,16,17
 982 1512 982 1512 1146.5 1424 c 128,-1,18
 1311 1336 1311 1336 1407 1164.5 c 128,-1,19
 1503 993 1503 993 1503 744 c 0,20,21
 1503 497 1503 497 1407 326 c 128,-1,22
 1311 155 1311 155 1146.5 66.5 c 128,-1,23
 982 -22 982 -22 780 -22 c 0,8,9
780 334 m 256,24,25
 879 334 879 334 947 382 c 128,-1,26
 1015 430 1015 430 1050.5 522 c 128,-1,27
 1086 614 1086 614 1086 744 c 0,28,29
 1086 876 1086 876 1050.5 968 c 128,-1,30
 1015 1060 1015 1060 947 1108 c 128,-1,31
 879 1156 879 1156 780 1156 c 256,32,33
 681 1156 681 1156 612.5 1108.5 c 128,-1,34
 544 1061 544 1061 509 968.5 c 128,-1,35
 474 876 474 876 474 744 c 0,36,37
 474 614 474 614 509 522.5 c 128,-1,38
 544 431 544 431 612.5 382.5 c 128,-1,39
 681 334 681 334 780 334 c 256,24,25
EndSplineSet
Substitution2: "'ss06' Style Set 6 in Latin lookup 52 subtable" Q.squared
Substitution2: "'ss05' Style Set 5 in Latin lookup 51 subtable" uni24C6
Position2: "'cpsp' Capital Spacing in Latin lookup 0 subtable" dx=0 dy=0 dh=0 dv=0
EndChar

StartChar: Q_rthook
Encoding: 586 586 384
Width: 1573
GlyphClass: 2
Flags: W
LayerCount: 2
Fore
SplineSet
1485 1490 m 1,0,-1
 1485 0 l 1,1,-1
 1084 0 l 1,2,-1
 1084 207 l 1,3,-1
 1078 207 l 1,4,5
 1020 106 1020 106 919 43 c 128,-1,6
 818 -20 818 -20 676 -20 c 0,7,8
 540 -20 540 -20 426.5 38 c 128,-1,9
 313 96 313 96 229.5 199.5 c 128,-1,10
 146 303 146 303 100.5 442.5 c 128,-1,11
 55 582 55 582 55 745 c 256,12,13
 55 908 55 908 102 1047.5 c 128,-1,14
 149 1187 149 1187 232.5 1291 c 128,-1,15
 316 1395 316 1395 429.5 1452.5 c 128,-1,16
 543 1510 543 1510 676 1510 c 0,17,18
 817 1510 817 1510 917.5 1447 c 128,-1,19
 1018 1384 1018 1384 1078 1285 c 1,20,-1
 1084 1285 l 1,21,-1
 1084 1490 l 1,22,-1
 1485 1490 l 1,0,-1
775 332 m 0,23,24
 875 332 875 332 943.5 380.5 c 128,-1,25
 1012 429 1012 429 1047.5 521 c 128,-1,26
 1083 613 1083 613 1083 745 c 0,27,28
 1083 878 1083 878 1047.5 970.5 c 128,-1,29
 1012 1063 1012 1063 943.5 1110.5 c 128,-1,30
 875 1158 875 1158 775 1158 c 0,31,32
 677 1158 677 1158 609 1110.5 c 128,-1,33
 541 1063 541 1063 506.5 971 c 128,-1,34
 472 879 472 879 472 745 c 0,35,36
 472 612 472 612 507 519.5 c 128,-1,37
 542 427 542 427 609.5 379.5 c 128,-1,38
 677 332 677 332 775 332 c 0,23,24
1497 -429 m 0,39,40
 1287 -429 1287 -429 1185.5 -335.5 c 128,-1,41
 1084 -242 1084 -242 1084 -55 c 2,42,-1
 1084 0 l 1,43,-1
 1485 0 l 1,44,-1
 1485 -44 l 2,45,46
 1485 -89 1485 -89 1507 -108.5 c 128,-1,47
 1529 -128 1529 -128 1579 -128 c 0,48,49
 1616 -128 1616 -128 1648.5 -127 c 128,-1,50
 1681 -126 1681 -126 1705 -124 c 1,51,-1
 1705 -417 l 1,52,53
 1666 -423 1666 -423 1612.5 -426 c 128,-1,54
 1559 -429 1559 -429 1497 -429 c 0,39,40
EndSplineSet
Position2: "'cpsp' Capital Spacing in Latin lookup 0 subtable" dx=0 dy=0 dh=0 dv=0
EndChar

StartChar: R
Encoding: 82 82 385
Width: 1366
GlyphClass: 2
Flags: W
AnchorPoint: "Anchor-1" 678 1490 basechar 0
AnchorPoint: "Anchor-0" 693 0 basechar 0
LayerCount: 2
Fore
SplineSet
88 0 m 1,0,-1
 88 1490 l 1,1,-1
 726 1490 l 2,2,3
 898 1490 898 1490 1025.5 1428.5 c 128,-1,4
 1153 1367 1153 1367 1223 1251.5 c 128,-1,5
 1293 1136 1293 1136 1293 977 c 0,6,7
 1293 820 1293 820 1220.5 708.5 c 128,-1,8
 1148 597 1148 597 1017 538.5 c 128,-1,9
 886 480 886 480 708 480 c 2,10,-1
 338 480 l 1,11,-1
 338 797 l 1,12,-1
 663 797 l 2,13,14
 730 797 730 797 778 817.5 c 128,-1,15
 826 838 826 838 852 878.5 c 128,-1,16
 878 919 878 919 878 977 c 0,17,18
 878 1037 878 1037 852.5 1077.5 c 128,-1,19
 827 1118 827 1118 778.5 1139 c 128,-1,20
 730 1160 730 1160 663 1160 c 2,21,-1
 498 1160 l 1,22,-1
 498 0 l 1,23,-1
 88 0 l 1,0,-1
904 0 m 1,24,-1
 560 681 l 1,25,-1
 988 681 l 1,26,-1
 1341 0 l 1,27,-1
 904 0 l 1,24,-1
EndSplineSet
Substitution2: "'c2sc' Capitals to Small Capitals in Latin lookup 68 subtable" r.sc
Substitution2: "'ss06' Style Set 6 in Latin lookup 52 subtable" R.squared
Substitution2: "'ss05' Style Set 5 in Latin lookup 51 subtable" uni24C7
Substitution2: "'aalt' Access All Alternates in Latin lookup 0 subtable" r.sc
Position2: "'cpsp' Capital Spacing in Latin lookup 0 subtable" dx=0 dy=0 dh=0 dv=0
EndChar

StartChar: uni211F
Encoding: 8479 8479 395
Width: 1372
GlyphClass: 2
Flags: W
AnchorPoint: "Anchor-1" 686 1490 basechar 0
AnchorPoint: "Anchor-0" 701 0 basechar 0
LayerCount: 2
Fore
SplineSet
926 1708 m 1,0,-1
 566 -376 l 1,1,-1
 446 -364 l 1,2,-1
 798 1626 l 1,3,-1
 474 1690 l 1,4,-1
 502 1798 l 1,5,-1
 926 1708 l 1,0,-1
96 0 m 1,6,-1
 96 1490 l 1,7,-1
 734 1490 l 2,8,9
 906 1490 906 1490 1033.5 1428.5 c 128,-1,10
 1161 1367 1161 1367 1231 1251.5 c 128,-1,11
 1301 1136 1301 1136 1301 977 c 0,12,13
 1301 820 1301 820 1228.5 708.5 c 128,-1,14
 1156 597 1156 597 1025 538.5 c 128,-1,15
 894 480 894 480 716 480 c 2,16,-1
 346 480 l 1,17,-1
 346 797 l 1,18,-1
 671 797 l 2,19,20
 738 797 738 797 786 817.5 c 128,-1,21
 834 838 834 838 860 878.5 c 128,-1,22
 886 919 886 919 886 977 c 0,23,24
 886 1037 886 1037 860.5 1077.5 c 128,-1,25
 835 1118 835 1118 786.5 1139 c 128,-1,26
 738 1160 738 1160 671 1160 c 2,27,-1
 506 1160 l 1,28,-1
 506 0 l 1,29,-1
 96 0 l 1,6,-1
912 0 m 1,30,-1
 568 681 l 1,31,-1
 996 681 l 1,32,-1
 1349 0 l 1,33,-1
 912 0 l 1,30,-1
EndSplineSet
EndChar

StartChar: Rx
Encoding: 8478 8478 396
Width: 1667
Flags: W
LayerCount: 2
Fore
SplineSet
88 1490 m 1,0,-1
 714 1490 l 2,1,2
 897 1490 897 1490 1025 1437.5 c 128,-1,3
 1153 1385 1153 1385 1220 1281 c 128,-1,4
 1287 1177 1287 1177 1287 1022 c 0,5,6
 1287 901 1287 901 1242.5 813 c 128,-1,7
 1198 725 1198 725 1126 666 c 128,-1,8
 1054 607 1054 607 970 571 c 2,9,-1
 895 536 l 1,10,-1
 333 536 l 1,11,-1
 331 857 l 1,12,-1
 721 857 l 2,13,14
 762 856 762 856 800 870 c 128,-1,15
 838 884 838 884 862.5 918 c 128,-1,16
 887 952 887 952 887 1011 c 0,17,18
 887 1072 887 1072 860.5 1105 c 128,-1,19
 834 1138 834 1138 794.5 1151.5 c 128,-1,20
 755 1165 755 1165 714 1165 c 2,21,-1
 492 1165 l 1,22,-1
 492 0 l 1,23,-1
 88 0 l 1,24,-1
 88 1490 l 1,0,-1
1252 0 m 1,25,-1
 759 687 l 1,26,-1
 1066 687 l 1,27,-1
 1567 0 l 1,28,-1
 1252 0 l 1,25,-1
1015 0 m 1,29,-1
 785 0 l 1,30,-1
 1285 687 l 1,31,-1
 1504 687 l 1,32,-1
 1015 0 l 1,29,-1
EndSplineSet
EndChar

StartChar: uni024C
Encoding: 588 588 397
Width: 1406
GlyphClass: 2
Flags: W
AnchorPoint: "Anchor-1" 722 1490 basechar 0
AnchorPoint: "Anchor-0" 737 0 basechar 0
LayerCount: 2
Fore
SplineSet
374 526 m 1,0,-1
 4 526 l 1,1,-1
 4 812 l 1,2,-1
 374 812 l 1,3,-1
 374 526 l 1,0,-1
132 0 m 1,4,-1
 132 1490 l 1,5,-1
 770 1490 l 2,6,7
 942 1490 942 1490 1069.5 1428.5 c 128,-1,8
 1197 1367 1197 1367 1267 1251.5 c 128,-1,9
 1337 1136 1337 1136 1337 977 c 0,10,11
 1337 820 1337 820 1264.5 708.5 c 128,-1,12
 1192 597 1192 597 1061 538.5 c 128,-1,13
 930 480 930 480 752 480 c 2,14,-1
 382 480 l 1,15,-1
 382 797 l 1,16,-1
 707 797 l 2,17,18
 774 797 774 797 822 817.5 c 128,-1,19
 870 838 870 838 896 878.5 c 128,-1,20
 922 919 922 919 922 977 c 0,21,22
 922 1037 922 1037 896.5 1077.5 c 128,-1,23
 871 1118 871 1118 822.5 1139 c 128,-1,24
 774 1160 774 1160 707 1160 c 2,25,-1
 542 1160 l 1,26,-1
 542 0 l 1,27,-1
 132 0 l 1,4,-1
948 0 m 1,28,-1
 604 681 l 1,29,-1
 1032 681 l 1,30,-1
 1385 0 l 1,31,-1
 948 0 l 1,28,-1
EndSplineSet
Position2: "'cpsp' Capital Spacing in Latin lookup 0 subtable" dx=0 dy=0 dh=0 dv=0
EndChar

StartChar: S
Encoding: 83 83 398
Width: 1384
GlyphClass: 2
Flags: W
AnchorPoint: "Anchor-3" 694 0 basechar 0
AnchorPoint: "Anchor-1" 693 1490 basechar 0
AnchorPoint: "Anchor-0" 698 0 basechar 0
LayerCount: 2
Fore
SplineSet
704 -21 m 0,0,1
 503 -21 503 -21 359.5 38 c 128,-1,2
 216 97 216 97 139 215 c 128,-1,3
 62 333 62 333 61 510 c 1,4,-1
 450 510 l 1,5,6
 454 446 454 446 484.5 401 c 128,-1,7
 515 356 515 356 571 332.5 c 128,-1,8
 627 309 627 309 703 309 c 0,9,10
 769 309 769 309 815.5 325.5 c 128,-1,11
 862 342 862 342 887 371 c 128,-1,12
 912 400 912 400 912 438 c 0,13,14
 912 473 912 473 888 499.5 c 128,-1,15
 864 526 864 526 812.5 546 c 128,-1,16
 761 566 761 566 678 583 c 2,17,-1
 528 613 l 2,18,19
 322 655 322 655 208 761 c 128,-1,20
 94 867 94 867 94 1038 c 0,21,22
 94 1179 94 1179 171.5 1286 c 128,-1,23
 249 1393 249 1393 385 1452.5 c 128,-1,24
 521 1512 521 1512 700 1512 c 0,25,26
 883 1512 883 1512 1016 1452.5 c 128,-1,27
 1149 1393 1149 1393 1221.5 1282.5 c 128,-1,28
 1294 1172 1294 1172 1297 1021 c 1,29,-1
 912 1021 l 1,30,31
 907 1097 907 1097 853.5 1140 c 128,-1,32
 800 1183 800 1183 704 1183 c 0,33,34
 644 1183 644 1183 601.5 1167 c 128,-1,35
 559 1151 559 1151 537 1124 c 128,-1,36
 515 1097 515 1097 515 1062 c 0,37,38
 515 1026 515 1026 536.5 1000 c 128,-1,39
 558 974 558 974 605 955.5 c 128,-1,40
 652 937 652 937 725 922 c 2,41,-1
 846 898 l 2,42,43
 972 873 972 873 1062.5 833 c 128,-1,44
 1153 793 1153 793 1211 737.5 c 128,-1,45
 1269 682 1269 682 1296 611 c 128,-1,46
 1323 540 1323 540 1323 453 c 0,47,48
 1323 302 1323 302 1249.5 196 c 128,-1,49
 1176 90 1176 90 1037.5 34.5 c 128,-1,50
 899 -21 899 -21 704 -21 c 0,0,1
EndSplineSet
Substitution2: "'ss06' Style Set 6 in Latin lookup 52 subtable" S.squared
Substitution2: "'ss05' Style Set 5 in Latin lookup 51 subtable" uni24C8
Position2: "'cpsp' Capital Spacing in Latin lookup 0 subtable" dx=0 dy=0 dh=0 dv=0
EndChar

StartChar: uni01A7
Encoding: 423 423 410
Width: 1384
GlyphClass: 2
Flags: W
AnchorPoint: "Anchor-3" 691 0 basechar 0
AnchorPoint: "Anchor-1" 691 1490 basechar 0
AnchorPoint: "Anchor-0" 687 0 basechar 0
LayerCount: 2
Fore
SplineSet
681 -21 m 0,0,1
 486 -21 486 -21 347 34.5 c 128,-1,2
 208 90 208 90 134.5 196 c 128,-1,3
 61 302 61 302 61 453 c 0,4,5
 61 540 61 540 88.5 611 c 128,-1,6
 116 682 116 682 173.5 737.5 c 128,-1,7
 231 793 231 793 322 833 c 128,-1,8
 413 873 413 873 538 898 c 2,9,-1
 659 922 l 2,10,11
 734 937 734 937 780.5 955.5 c 128,-1,12
 827 974 827 974 848.5 1000 c 128,-1,13
 870 1026 870 1026 870 1062 c 0,14,15
 870 1097 870 1097 847.5 1124 c 128,-1,16
 825 1151 825 1151 783 1167 c 128,-1,17
 741 1183 741 1183 680 1183 c 0,18,19
 585 1183 585 1183 532 1140 c 128,-1,20
 479 1097 479 1097 472 1021 c 1,21,-1
 87 1021 l 1,22,23
 90 1172 90 1172 163 1282.5 c 128,-1,24
 236 1393 236 1393 368.5 1452.5 c 128,-1,25
 501 1512 501 1512 684 1512 c 0,26,27
 863 1512 863 1512 1000 1452.5 c 128,-1,28
 1137 1393 1137 1393 1213.5 1286 c 128,-1,29
 1290 1179 1290 1179 1290 1038 c 0,30,31
 1290 867 1290 867 1176 761 c 128,-1,32
 1062 655 1062 655 856 613 c 2,33,-1
 707 583 l 2,34,35
 624 566 624 566 572 546 c 128,-1,36
 520 526 520 526 496.5 499.5 c 128,-1,37
 473 473 473 473 473 438 c 0,38,39
 473 400 473 400 498 371 c 128,-1,40
 523 342 523 342 570 325.5 c 128,-1,41
 617 309 617 309 682 309 c 0,42,43
 759 309 759 309 814 332.5 c 128,-1,44
 869 356 869 356 900 401 c 128,-1,45
 931 446 931 446 935 510 c 1,46,-1
 1323 510 l 1,47,48
 1322 333 1322 333 1245.5 215 c 128,-1,49
 1169 97 1169 97 1025.5 38 c 128,-1,50
 882 -21 882 -21 681 -21 c 0,0,1
EndSplineSet
Position2: "'cpsp' Capital Spacing in Latin lookup 0 subtable" dx=0 dy=0 dh=0 dv=0
EndChar

StartChar: uni1E9E
Encoding: 7838 7838 411
Width: 1511
Flags: W
LayerCount: 2
Fore
SplineSet
88 0 m 1,0,-1
 88 975 l 2,1,2
 88 1139 88 1139 160.5 1260 c 128,-1,3
 233 1381 233 1381 366 1446 c 128,-1,4
 499 1511 499 1511 683 1511 c 0,5,6
 800 1511 800 1511 927.5 1477 c 128,-1,7
 1055 1443 1055 1443 1178.5 1380 c 128,-1,8
 1302 1317 1302 1317 1406 1230 c 1,9,-1
 1074 873 l 1,10,11
 1185 852 1185 852 1269.5 789 c 128,-1,12
 1354 726 1354 726 1402 635.5 c 128,-1,13
 1450 545 1450 545 1450 441 c 0,14,15
 1450 305 1450 305 1379.5 201.5 c 128,-1,16
 1309 98 1309 98 1185 39 c 128,-1,17
 1061 -20 1061 -20 901 -20 c 0,18,19
 810 -20 810 -20 708.5 -1 c 128,-1,20
 607 18 607 18 538 47 c 1,21,-1
 644 332 l 1,22,23
 699 310 699 310 757.5 298.5 c 128,-1,24
 816 287 816 287 862 287 c 0,25,26
 961 287 961 287 1016.5 327 c 128,-1,27
 1072 367 1072 367 1072 441 c 0,28,29
 1072 491 1072 491 1054 530.5 c 128,-1,30
 1036 570 1036 570 1002 598 c 128,-1,31
 968 626 968 626 919.5 640 c 128,-1,32
 871 654 871 654 810 654 c 2,33,-1
 679 654 l 1,34,-1
 679 865 l 1,35,-1
 932 1125 l 1,36,37
 891 1158 891 1158 823.5 1179 c 128,-1,38
 756 1200 756 1200 683 1200 c 0,39,40
 618 1200 618 1200 575.5 1174.5 c 128,-1,41
 533 1149 533 1149 512.5 1097.5 c 128,-1,42
 492 1046 492 1046 492 967 c 2,43,-1
 492 0 l 1,44,-1
 88 0 l 1,0,-1
EndSplineSet
Position2: "'cpsp' Capital Spacing in Latin lookup 0 subtable" dx=0 dy=0 dh=0 dv=0
EndChar

StartChar: T
Encoding: 84 84 412
Width: 1375
GlyphClass: 2
Flags: W
AnchorPoint: "Anchor-3" 689 0 basechar 0
AnchorPoint: "Anchor-1" 688 1490 basechar 0
AnchorPoint: "Anchor-0" 687 0 basechar 0
LayerCount: 2
Fore
SplineSet
48 1151 m 1,0,-1
 48 1490 l 1,1,-1
 1327 1490 l 1,2,-1
 1327 1151 l 1,3,-1
 893 1151 l 1,4,-1
 893 0 l 1,5,-1
 483 0 l 1,6,-1
 483 1151 l 1,7,-1
 48 1151 l 1,0,-1
EndSplineSet
Substitution2: "'c2sc' Capitals to Small Capitals in Latin lookup 68 subtable" t.sc
Substitution2: "'ss06' Style Set 6 in Latin lookup 52 subtable" T.squared
Substitution2: "'ss05' Style Set 5 in Latin lookup 51 subtable" uni24C9
Substitution2: "'aalt' Access All Alternates in Latin lookup 0 subtable" t.sc
Position2: "'cpsp' Capital Spacing in Latin lookup 0 subtable" dx=0 dy=0 dh=0 dv=0
EndChar

StartChar: uni01AC
Encoding: 428 428 420
Width: 1588
GlyphClass: 2
Flags: W
AnchorPoint: "Anchor-1" 889 1490 basechar 0
LayerCount: 2
Fore
SplineSet
130 1021 m 1,0,-1
 130 1117 l 2,1,2
 130 1297 130 1297 232.5 1393.5 c 128,-1,3
 335 1490 335 1490 543 1490 c 2,4,-1
 667 1490 l 1,5,-1
 667 1158 l 1,6,-1
 611 1158 l 2,7,8
 559 1158 559 1158 532.5 1135 c 128,-1,9
 506 1112 506 1112 506 1068 c 2,10,-1
 506 1021 l 1,11,-1
 130 1021 l 1,0,-1
667 1152 m 1,12,-1
 667 1490 l 1,13,-1
 1540 1490 l 1,14,-1
 1540 1152 l 1,15,-1
 1093 1152 l 1,16,-1
 1093 0 l 1,17,-1
 683 0 l 1,18,-1
 683 1152 l 1,19,-1
 667 1152 l 1,12,-1
EndSplineSet
Position2: "'cpsp' Capital Spacing in Latin lookup 0 subtable" dx=0 dy=0 dh=0 dv=0
EndChar

StartChar: uni01AC.base
Encoding: 60940 60940 421
Width: 1400
GlyphClass: 2
Flags: W
AnchorPoint: "Anchor-1" 700 1490 basechar 0
LayerCount: 2
Fore
SplineSet
479 1152 m 1,0,-1
 479 1490 l 1,1,-1
 1352 1490 l 1,2,-1
 1352 1152 l 1,3,-1
 905 1152 l 1,4,-1
 905 0 l 1,5,-1
 495 0 l 1,6,-1
 495 1152 l 1,7,-1
 479 1152 l 1,0,-1
EndSplineSet
EndChar

StartChar: Trthook
Encoding: 430 430 422
Width: 1375
GlyphClass: 2
Flags: W
AnchorPoint: "Anchor-3" 689 0 basechar 0
AnchorPoint: "Anchor-1" 688 1490 basechar 0
AnchorPoint: "Anchor-0" 687 0 basechar 0
LayerCount: 2
Fore
SplineSet
897 -429 m 0,0,1
 686 -429 686 -429 584.5 -335.5 c 128,-1,2
 483 -242 483 -242 483 -55 c 2,3,-1
 483 213 l 1,4,-1
 893 213 l 1,5,-1
 893 -36 l 2,6,7
 893 -81 893 -81 914.5 -100.5 c 128,-1,8
 936 -120 936 -120 987 -120 c 0,9,10
 1024 -120 1024 -120 1056 -119 c 128,-1,11
 1088 -118 1088 -118 1112 -116 c 1,12,-1
 1112 -417 l 1,13,14
 1074 -423 1074 -423 1016.5 -426 c 128,-1,15
 959 -429 959 -429 897 -429 c 0,0,1
48 1151 m 1,16,-1
 48 1490 l 1,17,-1
 1327 1490 l 1,18,-1
 1327 1151 l 1,19,-1
 893 1151 l 1,20,-1
 893 0 l 1,21,-1
 483 0 l 1,22,-1
 483 1151 l 1,23,-1
 48 1151 l 1,16,-1
EndSplineSet
Position2: "'cpsp' Capital Spacing in Latin lookup 0 subtable" dx=0 dy=0 dh=0 dv=0
EndChar

StartChar: uni023E
Encoding: 574 574 423
Width: 1375
GlyphClass: 2
Flags: W
AnchorPoint: "Anchor-3" 689 0 basechar 0
AnchorPoint: "Anchor-1" 688 1490 basechar 0
AnchorPoint: "Anchor-0" 687 0 basechar 0
LayerCount: 2
Fore
SplineSet
208 -209 m 1,0,-1
 1007 1699 l 1,1,-1
 1177 1699 l 1,2,-1
 377 -209 l 1,3,-1
 208 -209 l 1,0,-1
48 1151 m 1,4,-1
 48 1490 l 1,5,-1
 1327 1490 l 1,6,-1
 1327 1151 l 1,7,-1
 893 1151 l 1,8,-1
 893 0 l 1,9,-1
 483 0 l 1,10,-1
 483 1151 l 1,11,-1
 48 1151 l 1,4,-1
EndSplineSet
Position2: "'cpsp' Capital Spacing in Latin lookup 0 subtable" dx=0 dy=0 dh=0 dv=0
EndChar

StartChar: U
Encoding: 85 85 425
Width: 1461
GlyphClass: 2
Flags: W
AnchorPoint: "Anchor-4" 1373 534 basechar 0
AnchorPoint: "Anchor-1" 731 1490 basechar 0
AnchorPoint: "Anchor-0" 731 0 basechar 0
LayerCount: 2
Fore
SplineSet
731 -21 m 0,0,1
 537 -21 537 -21 392.5 47 c 128,-1,2
 248 115 248 115 168 240 c 128,-1,3
 88 365 88 365 88 534 c 2,4,-1
 88 1490 l 1,5,-1
 492 1490 l 1,6,-1
 492 567 l 2,7,8
 492 498 492 498 523.5 444.5 c 128,-1,9
 555 391 555 391 608 360 c 128,-1,10
 661 329 661 329 731 329 c 0,11,12
 800 329 800 329 854 360 c 128,-1,13
 908 391 908 391 938.5 444 c 128,-1,14
 969 497 969 497 969 567 c 2,15,-1
 969 1490 l 1,16,-1
 1373 1490 l 1,17,-1
 1373 534 l 2,18,19
 1373 365 1373 365 1293 240 c 128,-1,20
 1213 115 1213 115 1068 47 c 128,-1,21
 923 -21 923 -21 731 -21 c 0,0,1
EndSplineSet
Substitution2: "'ss06' Style Set 6 in Latin lookup 52 subtable" U.squared
Substitution2: "'ss05' Style Set 5 in Latin lookup 51 subtable" uni24CA
Position2: "'cpsp' Capital Spacing in Latin lookup 0 subtable" dx=0 dy=0 dh=0 dv=0
EndChar

StartChar: Uhorn
Encoding: 431 431 426
Width: 1461
GlyphClass: 2
Flags: W
AnchorPoint: "Anchor-4" 1373 534 basechar 0
AnchorPoint: "Anchor-1" 731 1490 basechar 0
AnchorPoint: "Anchor-0" 731 0 basechar 0
LayerCount: 2
Fore
SplineSet
969 1254 m 1,0,-1
 969 1490 l 1,1,-1
 1154 1490 l 2,2,3
 1186 1490 1186 1490 1186 1522 c 2,4,-1
 1186 1714 l 1,5,-1
 1534 1714 l 1,6,-1
 1534 1480 l 2,7,8
 1534 1362 1534 1362 1459 1308 c 128,-1,9
 1384 1254 1384 1254 1276 1254 c 2,10,-1
 969 1254 l 1,0,-1
731 -21 m 0,11,12
 537 -21 537 -21 392.5 47 c 128,-1,13
 248 115 248 115 168 240 c 128,-1,14
 88 365 88 365 88 534 c 2,15,-1
 88 1490 l 1,16,-1
 492 1490 l 1,17,-1
 492 567 l 2,18,19
 492 498 492 498 523.5 444.5 c 128,-1,20
 555 391 555 391 608 360 c 128,-1,21
 661 329 661 329 731 329 c 0,22,23
 800 329 800 329 854 360 c 128,-1,24
 908 391 908 391 938.5 444 c 128,-1,25
 969 497 969 497 969 567 c 2,26,-1
 969 1490 l 1,27,-1
 1373 1490 l 1,28,-1
 1373 534 l 2,29,30
 1373 365 1373 365 1293 240 c 128,-1,31
 1213 115 1213 115 1068 47 c 128,-1,32
 923 -21 923 -21 731 -21 c 0,11,12
EndSplineSet
Position2: "'cpsp' Capital Spacing in Latin lookup 0 subtable" dx=0 dy=0 dh=0 dv=0
EndChar

StartChar: uni0244
Encoding: 580 580 456
Width: 1566
GlyphClass: 2
Flags: W
AnchorPoint: "Anchor-4" 1435 534 basechar 0
AnchorPoint: "Anchor-1" 793 1490 basechar 0
AnchorPoint: "Anchor-0" 793 0 basechar 0
LayerCount: 2
Fore
SplineSet
1586 834 m 1,0,-1
 1586 614 l 1,1,-1
 -20 614 l 1,2,-1
 -20 834 l 1,3,-1
 1586 834 l 1,0,-1
793 -21 m 0,4,5
 599 -21 599 -21 454.5 47 c 128,-1,6
 310 115 310 115 230 240 c 128,-1,7
 150 365 150 365 150 534 c 2,8,-1
 150 1490 l 1,9,-1
 554 1490 l 1,10,-1
 554 567 l 2,11,12
 554 498 554 498 585.5 444.5 c 128,-1,13
 617 391 617 391 670 360 c 128,-1,14
 723 329 723 329 793 329 c 0,15,16
 862 329 862 329 916 360 c 128,-1,17
 970 391 970 391 1000.5 444 c 128,-1,18
 1031 497 1031 497 1031 567 c 2,19,-1
 1031 1490 l 1,20,-1
 1435 1490 l 1,21,-1
 1435 534 l 2,22,23
 1435 365 1435 365 1355 240 c 128,-1,24
 1275 115 1275 115 1130 47 c 128,-1,25
 985 -21 985 -21 793 -21 c 0,4,5
EndSplineSet
Position2: "'cpsp' Capital Spacing in Latin lookup 0 subtable" dx=0 dy=0 dh=0 dv=0
EndChar

StartChar: V
Encoding: 86 86 457
Width: 1583
GlyphClass: 2
Flags: W
AnchorPoint: "Anchor-1" 792 1490 basechar 0
AnchorPoint: "Anchor-0" 792 0 basechar 0
LayerCount: 2
Fore
SplineSet
523 0 m 1,0,-1
 23 1490 l 1,1,-1
 481 1490 l 1,2,-1
 655 912 l 2,3,4
 710 725 710 725 759.5 533 c 128,-1,5
 809 341 809 341 857 147 c 1,6,-1
 750 147 l 1,7,8
 796 342 796 342 842.5 533.5 c 128,-1,9
 889 725 889 725 942 912 c 2,10,-1
 1108 1490 l 1,11,-1
 1560 1490 l 1,12,-1
 1076 0 l 1,13,-1
 523 0 l 1,0,-1
EndSplineSet
Substitution2: "'ss06' Style Set 6 in Latin lookup 52 subtable" V.squared
Substitution2: "'ss05' Style Set 5 in Latin lookup 51 subtable" uni24CB
Position2: "'cpsp' Capital Spacing in Latin lookup 0 subtable" dx=0 dy=0 dh=0 dv=0
EndChar

StartChar: W
Encoding: 87 87 460
Width: 2170
GlyphClass: 2
Flags: W
AnchorPoint: "Anchor-1" 1086 1490 basechar 0
AnchorPoint: "Anchor-0" 1086 0 basechar 0
LayerCount: 2
Fore
SplineSet
418 0 m 1,0,-1
 23 1490 l 1,1,-1
 475 1490 l 1,2,-1
 595 912 l 2,3,4
 618 804 618 804 637 684 c 128,-1,5
 656 564 656 564 674.5 445.5 c 128,-1,6
 693 327 693 327 711 217 c 1,7,-1
 623 217 l 1,8,9
 644 327 644 327 664 445.5 c 128,-1,10
 684 564 684 564 705 684 c 128,-1,11
 726 804 726 804 751 912 c 2,12,-1
 884 1490 l 1,13,-1
 1288 1490 l 1,14,-1
 1419 912 l 2,15,16
 1445 804 1445 804 1466 684 c 128,-1,17
 1487 564 1487 564 1507.5 445.5 c 128,-1,18
 1528 327 1528 327 1549 217 c 1,19,-1
 1460 217 l 1,20,21
 1479 327 1479 327 1497 445.5 c 128,-1,22
 1515 564 1515 564 1534.5 684 c 128,-1,23
 1554 804 1554 804 1576 912 c 2,24,-1
 1695 1490 l 1,25,-1
 2147 1490 l 1,26,-1
 1752 0 l 1,27,-1
 1296 0 l 1,28,-1
 1137 648 l 2,29,30
 1108 766 1108 766 1086 915.5 c 128,-1,31
 1064 1065 1064 1065 1028 1233 c 1,32,-1
 1142 1233 l 1,33,34
 1105 1065 1105 1065 1084.5 916 c 128,-1,35
 1064 767 1064 767 1035 648 c 2,36,-1
 875 0 l 1,37,-1
 418 0 l 1,0,-1
EndSplineSet
Substitution2: "'ss06' Style Set 6 in Latin lookup 52 subtable" W.squared
Substitution2: "'ss05' Style Set 5 in Latin lookup 51 subtable" uni24CC
Position2: "'cpsp' Capital Spacing in Latin lookup 0 subtable" dx=0 dy=0 dh=0 dv=0
EndChar

StartChar: X
Encoding: 88 88 467
Width: 1565
GlyphClass: 2
Flags: W
AnchorPoint: "Anchor-1" 782 1490 basechar 0
AnchorPoint: "Anchor-0" 782 -3 basechar 0
LayerCount: 2
Fore
SplineSet
23 0 m 1,0,-1
 666 911 l 1,1,-1
 666 602 l 1,2,-1
 84 1490 l 1,3,-1
 553 1490 l 1,4,-1
 671 1296 l 2,5,6
 709 1236 709 1236 738 1178.5 c 128,-1,7
 767 1121 767 1121 793.5 1067 c 128,-1,8
 820 1013 820 1013 847 963 c 1,9,-1
 725 963 l 1,10,11
 755 1014 755 1014 782 1067.5 c 128,-1,12
 809 1121 809 1121 838.5 1178.5 c 128,-1,13
 868 1236 868 1236 906 1296 c 2,14,-1
 1026 1490 l 1,15,-1
 1483 1490 l 1,16,-1
 920 627 l 1,17,-1
 920 915 l 1,18,-1
 1542 0 l 1,19,-1
 1059 0 l 1,20,-1
 897 256 l 2,21,22
 864 307 864 307 841 348 c 128,-1,23
 818 389 818 389 798 425.5 c 128,-1,24
 778 462 778 462 755 499 c 1,25,-1
 808 499 l 1,26,27
 785 461 785 461 765 424.5 c 128,-1,28
 745 388 745 388 721.5 347.5 c 128,-1,29
 698 307 698 307 664 256 c 2,30,-1
 493 0 l 1,31,-1
 23 0 l 1,0,-1
EndSplineSet
Substitution2: "'ss06' Style Set 6 in Latin lookup 52 subtable" X.squared
Substitution2: "'ss05' Style Set 5 in Latin lookup 51 subtable" uni24CD
Position2: "'cpsp' Capital Spacing in Latin lookup 0 subtable" dx=0 dy=0 dh=0 dv=0
EndChar

StartChar: Y
Encoding: 89 89 473
Width: 1542
GlyphClass: 2
Flags: W
AnchorPoint: "Anchor-4" 980 0 basechar 0
AnchorPoint: "Anchor-1" 772 1490 basechar 0
AnchorPoint: "Anchor-0" 777 0 basechar 0
LayerCount: 2
Fore
SplineSet
578 0 m 1,0,-1
 578 513 l 1,1,-1
 23 1490 l 1,2,-1
 499 1490 l 1,3,-1
 713 1057 l 2,4,5
 741 1000 741 1000 764.5 942 c 128,-1,6
 788 884 788 884 813 817 c 1,7,-1
 753 817 l 1,8,9
 775 884 775 884 797 942 c 128,-1,10
 819 1000 819 1000 845 1057 c 2,11,-1
 1046 1490 l 1,12,-1
 1519 1490 l 1,13,-1
 980 513 l 1,14,-1
 980 0 l 1,15,-1
 578 0 l 1,0,-1
EndSplineSet
Substitution2: "'c2sc' Capitals to Small Capitals in Latin lookup 68 subtable" y.sc
Substitution2: "'ss06' Style Set 6 in Latin lookup 52 subtable" Y.squared
Substitution2: "'ss05' Style Set 5 in Latin lookup 51 subtable" uni24CE
Substitution2: "'aalt' Access All Alternates in Latin lookup 0 subtable" y.sc
Position2: "'cpsp' Capital Spacing in Latin lookup 0 subtable" dx=0 dy=0 dh=0 dv=0
EndChar

StartChar: uni01B3
Encoding: 435 435 474
Width: 1714
Flags: W
LayerCount: 2
Fore
SplineSet
832 850 m 1,0,-1
 832 884 l 1,1,-1
 868 884 l 1,2,-1
 868 850 l 1,3,-1
 832 850 l 1,0,-1
44 1490 m 1,4,-1
 478 1490 l 1,5,-1
 850 870 l 1,6,-1
 1098 1281 l 2,7,8
 1172 1400 1172 1400 1272 1452.5 c 128,-1,9
 1372 1505 1372 1505 1484 1505.5 c 128,-1,10
 1596 1506 1596 1506 1700 1470 c 1,11,-1
 1618 1173 l 1,12,13
 1530 1196 1530 1196 1486.5 1173.5 c 128,-1,14
 1443 1151 1443 1151 1399 1080 c 2,15,-1
 1051 551 l 1,16,-1
 1051 0 l 1,17,-1
 651 0 l 1,18,-1
 651 551 l 1,19,-1
 44 1490 l 1,4,-1
EndSplineSet
Position2: "'cpsp' Capital Spacing in Latin lookup 0 subtable" dx=0 dy=0 dh=0 dv=0
EndChar

StartChar: uni024E
Encoding: 590 590 484
Width: 1550
GlyphClass: 2
Flags: W
AnchorPoint: "Anchor-4" 980 0 basechar 0
AnchorPoint: "Anchor-1" 772 1490 basechar 0
AnchorPoint: "Anchor-0" 777 0 basechar 0
LayerCount: 2
Fore
SplineSet
1530 1176 m 1,0,-1
 1530 986 l 1,1,-1
 18 986 l 1,2,-1
 18 1176 l 1,3,-1
 1530 1176 l 1,0,-1
578 0 m 1,4,-1
 578 513 l 1,5,-1
 23 1490 l 1,6,-1
 499 1490 l 1,7,-1
 713 1057 l 2,8,9
 741 1000 741 1000 764.5 942 c 128,-1,10
 788 884 788 884 813 817 c 1,11,-1
 753 817 l 1,12,13
 775 884 775 884 797 942 c 128,-1,14
 819 1000 819 1000 845 1057 c 2,15,-1
 1046 1490 l 1,16,-1
 1519 1490 l 1,17,-1
 980 513 l 1,18,-1
 980 0 l 1,19,-1
 578 0 l 1,4,-1
EndSplineSet
Position2: "'cpsp' Capital Spacing in Latin lookup 0 subtable" dx=0 dy=0 dh=0 dv=0
EndChar

StartChar: Z
Encoding: 90 90 497
Width: 1379
GlyphClass: 2
Flags: W
AnchorPoint: "Anchor-1" 692 1490 basechar 0
AnchorPoint: "Anchor-0" 690 0 basechar 0
LayerCount: 2
Fore
SplineSet
76 0 m 1,0,-1
 76 268 l 1,1,-1
 631 960 l 2,2,3
 698 1044 698 1044 774.5 1127 c 128,-1,4
 851 1210 851 1210 930 1294 c 1,5,-1
 966 1160 l 1,6,7
 861 1154 861 1154 755.5 1152.5 c 128,-1,8
 650 1151 650 1151 545 1151 c 2,9,-1
 84 1151 l 1,10,-1
 84 1490 l 1,11,-1
 1300 1490 l 1,12,-1
 1300 1222 l 1,13,-1
 755 536 l 2,14,15
 688 452 688 452 610.5 367 c 128,-1,16
 533 282 533 282 453 197 c 1,17,-1
 417 332 l 1,18,19
 527 338 527 338 637 338.5 c 128,-1,20
 747 339 747 339 856 339 c 2,21,-1
 1302 339 l 1,22,-1
 1302 0 l 1,23,-1
 76 0 l 1,0,-1
EndSplineSet
Substitution2: "'ss06' Style Set 6 in Latin lookup 52 subtable" Z.squared
Substitution2: "'ss05' Style Set 5 in Latin lookup 51 subtable" uni24CF
Position2: "'cpsp' Capital Spacing in Latin lookup 0 subtable" dx=0 dy=0 dh=0 dv=0
EndChar

StartChar: uni0224
Encoding: 548 548 504
Width: 1379
GlyphClass: 2
Flags: W
AnchorPoint: "Anchor-1" 692 1490 basechar 0
AnchorPoint: "Anchor-0" 690 0 basechar 0
LayerCount: 2
Fore
SplineSet
674 -417 m 1,0,-1
 674 -108 l 1,1,2
 697 -111 697 -111 729 -112 c 128,-1,3
 761 -113 761 -113 799 -113 c 0,4,5
 850 -113 850 -113 871 -94 c 128,-1,6
 892 -75 892 -75 892 -32 c 2,7,-1
 892 0 l 1,8,-1
 1302 0 l 1,9,-1
 1302 -55 l 2,10,11
 1302 -242 1302 -242 1197 -335.5 c 128,-1,12
 1092 -429 1092 -429 881 -429 c 0,13,14
 819 -429 819 -429 765.5 -426 c 128,-1,15
 712 -423 712 -423 674 -417 c 1,0,-1
76 0 m 1,16,-1
 76 268 l 1,17,-1
 631 960 l 2,18,19
 698 1044 698 1044 774.5 1127 c 128,-1,20
 851 1210 851 1210 930 1294 c 1,21,-1
 966 1160 l 1,22,23
 861 1154 861 1154 755.5 1152.5 c 128,-1,24
 650 1151 650 1151 545 1151 c 2,25,-1
 84 1151 l 1,26,-1
 84 1490 l 1,27,-1
 1300 1490 l 1,28,-1
 1300 1222 l 1,29,-1
 755 536 l 2,30,31
 688 452 688 452 610.5 367 c 128,-1,32
 533 282 533 282 453 197 c 1,33,-1
 417 332 l 1,34,35
 527 338 527 338 637 338.5 c 128,-1,36
 747 339 747 339 856 339 c 2,37,-1
 1302 339 l 1,38,-1
 1302 0 l 1,39,-1
 76 0 l 1,16,-1
EndSplineSet
Position2: "'cpsp' Capital Spacing in Latin lookup 0 subtable" dx=0 dy=0 dh=0 dv=0
EndChar

StartChar: uni2C7F
Encoding: 11391 11391 507
Width: 1395
Flags: W
LayerCount: 2
Fore
SplineSet
1167 -427 m 0,0,1
 1061 -427 1061 -427 984 -396 c 128,-1,2
 907 -365 907 -365 846 -316.5 c 128,-1,3
 785 -268 785 -268 728 -213.5 c 128,-1,4
 671 -159 671 -159 607 -110 c 128,-1,5
 543 -61 543 -61 460 -30.5 c 128,-1,6
 377 0 377 0 262 0 c 2,7,-1
 77 0 l 1,8,-1
 77 259 l 1,9,-1
 780 1155 l 1,10,-1
 80 1155 l 1,11,-1
 80 1490 l 1,12,-1
 1294 1490 l 1,13,-1
 1294 1234 l 1,14,-1
 575 301 l 1,15,16
 662 280 662 280 726 243 c 128,-1,17
 790 206 790 206 839 160 c 128,-1,18
 888 114 888 114 929.5 67.5 c 128,-1,19
 971 21 971 21 1012.5 -18 c 128,-1,20
 1054 -57 1054 -57 1101 -80.5 c 128,-1,21
 1148 -104 1148 -104 1210 -104 c 0,22,23
 1237 -104 1237 -104 1251 -103 c 128,-1,24
 1265 -102 1265 -102 1279.5 -99.5 c 128,-1,25
 1294 -97 1294 -97 1319 -92 c 1,26,-1
 1319 -410 l 1,27,28
 1289 -417 1289 -417 1247 -422 c 128,-1,29
 1205 -427 1205 -427 1167 -427 c 0,0,1
EndSplineSet
Position2: "'cpsp' Capital Spacing in Latin lookup 0 subtable" dx=0 dy=0 dh=0 dv=0
EndChar

StartChar: a
Encoding: 97 97 508
Width: 1208
GlyphClass: 2
Flags: W
AnchorPoint: "Anchor-4" 1114 0 basechar 0
AnchorPoint: "Anchor-1" 604 1087 basechar 0
AnchorPoint: "Anchor-0" 597 0 basechar 0
LayerCount: 2
Fore
SplineSet
413 -18 m 0,0,1
 306 -18 306 -18 224.5 16.5 c 128,-1,2
 143 51 143 51 96.5 122 c 128,-1,3
 50 193 50 193 50 300 c 0,4,5
 50 391 50 391 81.5 454.5 c 128,-1,6
 113 518 113 518 168.5 558.5 c 128,-1,7
 224 599 224 599 298 620.5 c 128,-1,8
 372 642 372 642 459 648 c 0,9,10
 552 654 552 654 608.5 664 c 128,-1,11
 665 674 665 674 690 693 c 128,-1,12
 715 712 715 712 715 743 c 2,13,-1
 715 747 l 2,14,15
 715 773 715 773 700 791.5 c 128,-1,16
 685 810 685 810 657.5 819.5 c 128,-1,17
 630 829 630 829 592 829 c 256,18,19
 554 829 554 829 524 818.5 c 128,-1,20
 494 808 494 808 476 786 c 128,-1,21
 458 764 458 764 452 731 c 1,22,-1
 88 750 l 1,23,24
 101 856 101 856 162 936.5 c 128,-1,25
 223 1017 223 1017 333.5 1061.5 c 128,-1,26
 444 1106 444 1106 604 1106 c 0,27,28
 724 1106 724 1106 819 1080 c 128,-1,29
 914 1054 914 1054 980 1005 c 128,-1,30
 1046 956 1046 956 1080 888 c 128,-1,31
 1114 820 1114 820 1114 737 c 2,32,-1
 1114 0 l 1,33,-1
 732 0 l 1,34,-1
 732 153 l 1,35,-1
 726 153 l 1,36,37
 691 91 691 91 645 53.5 c 128,-1,38
 599 16 599 16 541 -1 c 128,-1,39
 483 -18 483 -18 413 -18 c 0,0,1
542 234 m 0,40,41
 587 234 587 234 627.5 251.5 c 128,-1,42
 668 269 668 269 693.5 303 c 128,-1,43
 719 337 719 337 719 385 c 2,44,-1
 719 474 l 1,45,46
 704 468 704 468 686.5 462.5 c 128,-1,47
 669 457 669 457 649.5 452.5 c 128,-1,48
 630 448 630 448 607.5 443.5 c 128,-1,49
 585 439 585 439 560 435 c 0,50,51
 516 428 516 428 486.5 412.5 c 128,-1,52
 457 397 457 397 442 375 c 128,-1,53
 427 353 427 353 427 325 c 0,54,55
 427 295 427 295 441.5 275 c 128,-1,56
 456 255 456 255 482 244.5 c 128,-1,57
 508 234 508 234 542 234 c 0,40,41
EndSplineSet
Substitution2: "'smcp' Lowercase to Small Capitals in Latin lookup 69 subtable" a.sc
Substitution2: "'c2sc' Capitals to Small Capitals in Latin lookup 68 subtable" a.sc
Substitution2: "'cv11' Character Variants 11 in Latin lookup 65 subtable" a.1
Substitution2: "'salt' Stylistic Alternatives in Latin lookup 46 subtable" a.1
Substitution2: "Single Substitution lookup 44 subtable" ordfeminine
Substitution2: "'sups' Superscript in Latin lookup 39 subtable" a.sups
Substitution2: "'subs' Subscript in Latin lookup 38 subtable" a.subs
Substitution2: "'sinf' Scientific Inferiors in Latin lookup 18 subtable" a.subs
AlternateSubs2: "'aalt' Access All Alternates in Latin lookup 1 subtable" ordfeminine a.sups a.subs a.sc
EndChar

StartChar: aturn
Encoding: 592 592 540
Width: 1208
GlyphClass: 2
Flags: W
AnchorPoint: "Anchor-4" 94 1087 basechar 0
AnchorPoint: "Anchor-1" 616 1087 basechar 0
AnchorPoint: "Anchor-0" 602 0 basechar 0
LayerCount: 2
Fore
SplineSet
797 1106 m 0,0,1
 903 1106 903 1106 985 1071.5 c 128,-1,2
 1067 1037 1067 1037 1112.5 966 c 128,-1,3
 1158 895 1158 895 1158 787 c 0,4,5
 1158 698 1158 698 1127.5 634.5 c 128,-1,6
 1097 571 1097 571 1041 530.5 c 128,-1,7
 985 490 985 490 911 468 c 128,-1,8
 837 446 837 446 751 441 c 0,9,10
 657 434 657 434 600.5 424 c 128,-1,11
 544 414 544 414 518.5 395 c 128,-1,12
 493 376 493 376 493 346 c 2,13,-1
 493 342 l 2,14,15
 493 316 493 316 508.5 297.5 c 128,-1,16
 524 279 524 279 552 268.5 c 128,-1,17
 580 258 580 258 616 258 c 0,18,19
 656 258 656 258 685 269 c 128,-1,20
 714 280 714 280 733 302 c 128,-1,21
 752 324 752 324 756 356 c 1,22,-1
 1120 339 l 1,23,24
 1109 232 1109 232 1047.5 151.5 c 128,-1,25
 986 71 986 71 875.5 26 c 128,-1,26
 765 -19 765 -19 606 -19 c 0,27,28
 485 -19 485 -19 390 7.5 c 128,-1,29
 295 34 295 34 229 83 c 128,-1,30
 163 132 163 132 128.5 200 c 128,-1,31
 94 268 94 268 94 352 c 2,32,-1
 94 1087 l 1,33,-1
 478 1087 l 1,34,-1
 478 934 l 1,35,-1
 484 934 l 1,36,37
 518 997 518 997 564.5 1035 c 128,-1,38
 611 1073 611 1073 669 1089.5 c 128,-1,39
 727 1106 727 1106 797 1106 c 0,0,1
666 855 m 0,40,41
 623 855 623 855 582 837 c 128,-1,42
 541 819 541 819 515 785 c 128,-1,43
 489 751 489 751 489 702 c 2,44,-1
 489 615 l 1,45,46
 505 620 505 620 522 625.5 c 128,-1,47
 539 631 539 631 559 636 c 128,-1,48
 579 641 579 641 601 645 c 128,-1,49
 623 649 623 649 650 654 c 0,50,51
 693 661 693 661 723 676.5 c 128,-1,52
 753 692 753 692 768 714 c 128,-1,53
 783 736 783 736 783 764 c 0,54,55
 783 793 783 793 767.5 813.5 c 128,-1,56
 752 834 752 834 726.5 844.5 c 128,-1,57
 701 855 701 855 666 855 c 0,40,41
EndSplineSet
EndChar

StartChar: ae
Encoding: 230 230 544
Width: 1843
GlyphClass: 2
Flags: W
AnchorPoint: "Anchor-1" 904 1087 basechar 0
LayerCount: 2
Fore
SplineSet
446 -18 m 0,0,1
 323 -18 323 -18 234.5 16.5 c 128,-1,2
 146 51 146 51 98 122 c 128,-1,3
 50 193 50 193 50 300 c 0,4,5
 50 400 50 400 93 470 c 128,-1,6
 136 540 136 540 213 584.5 c 128,-1,7
 290 629 290 629 394.5 650.5 c 128,-1,8
 499 672 499 672 625 672 c 2,9,-1
 1545 672 l 1,10,-1
 1423 629 l 1,11,12
 1423 691 1423 691 1402 734 c 128,-1,13
 1381 777 1381 777 1342 799.5 c 128,-1,14
 1303 822 1303 822 1246 822 c 0,15,16
 1190 822 1190 822 1150.5 799.5 c 128,-1,17
 1111 777 1111 777 1091 734 c 128,-1,18
 1071 691 1071 691 1071 629 c 2,19,-1
 1071 460 l 2,20,21
 1071 393 1071 393 1093.5 348 c 128,-1,22
 1116 303 1116 303 1159 280.5 c 128,-1,23
 1202 258 1202 258 1260 258 c 0,24,25
 1302 258 1302 258 1336 269.5 c 128,-1,26
 1370 281 1370 281 1394 302 c 128,-1,27
 1418 323 1418 323 1430 353 c 1,28,-1
 1789 353 l 1,29,30
 1770 241 1770 241 1697.5 157 c 128,-1,31
 1625 73 1625 73 1510 25.5 c 128,-1,32
 1395 -22 1395 -22 1248 -22 c 0,33,34
 1154 -22 1154 -22 1072 2.5 c 128,-1,35
 990 27 990 27 926.5 71.5 c 128,-1,36
 863 116 863 116 822 176 c 1,37,-1
 821 914 l 1,38,39
 870 975 870 975 931.5 1018 c 128,-1,40
 993 1061 993 1061 1069.5 1083.5 c 128,-1,41
 1146 1106 1146 1106 1239 1106 c 0,42,43
 1364 1106 1364 1106 1465.5 1067 c 128,-1,44
 1567 1028 1567 1028 1640.5 954 c 128,-1,45
 1714 880 1714 880 1753.5 778 c 128,-1,46
 1793 676 1793 676 1793 549 c 2,47,-1
 1793 450 l 1,48,-1
 601 450 l 2,49,50
 541 450 541 450 502.5 432.5 c 128,-1,51
 464 415 464 415 445.5 387.5 c 128,-1,52
 427 360 427 360 427 329 c 0,53,54
 427 282 427 282 459.5 258 c 128,-1,55
 492 234 492 234 542 234 c 0,56,57
 587 234 587 234 627 251.5 c 128,-1,58
 667 269 667 269 692.5 303 c 128,-1,59
 718 337 718 337 718 385 c 2,60,-1
 718 747 l 2,61,62
 718 772 718 772 702 791 c 128,-1,63
 686 810 686 810 658 819.5 c 128,-1,64
 630 829 630 829 592 829 c 256,65,66
 554 829 554 829 524 818.5 c 128,-1,67
 494 808 494 808 476 786 c 128,-1,68
 458 764 458 764 452 731 c 1,69,-1
 88 750 l 1,70,71
 100 846 100 846 159.5 927 c 128,-1,72
 219 1008 219 1008 327.5 1057 c 128,-1,73
 436 1106 436 1106 592 1106 c 0,74,75
 736 1106 736 1106 827.5 1059 c 128,-1,76
 919 1012 919 1012 963.5 929 c 128,-1,77
 1008 846 1008 846 1008 737 c 2,78,-1
 1007 242 l 1,79,-1
 910 242 l 1,80,81
 880 165 880 165 829.5 114.5 c 128,-1,82
 779 64 779 64 716 35 c 128,-1,83
 653 6 653 6 583.5 -6 c 128,-1,84
 514 -18 514 -18 446 -18 c 0,0,1
EndSplineSet
EndChar

StartChar: a.1
Encoding: 57388 57388 548
Width: 1298
GlyphClass: 2
Flags: W
AnchorPoint: "Anchor-4" 1204 0 basechar 0
AnchorPoint: "Anchor-1" 647 1087 basechar 0
AnchorPoint: "Anchor-0" 652 0 basechar 0
LayerCount: 2
Fore
SplineSet
502 -19 m 0,0,1
 374 -19 374 -19 273 47 c 128,-1,2
 172 113 172 113 113 238.5 c 128,-1,3
 54 364 54 364 54 544 c 0,4,5
 54 727 54 727 115 852 c 128,-1,6
 176 977 176 977 277 1041.5 c 128,-1,7
 378 1106 378 1106 499 1106 c 0,8,9
 576 1106 576 1106 634 1083 c 128,-1,10
 692 1060 692 1060 734.5 1019 c 128,-1,11
 777 978 777 978 804 924 c 1,12,-1
 810 924 l 1,13,-1
 810 1087 l 1,14,-1
 1204 1087 l 1,15,-1
 1204 0 l 1,16,-1
 810 0 l 1,17,-1
 810 171 l 1,18,-1
 804 171 l 1,19,20
 781 113 781 113 738.5 71 c 128,-1,21
 696 29 696 29 636.5 5 c 128,-1,22
 577 -19 577 -19 502 -19 c 0,0,1
636 292 m 256,23,24
 691 292 691 292 732 323.5 c 128,-1,25
 773 355 773 355 795.5 411.5 c 128,-1,26
 818 468 818 468 818 544 c 0,27,28
 818 622 818 622 795.5 678.5 c 128,-1,29
 773 735 773 735 732.5 766 c 128,-1,30
 692 797 692 797 636 797 c 0,31,32
 582 797 582 797 543 766 c 128,-1,33
 504 735 504 735 484 679 c 128,-1,34
 464 623 464 623 464 544 c 0,35,36
 464 467 464 467 484 410.5 c 128,-1,37
 504 354 504 354 542.5 323 c 128,-1,38
 581 292 581 292 636 292 c 256,23,24
EndSplineSet
EndChar

StartChar: b
Encoding: 98 98 579
Width: 1301
GlyphClass: 2
Flags: W
AnchorPoint: "Anchor-1" 829 1304 basechar 0
AnchorPoint: "Anchor-0" 654 0 basechar 0
LayerCount: 2
Fore
SplineSet
800 -19 m 0,0,1
 726 -19 726 -19 666 4.5 c 128,-1,2
 606 28 606 28 563.5 71.5 c 128,-1,3
 521 115 521 115 497 175 c 1,4,-1
 491 175 l 1,5,-1
 491 0 l 1,6,-1
 94 0 l 1,7,-1
 94 1490 l 1,8,-1
 495 1490 l 1,9,-1
 495 921 l 1,10,-1
 499 921 l 1,11,12
 527 977 527 977 569 1019 c 128,-1,13
 611 1061 611 1061 669.5 1083.5 c 128,-1,14
 728 1106 728 1106 803 1106 c 0,15,16
 925 1106 925 1106 1026 1041.5 c 128,-1,17
 1127 977 1127 977 1187 852 c 128,-1,18
 1247 727 1247 727 1247 544 c 0,19,20
 1247 364 1247 364 1189 238.5 c 128,-1,21
 1131 113 1131 113 1030 47 c 128,-1,22
 929 -19 929 -19 800 -19 c 0,0,1
666 292 m 0,23,24
 722 292 722 292 760 323 c 128,-1,25
 798 354 798 354 818.5 410.5 c 128,-1,26
 839 467 839 467 839 544 c 0,27,28
 839 622 839 622 818.5 678.5 c 128,-1,29
 798 735 798 735 759.5 766 c 128,-1,30
 721 797 721 797 666 797 c 0,31,32
 612 797 612 797 570.5 766 c 128,-1,33
 529 735 529 735 506 678.5 c 128,-1,34
 483 622 483 622 483 544 c 0,35,36
 483 468 483 468 506 411.5 c 128,-1,37
 529 355 529 355 570.5 323.5 c 128,-1,38
 612 292 612 292 666 292 c 0,23,24
EndSplineSet
Substitution2: "'sups' Superscript in Latin lookup 39 subtable" b.sups
Substitution2: "'subs' Subscript in Latin lookup 38 subtable" b.subs
Substitution2: "'sinf' Scientific Inferiors in Latin lookup 18 subtable" b.subs
AlternateSubs2: "'aalt' Access All Alternates in Latin lookup 1 subtable" b.sups b.subs
EndChar

StartChar: uni0183
Encoding: 387 387 581
Width: 1301
GlyphClass: 2
Flags: W
AnchorPoint: "Anchor-1" 829 1304 basechar 0
AnchorPoint: "Anchor-0" 654 0 basechar 0
LayerCount: 2
Fore
SplineSet
297 1193 m 1,0,-1
 94 1490 l 1,1,-1
 991 1490 l 1,2,-1
 991 1193 l 1,3,-1
 297 1193 l 1,0,-1
800 -19 m 0,4,5
 726 -19 726 -19 666 4.5 c 128,-1,6
 606 28 606 28 563.5 71.5 c 128,-1,7
 521 115 521 115 497 175 c 1,8,-1
 491 175 l 1,9,-1
 491 0 l 1,10,-1
 94 0 l 1,11,-1
 94 1490 l 1,12,-1
 495 1490 l 1,13,-1
 495 921 l 1,14,-1
 499 921 l 1,15,16
 527 977 527 977 569 1019 c 128,-1,17
 611 1061 611 1061 669.5 1083.5 c 128,-1,18
 728 1106 728 1106 803 1106 c 0,19,20
 925 1106 925 1106 1026 1041.5 c 128,-1,21
 1127 977 1127 977 1187 852 c 128,-1,22
 1247 727 1247 727 1247 544 c 0,23,24
 1247 364 1247 364 1189 238.5 c 128,-1,25
 1131 113 1131 113 1030 47 c 128,-1,26
 929 -19 929 -19 800 -19 c 0,4,5
666 292 m 0,27,28
 722 292 722 292 760 323 c 128,-1,29
 798 354 798 354 818.5 410.5 c 128,-1,30
 839 467 839 467 839 544 c 0,31,32
 839 622 839 622 818.5 678.5 c 128,-1,33
 798 735 798 735 759.5 766 c 128,-1,34
 721 797 721 797 666 797 c 0,35,36
 612 797 612 797 570.5 766 c 128,-1,37
 529 735 529 735 506 678.5 c 128,-1,38
 483 622 483 622 483 544 c 0,39,40
 483 468 483 468 506 411.5 c 128,-1,41
 529 355 529 355 570.5 323.5 c 128,-1,42
 612 292 612 292 666 292 c 0,27,28
EndSplineSet
EndChar

StartChar: uni0253
Encoding: 595 595 582
Width: 1301
GlyphClass: 2
Flags: W
AnchorPoint: "Anchor-1" 478 1490 basechar 0
AnchorPoint: "Anchor-0" 629 0 basechar 0
LayerCount: 2
Fore
SplineSet
799 -19 m 0,0,1
 726 -19 726 -19 666.5 4.5 c 128,-1,2
 607 28 607 28 564.5 70.5 c 128,-1,3
 522 113 522 113 498 170 c 1,4,-1
 491 170 l 1,5,-1
 491 0 l 1,6,-1
 94 0 l 1,7,-1
 94 1087 l 1,8,-1
 495 1087 l 1,9,-1
 495 900 l 1,10,-1
 501 905 l 1,11,12
 528 957 528 957 569.5 997.5 c 128,-1,13
 611 1038 611 1038 669.5 1060 c 128,-1,14
 728 1082 728 1082 803 1082 c 0,15,16
 926 1082 926 1082 1026.5 1019.5 c 128,-1,17
 1127 957 1127 957 1187 835.5 c 128,-1,18
 1247 714 1247 714 1247 537 c 0,19,20
 1247 361 1247 361 1189 236.5 c 128,-1,21
 1131 112 1131 112 1030 46.5 c 128,-1,22
 929 -19 929 -19 799 -19 c 0,0,1
666 293 m 0,23,24
 722 293 722 293 760 322 c 128,-1,25
 798 351 798 351 818 406 c 128,-1,26
 838 461 838 461 838 537 c 0,27,28
 838 612 838 612 818 667 c 128,-1,29
 798 722 798 722 760 751.5 c 128,-1,30
 722 781 722 781 666 781 c 0,31,32
 612 781 612 781 570.5 751.5 c 128,-1,33
 529 722 529 722 506 667 c 128,-1,34
 483 612 483 612 483 537 c 0,35,36
 483 463 483 463 506 407.5 c 128,-1,37
 529 352 529 352 570.5 322.5 c 128,-1,38
 612 293 612 293 666 293 c 0,23,24
94 836 m 1,39,-1
 94 1124 l 2,40,41
 94 1311 94 1311 197 1404 c 128,-1,42
 300 1497 300 1497 510 1497 c 0,43,44
 572 1497 572 1497 625.5 1494.5 c 128,-1,45
 679 1492 679 1492 717 1486 c 1,46,-1
 717 1192 l 1,47,48
 694 1194 694 1194 662 1195 c 128,-1,49
 630 1196 630 1196 592 1196 c 0,50,51
 541 1196 541 1196 518 1176.5 c 128,-1,52
 495 1157 495 1157 495 1113 c 2,53,-1
 495 836 l 1,54,-1
 94 836 l 1,39,-1
EndSplineSet
EndChar

StartChar: thorn
Encoding: 254 254 586
Width: 1302
Flags: W
LayerCount: 2
Fore
SplineSet
801 -19 m 0,0,1
 727 -19 727 -19 668 4.5 c 128,-1,2
 609 28 609 28 567 70.5 c 128,-1,3
 525 113 525 113 501 171 c 1,4,-1
 496 171 l 1,5,-1
 496 -418 l 1,6,-1
 94 -418 l 1,7,-1
 94 1490 l 1,8,-1
 496 1490 l 1,9,-1
 496 924 l 1,10,-1
 502 924 l 1,11,12
 529 978 529 978 570.5 1019.5 c 128,-1,13
 612 1061 612 1061 670.5 1083.5 c 128,-1,14
 729 1106 729 1106 804 1106 c 0,15,16
 926 1106 926 1106 1027 1041.5 c 128,-1,17
 1128 977 1128 977 1188 852 c 128,-1,18
 1248 727 1248 727 1248 544 c 0,19,20
 1248 364 1248 364 1190 238.5 c 128,-1,21
 1132 113 1132 113 1031 47 c 128,-1,22
 930 -19 930 -19 801 -19 c 0,0,1
667 292 m 0,23,24
 723 292 723 292 761 323 c 128,-1,25
 799 354 799 354 819.5 410.5 c 128,-1,26
 840 467 840 467 840 544 c 0,27,28
 840 622 840 622 819.5 678.5 c 128,-1,29
 799 735 799 735 760.5 766 c 128,-1,30
 722 797 722 797 667 797 c 0,31,32
 613 797 613 797 571.5 766 c 128,-1,33
 530 735 530 735 507 678.5 c 128,-1,34
 484 622 484 622 484 544 c 0,35,36
 484 468 484 468 507 411.5 c 128,-1,37
 530 355 530 355 571.5 323.5 c 128,-1,38
 613 292 613 292 667 292 c 0,23,24
EndSplineSet
EndChar

StartChar: c
Encoding: 99 99 587
Width: 1215
GlyphClass: 2
Flags: W
AnchorPoint: "Anchor-3" 626 0 basechar 0
AnchorPoint: "Anchor-1" 626 1087 basechar 0
AnchorPoint: "Anchor-0" 626 0 basechar 0
LayerCount: 2
Fore
SplineSet
626 -22 m 0,0,1
 450 -22 450 -22 322 49 c 128,-1,2
 194 120 194 120 124 247 c 128,-1,3
 54 374 54 374 54 542 c 0,4,5
 54 711 54 711 124 838 c 128,-1,6
 194 965 194 965 322 1035.5 c 128,-1,7
 450 1106 450 1106 626 1106 c 0,8,9
 741 1106 741 1106 837 1074.5 c 128,-1,10
 933 1043 933 1043 1003.5 984.5 c 128,-1,11
 1074 926 1074 926 1115 844.5 c 128,-1,12
 1156 763 1156 763 1163 663 c 1,13,-1
 787 635 l 1,14,15
 783 675 783 675 770.5 705.5 c 128,-1,16
 758 736 758 736 738 757.5 c 128,-1,17
 718 779 718 779 691.5 790.5 c 128,-1,18
 665 802 665 802 633 802 c 0,19,20
 579 802 579 802 541 772.5 c 128,-1,21
 503 743 503 743 482.5 685.5 c 128,-1,22
 462 628 462 628 462 543 c 0,23,24
 462 460 462 460 482.5 402 c 128,-1,25
 503 344 503 344 541.5 314 c 128,-1,26
 580 284 580 284 633 284 c 0,27,28
 665 284 665 284 691.5 295.5 c 128,-1,29
 718 307 718 307 738 328.5 c 128,-1,30
 758 350 758 350 770.5 382 c 128,-1,31
 783 414 783 414 787 455 c 1,32,-1
 1163 427 l 1,33,34
 1158 326 1158 326 1118 243.5 c 128,-1,35
 1078 161 1078 161 1007.5 102 c 128,-1,36
 937 43 937 43 840 10.5 c 128,-1,37
 743 -22 743 -22 626 -22 c 0,0,1
EndSplineSet
Substitution2: "'sups' Superscript in Latin lookup 39 subtable" c.sups
Substitution2: "'subs' Subscript in Latin lookup 38 subtable" c.subs
Substitution2: "'sinf' Scientific Inferiors in Latin lookup 18 subtable" c.subs
AlternateSubs2: "'aalt' Access All Alternates in Latin lookup 1 subtable" c.sups c.subs
EndChar

StartChar: uni023C
Encoding: 572 572 588
Width: 1215
GlyphClass: 2
Flags: W
AnchorPoint: "Anchor-3" 626 0 basechar 0
AnchorPoint: "Anchor-1" 626 1087 basechar 0
AnchorPoint: "Anchor-0" 626 0 basechar 0
LayerCount: 2
Fore
SplineSet
282 -418 m 1,0,-1
 808 1490 l 1,1,-1
 978 1490 l 1,2,-1
 451 -418 l 1,3,-1
 282 -418 l 1,0,-1
626 -22 m 0,4,5
 450 -22 450 -22 322 49 c 128,-1,6
 194 120 194 120 124 247 c 128,-1,7
 54 374 54 374 54 542 c 0,8,9
 54 711 54 711 124 838 c 128,-1,10
 194 965 194 965 322 1035.5 c 128,-1,11
 450 1106 450 1106 626 1106 c 0,12,13
 741 1106 741 1106 837 1074.5 c 128,-1,14
 933 1043 933 1043 1003.5 984.5 c 128,-1,15
 1074 926 1074 926 1115 844.5 c 128,-1,16
 1156 763 1156 763 1163 663 c 1,17,-1
 787 635 l 1,18,19
 783 675 783 675 770.5 705.5 c 128,-1,20
 758 736 758 736 738 757.5 c 128,-1,21
 718 779 718 779 691.5 790.5 c 128,-1,22
 665 802 665 802 633 802 c 0,23,24
 579 802 579 802 541 772.5 c 128,-1,25
 503 743 503 743 482.5 685.5 c 128,-1,26
 462 628 462 628 462 543 c 0,27,28
 462 460 462 460 482.5 402 c 128,-1,29
 503 344 503 344 541.5 314 c 128,-1,30
 580 284 580 284 633 284 c 0,31,32
 665 284 665 284 691.5 295.5 c 128,-1,33
 718 307 718 307 738 328.5 c 128,-1,34
 758 350 758 350 770.5 382 c 128,-1,35
 783 414 783 414 787 455 c 1,36,-1
 1163 427 l 1,37,38
 1158 326 1158 326 1118 243.5 c 128,-1,39
 1078 161 1078 161 1007.5 102 c 128,-1,40
 937 43 937 43 840 10.5 c 128,-1,41
 743 -22 743 -22 626 -22 c 0,4,5
EndSplineSet
Ligature2: "'ccmp' Glyph Composition/Decomposition in Latin lookup 6 subtable" c uni0338
EndChar

StartChar: uni0188
Encoding: 392 392 589
Width: 1377
GlyphClass: 2
Flags: W
AnchorPoint: "Anchor-3" 626 0 basechar 0
AnchorPoint: "Anchor-1" 626 1087 basechar 0
AnchorPoint: "Anchor-0" 626 0 basechar 0
LayerCount: 2
Fore
SplineSet
831 663 m 1,0,-1
 811 937 l 2,1,2
 798 1116 798 1116 876.5 1201.5 c 128,-1,3
 955 1287 955 1287 1166 1287 c 0,4,5
 1216 1287 1216 1287 1262.5 1286 c 128,-1,6
 1309 1285 1309 1285 1341 1282 c 1,7,-1
 1337 981 l 1,8,9
 1317 984 1317 984 1288 985 c 128,-1,10
 1259 986 1259 986 1225 986 c 0,11,12
 1175 986 1175 986 1156 966.5 c 128,-1,13
 1137 947 1137 947 1141 902 c 2,14,-1
 1163 663 l 1,15,-1
 831 663 l 1,0,-1
626 -22 m 0,16,17
 450 -22 450 -22 322 49 c 128,-1,18
 194 120 194 120 124 247 c 128,-1,19
 54 374 54 374 54 542 c 0,20,21
 54 711 54 711 124 838 c 128,-1,22
 194 965 194 965 322 1035.5 c 128,-1,23
 450 1106 450 1106 626 1106 c 0,24,25
 741 1106 741 1106 837 1074.5 c 128,-1,26
 933 1043 933 1043 1003.5 984.5 c 128,-1,27
 1074 926 1074 926 1115 844.5 c 128,-1,28
 1156 763 1156 763 1163 663 c 1,29,-1
 787 635 l 1,30,31
 783 675 783 675 770.5 705.5 c 128,-1,32
 758 736 758 736 738 757.5 c 128,-1,33
 718 779 718 779 691.5 790.5 c 128,-1,34
 665 802 665 802 633 802 c 0,35,36
 579 802 579 802 541 772.5 c 128,-1,37
 503 743 503 743 482.5 685.5 c 128,-1,38
 462 628 462 628 462 543 c 0,39,40
 462 460 462 460 482.5 402 c 128,-1,41
 503 344 503 344 541.5 314 c 128,-1,42
 580 284 580 284 633 284 c 0,43,44
 665 284 665 284 691.5 295.5 c 128,-1,45
 718 307 718 307 738 328.5 c 128,-1,46
 758 350 758 350 770.5 382 c 128,-1,47
 783 414 783 414 787 455 c 1,48,-1
 1163 427 l 1,49,50
 1158 326 1158 326 1118 243.5 c 128,-1,51
 1078 161 1078 161 1007.5 102 c 128,-1,52
 937 43 937 43 840 10.5 c 128,-1,53
 743 -22 743 -22 626 -22 c 0,16,17
EndSplineSet
EndChar

StartChar: d
Encoding: 100 100 598
Width: 1301
GlyphClass: 2
Flags: W
AnchorPoint: "Anchor-1" 472 1304 basechar 0
LayerCount: 2
Fore
SplineSet
503 -19 m 0,0,1
 374 -19 374 -19 272.5 47 c 128,-1,2
 171 113 171 113 112.5 238.5 c 128,-1,3
 54 364 54 364 54 544 c 0,4,5
 54 727 54 727 115 852 c 128,-1,6
 176 977 176 977 276.5 1041.5 c 128,-1,7
 377 1106 377 1106 498 1106 c 0,8,9
 574 1106 574 1106 632.5 1083.5 c 128,-1,10
 691 1061 691 1061 733.5 1019 c 128,-1,11
 776 977 776 977 803 921 c 1,12,-1
 806 921 l 1,13,-1
 806 1490 l 1,14,-1
 1207 1490 l 1,15,-1
 1207 0 l 1,16,-1
 810 0 l 1,17,-1
 810 175 l 1,18,-1
 805 175 l 1,19,20
 781 115 781 115 738.5 71.5 c 128,-1,21
 696 28 696 28 636.5 4.5 c 128,-1,22
 577 -19 577 -19 503 -19 c 0,0,1
636 292 m 0,23,24
 691 292 691 292 732 323.5 c 128,-1,25
 773 355 773 355 795.5 411.5 c 128,-1,26
 818 468 818 468 818 544 c 0,27,28
 818 622 818 622 795.5 678.5 c 128,-1,29
 773 735 773 735 732 766 c 128,-1,30
 691 797 691 797 636 797 c 0,31,32
 582 797 582 797 543 766 c 128,-1,33
 504 735 504 735 484 678.5 c 128,-1,34
 464 622 464 622 464 544 c 0,35,36
 464 467 464 467 484 410.5 c 128,-1,37
 504 354 504 354 543 323 c 128,-1,38
 582 292 582 292 636 292 c 0,23,24
EndSplineSet
Substitution2: "'sups' Superscript in Latin lookup 39 subtable" d.sups
Substitution2: "'subs' Subscript in Latin lookup 38 subtable" d.subs
Substitution2: "'sinf' Scientific Inferiors in Latin lookup 18 subtable" d.subs
AlternateSubs2: "'aalt' Access All Alternates in Latin lookup 1 subtable" d.sups d.subs
EndChar

StartChar: drthook
Encoding: 598 598 600
Width: 1301
GlyphClass: 2
Flags: W
AnchorPoint: "Anchor-1" 472 1304 basechar 0
LayerCount: 2
Fore
SplineSet
1219 -429 m 0,0,1
 1009 -429 1009 -429 909.5 -335.5 c 128,-1,2
 810 -242 810 -242 810 -55 c 2,3,-1
 810 209 l 1,4,-1
 1207 209 l 1,5,-1
 1207 -44 l 2,6,7
 1207 -89 1207 -89 1229 -108.5 c 128,-1,8
 1251 -128 1251 -128 1301 -128 c 0,9,10
 1339 -128 1339 -128 1371 -127 c 128,-1,11
 1403 -126 1403 -126 1426 -124 c 1,12,-1
 1426 -417 l 1,13,14
 1388 -423 1388 -423 1334.5 -426 c 128,-1,15
 1281 -429 1281 -429 1219 -429 c 0,0,1
503 -19 m 0,16,17
 374 -19 374 -19 272.5 47 c 128,-1,18
 171 113 171 113 112.5 238.5 c 128,-1,19
 54 364 54 364 54 544 c 0,20,21
 54 727 54 727 115 852 c 128,-1,22
 176 977 176 977 276.5 1041.5 c 128,-1,23
 377 1106 377 1106 498 1106 c 0,24,25
 574 1106 574 1106 632.5 1083.5 c 128,-1,26
 691 1061 691 1061 733.5 1019 c 128,-1,27
 776 977 776 977 803 921 c 1,28,-1
 806 921 l 1,29,-1
 806 1490 l 1,30,-1
 1207 1490 l 1,31,-1
 1207 0 l 1,32,-1
 810 0 l 1,33,-1
 810 175 l 1,34,-1
 805 175 l 1,35,36
 781 115 781 115 738.5 71.5 c 128,-1,37
 696 28 696 28 636.5 4.5 c 128,-1,38
 577 -19 577 -19 503 -19 c 0,16,17
636 292 m 0,39,40
 691 292 691 292 732 323.5 c 128,-1,41
 773 355 773 355 795.5 411.5 c 128,-1,42
 818 468 818 468 818 544 c 0,43,44
 818 622 818 622 795.5 678.5 c 128,-1,45
 773 735 773 735 732 766 c 128,-1,46
 691 797 691 797 636 797 c 0,47,48
 582 797 582 797 543 766 c 128,-1,49
 504 735 504 735 484 678.5 c 128,-1,50
 464 622 464 622 464 544 c 0,51,52
 464 467 464 467 484 410.5 c 128,-1,53
 504 354 504 354 543 323 c 128,-1,54
 582 292 582 292 636 292 c 0,39,40
EndSplineSet
EndChar

StartChar: uni0257
Encoding: 599 599 601
Width: 1298
GlyphClass: 2
Flags: W
AnchorPoint: "Anchor-4" 1204 0 basechar 0
AnchorPoint: "Anchor-1" 647 1087 basechar 0
AnchorPoint: "Anchor-0" 652 0 basechar 0
LayerCount: 2
Fore
SplineSet
803 836 m 1,0,-1
 803 1124 l 2,1,2
 803 1311 803 1311 906 1404 c 128,-1,3
 1009 1497 1009 1497 1219 1497 c 0,4,5
 1281 1497 1281 1497 1334.5 1494.5 c 128,-1,6
 1388 1492 1388 1492 1426 1486 c 1,7,-1
 1426 1192 l 1,8,9
 1403 1194 1403 1194 1371 1195 c 128,-1,10
 1339 1196 1339 1196 1301 1196 c 0,11,12
 1250 1196 1250 1196 1227 1176.5 c 128,-1,13
 1204 1157 1204 1157 1204 1113 c 2,14,-1
 1204 836 l 1,15,-1
 803 836 l 1,0,-1
502 -19 m 0,16,17
 374 -19 374 -19 273 47 c 128,-1,18
 172 113 172 113 113 238.5 c 128,-1,19
 54 364 54 364 54 544 c 0,20,21
 54 727 54 727 115 852 c 128,-1,22
 176 977 176 977 277 1041.5 c 128,-1,23
 378 1106 378 1106 499 1106 c 0,24,25
 576 1106 576 1106 634 1083 c 128,-1,26
 692 1060 692 1060 734.5 1019 c 128,-1,27
 777 978 777 978 804 924 c 1,28,-1
 810 924 l 1,29,-1
 810 1087 l 1,30,-1
 1204 1087 l 1,31,-1
 1204 0 l 1,32,-1
 810 0 l 1,33,-1
 810 171 l 1,34,-1
 804 171 l 1,35,36
 781 113 781 113 738.5 71 c 128,-1,37
 696 29 696 29 636.5 5 c 128,-1,38
 577 -19 577 -19 502 -19 c 0,16,17
636 292 m 256,39,40
 691 292 691 292 732 323.5 c 128,-1,41
 773 355 773 355 795.5 411.5 c 128,-1,42
 818 468 818 468 818 544 c 0,43,44
 818 622 818 622 795.5 678.5 c 128,-1,45
 773 735 773 735 732.5 766 c 128,-1,46
 692 797 692 797 636 797 c 0,47,48
 582 797 582 797 543 766 c 128,-1,49
 504 735 504 735 484 679 c 128,-1,50
 464 623 464 623 464 544 c 0,51,52
 464 467 464 467 484 410.5 c 128,-1,53
 504 354 504 354 542.5 323 c 128,-1,54
 581 292 581 292 636 292 c 256,39,40
EndSplineSet
EndChar

StartChar: uni018C
Encoding: 396 396 602
Width: 1301
GlyphClass: 2
Flags: W
AnchorPoint: "Anchor-1" 472 1304 basechar 0
LayerCount: 2
Fore
SplineSet
1005 1193 m 1,0,-1
 312 1193 l 1,1,-1
 312 1490 l 1,2,-1
 1207 1490 l 1,3,-1
 1005 1193 l 1,0,-1
503 -19 m 0,4,5
 374 -19 374 -19 272.5 47 c 128,-1,6
 171 113 171 113 112.5 238.5 c 128,-1,7
 54 364 54 364 54 544 c 0,8,9
 54 727 54 727 115 852 c 128,-1,10
 176 977 176 977 276.5 1041.5 c 128,-1,11
 377 1106 377 1106 498 1106 c 0,12,13
 574 1106 574 1106 632.5 1083.5 c 128,-1,14
 691 1061 691 1061 733.5 1019 c 128,-1,15
 776 977 776 977 803 921 c 1,16,-1
 806 921 l 1,17,-1
 806 1490 l 1,18,-1
 1207 1490 l 1,19,-1
 1207 0 l 1,20,-1
 810 0 l 1,21,-1
 810 175 l 1,22,-1
 805 175 l 1,23,24
 781 115 781 115 738.5 71.5 c 128,-1,25
 696 28 696 28 636.5 4.5 c 128,-1,26
 577 -19 577 -19 503 -19 c 0,4,5
636 292 m 0,27,28
 691 292 691 292 732 323.5 c 128,-1,29
 773 355 773 355 795.5 411.5 c 128,-1,30
 818 468 818 468 818 544 c 0,31,32
 818 622 818 622 795.5 678.5 c 128,-1,33
 773 735 773 735 732 766 c 128,-1,34
 691 797 691 797 636 797 c 0,35,36
 582 797 582 797 543 766 c 128,-1,37
 504 735 504 735 484 678.5 c 128,-1,38
 464 622 464 622 464 544 c 0,39,40
 464 467 464 467 484 410.5 c 128,-1,41
 504 354 504 354 543 323 c 128,-1,42
 582 292 582 292 636 292 c 0,27,28
EndSplineSet
EndChar

StartChar: uni0221
Encoding: 545 545 603
Width: 1621
GlyphClass: 2
Flags: W
AnchorPoint: "Anchor-1" 472 1304 basechar 0
LayerCount: 2
Fore
SplineSet
1281 -418 m 0,0,1
 1117 -418 1117 -418 1012 -374 c 128,-1,2
 907 -330 907 -330 856.5 -240 c 128,-1,3
 806 -150 806 -150 806 -12 c 2,4,-1
 806 192 l 1,5,-1
 1207 192 l 1,6,-1
 1207 -122 l 2,7,8
 1207 -161 1207 -161 1231.5 -181 c 128,-1,9
 1256 -201 1256 -201 1293 -201 c 0,10,11
 1327 -201 1327 -201 1349 -186 c 128,-1,12
 1371 -171 1371 -171 1371 -144 c 0,13,14
 1371 -115 1371 -115 1347.5 -96.5 c 128,-1,15
 1324 -78 1324 -78 1274 -78 c 0,16,17
 1244 -78 1244 -78 1210.5 -87.5 c 128,-1,18
 1177 -97 1177 -97 1126 -126 c 128,-1,19
 1075 -155 1075 -155 993 -211 c 2,20,-1
 676 -430 l 1,21,-1
 510 -207 l 1,22,-1
 845 23 l 2,23,24
 924 75 924 75 1027.5 118.5 c 128,-1,25
 1131 162 1131 162 1255 162 c 0,26,27
 1464 162 1464 162 1581 69 c 128,-1,28
 1698 -24 1698 -24 1698 -162 c 0,29,30
 1698 -288 1698 -288 1592 -353 c 128,-1,31
 1486 -418 1486 -418 1281 -418 c 0,0,1
503 -19 m 0,32,33
 374 -19 374 -19 272.5 47 c 128,-1,34
 171 113 171 113 112.5 238.5 c 128,-1,35
 54 364 54 364 54 544 c 0,36,37
 54 727 54 727 115 852 c 128,-1,38
 176 977 176 977 276.5 1041.5 c 128,-1,39
 377 1106 377 1106 498 1106 c 0,40,41
 574 1106 574 1106 632.5 1083.5 c 128,-1,42
 691 1061 691 1061 733.5 1019 c 128,-1,43
 776 977 776 977 803 921 c 1,44,-1
 806 921 l 1,45,-1
 806 1490 l 1,46,-1
 1207 1490 l 1,47,-1
 1207 0 l 1,48,-1
 810 0 l 1,49,-1
 810 175 l 1,50,-1
 805 175 l 1,51,52
 781 115 781 115 738.5 71.5 c 128,-1,53
 696 28 696 28 636.5 4.5 c 128,-1,54
 577 -19 577 -19 503 -19 c 0,32,33
636 292 m 0,55,56
 691 292 691 292 732 323.5 c 128,-1,57
 773 355 773 355 795.5 411.5 c 128,-1,58
 818 468 818 468 818 544 c 0,59,60
 818 622 818 622 795.5 678.5 c 128,-1,61
 773 735 773 735 732 766 c 128,-1,62
 691 797 691 797 636 797 c 0,63,64
 582 797 582 797 543 766 c 128,-1,65
 504 735 504 735 484 678.5 c 128,-1,66
 464 622 464 622 464 544 c 0,67,68
 464 467 464 467 484 410.5 c 128,-1,69
 504 354 504 354 543 323 c 128,-1,70
 582 292 582 292 636 292 c 0,55,56
EndSplineSet
EndChar

StartChar: uni02A3
Encoding: 675 675 611
Width: 2400
GlyphClass: 2
Flags: W
AnchorPoint: "Anchor-1" 472 1304 basechar 0
LayerCount: 2
Fore
SplineSet
1328 0 m 1,0,-1
 1328 239 l 1,1,-1
 1810 778 l 1,2,-1
 1810 782 l 1,3,-1
 1117 782 l 1,4,-1
 1117 1087 l 1,5,-1
 2280 1087 l 1,6,-1
 2280 828 l 1,7,-1
 1826 308 l 1,8,-1
 1826 304 l 1,9,-1
 2294 304 l 1,10,-1
 2294 0 l 1,11,-1
 1328 0 l 1,0,-1
503 -19 m 0,12,13
 374 -19 374 -19 272.5 47 c 128,-1,14
 171 113 171 113 112.5 238.5 c 128,-1,15
 54 364 54 364 54 544 c 0,16,17
 54 727 54 727 115 852 c 128,-1,18
 176 977 176 977 276.5 1041.5 c 128,-1,19
 377 1106 377 1106 498 1106 c 0,20,21
 574 1106 574 1106 632.5 1083.5 c 128,-1,22
 691 1061 691 1061 733.5 1019 c 128,-1,23
 776 977 776 977 803 921 c 1,24,-1
 806 921 l 1,25,-1
 806 1490 l 1,26,-1
 1207 1490 l 1,27,-1
 1207 0 l 1,28,-1
 810 0 l 1,29,-1
 810 175 l 1,30,-1
 805 175 l 1,31,32
 781 115 781 115 738.5 71.5 c 128,-1,33
 696 28 696 28 636.5 4.5 c 128,-1,34
 577 -19 577 -19 503 -19 c 0,12,13
636 292 m 0,35,36
 691 292 691 292 732 323.5 c 128,-1,37
 773 355 773 355 795.5 411.5 c 128,-1,38
 818 468 818 468 818 544 c 0,39,40
 818 622 818 622 795.5 678.5 c 128,-1,41
 773 735 773 735 732 766 c 128,-1,42
 691 797 691 797 636 797 c 0,43,44
 582 797 582 797 543 766 c 128,-1,45
 504 735 504 735 484 678.5 c 128,-1,46
 464 622 464 622 464 544 c 0,47,48
 464 467 464 467 484 410.5 c 128,-1,49
 504 354 504 354 543 323 c 128,-1,50
 582 292 582 292 636 292 c 0,35,36
EndSplineSet
EndChar

StartChar: dyogh
Encoding: 676 676 613
Width: 2084
GlyphClass: 2
Flags: W
AnchorPoint: "Anchor-1" 472 1304 basechar 0
LayerCount: 2
Fore
SplineSet
1219 -64 m 1,0,1
 1226 -84 1226 -84 1251 -99 c 128,-1,2
 1276 -114 1276 -114 1314.5 -123 c 128,-1,3
 1353 -132 1353 -132 1399 -132 c 0,4,5
 1462 -132 1462 -132 1509.5 -110 c 128,-1,6
 1557 -88 1557 -88 1583 -48 c 128,-1,7
 1609 -8 1609 -8 1609 45 c 0,8,9
 1609 93 1609 93 1582 129 c 128,-1,10
 1555 165 1555 165 1506 184.5 c 128,-1,11
 1457 204 1457 204 1391 204 c 2,12,-1
 1275 204 l 1,13,-1
 1275 510 l 1,14,-1
 1533 752 l 1,15,-1
 1533 757 l 1,16,-1
 1103 757 l 1,17,-1
 1103 1088 l 1,18,-1
 1985 1088 l 1,19,-1
 1985 796 l 1,20,-1
 1579 430 l 1,21,-1
 1579 424 l 1,22,23
 1755 403 1755 403 1853 336 c 128,-1,24
 1951 269 1951 269 1990 182 c 128,-1,25
 2029 95 2029 95 2029 12 c 0,26,27
 2029 -126 2029 -126 1945 -226.5 c 128,-1,28
 1861 -327 1861 -327 1717.5 -380.5 c 128,-1,29
 1574 -434 1574 -434 1395 -434 c 0,30,31
 1225 -434 1225 -434 1100 -386 c 128,-1,32
 975 -338 975 -338 902.5 -254 c 128,-1,33
 830 -170 830 -170 815 -64 c 1,34,-1
 1219 -64 l 1,0,1
503 -19 m 0,35,36
 374 -19 374 -19 272.5 47 c 128,-1,37
 171 113 171 113 112.5 238.5 c 128,-1,38
 54 364 54 364 54 544 c 0,39,40
 54 727 54 727 115 852 c 128,-1,41
 176 977 176 977 276.5 1041.5 c 128,-1,42
 377 1106 377 1106 498 1106 c 0,43,44
 574 1106 574 1106 632.5 1083.5 c 128,-1,45
 691 1061 691 1061 733.5 1019 c 128,-1,46
 776 977 776 977 803 921 c 1,47,-1
 806 921 l 1,48,-1
 806 1490 l 1,49,-1
 1207 1490 l 1,50,-1
 1207 0 l 1,51,-1
 810 0 l 1,52,-1
 810 175 l 1,53,-1
 805 175 l 1,54,55
 781 115 781 115 738.5 71.5 c 128,-1,56
 696 28 696 28 636.5 4.5 c 128,-1,57
 577 -19 577 -19 503 -19 c 0,35,36
636 292 m 0,58,59
 691 292 691 292 732 323.5 c 128,-1,60
 773 355 773 355 795.5 411.5 c 128,-1,61
 818 468 818 468 818 544 c 0,62,63
 818 622 818 622 795.5 678.5 c 128,-1,64
 773 735 773 735 732 766 c 128,-1,65
 691 797 691 797 636 797 c 0,66,67
 582 797 582 797 543 766 c 128,-1,68
 504 735 504 735 484 678.5 c 128,-1,69
 464 622 464 622 464 544 c 0,70,71
 464 467 464 467 484 410.5 c 128,-1,72
 504 354 504 354 543 323 c 128,-1,73
 582 292 582 292 636 292 c 0,58,59
EndSplineSet
EndChar

StartChar: e
Encoding: 101 101 615
Width: 1218
GlyphClass: 2
Flags: W
AnchorPoint: "Anchor-4" 1158 326 basechar 0
AnchorPoint: "Anchor-3" 619 0 basechar 0
AnchorPoint: "Anchor-1" 611 1087 basechar 0
AnchorPoint: "Anchor-0" 611 0 basechar 0
LayerCount: 2
Fore
SplineSet
623 -22 m 0,0,1
 452 -22 452 -22 323.5 47.5 c 128,-1,2
 195 117 195 117 124.5 244.5 c 128,-1,3
 54 372 54 372 54 542 c 0,4,5
 54 710 54 710 124.5 837 c 128,-1,6
 195 964 195 964 321 1035 c 128,-1,7
 447 1106 447 1106 614 1106 c 0,8,9
 738 1106 738 1106 840 1067 c 128,-1,10
 942 1028 942 1028 1015.5 954 c 128,-1,11
 1089 880 1089 880 1128.5 778 c 128,-1,12
 1168 676 1168 676 1168 549 c 2,13,-1
 1168 450 l 1,14,-1
 175 450 l 1,15,-1
 175 672 l 1,16,-1
 983 672 l 1,17,-1
 798 629 l 1,18,19
 798 691 798 691 777.5 734 c 128,-1,20
 757 777 757 777 718 799.5 c 128,-1,21
 679 822 679 822 622 822 c 256,22,23
 565 822 565 822 526 799.5 c 128,-1,24
 487 777 487 777 466 734 c 128,-1,25
 445 691 445 691 445 629 c 2,26,-1
 445 460 l 2,27,28
 445 395 445 395 468.5 349.5 c 128,-1,29
 492 304 492 304 534.5 281 c 128,-1,30
 577 258 577 258 635 258 c 0,31,32
 677 258 677 258 711 269.5 c 128,-1,33
 745 281 745 281 769 302 c 128,-1,34
 793 323 793 323 804 352 c 1,35,-1
 1158 326 l 1,36,37
 1135 223 1135 223 1061.5 144.5 c 128,-1,38
 988 66 988 66 876 22 c 128,-1,39
 764 -22 764 -22 623 -22 c 0,0,1
EndSplineSet
Substitution2: "'sups' Superscript in Latin lookup 39 subtable" e.sups
Substitution2: "'subs' Subscript in Latin lookup 38 subtable" e.subs
Substitution2: "'sinf' Scientific Inferiors in Latin lookup 18 subtable" e.subs
AlternateSubs2: "'aalt' Access All Alternates in Latin lookup 1 subtable" e.sups e.subs
EndChar

StartChar: uni0247
Encoding: 583 583 617
Width: 1218
GlyphClass: 2
Flags: W
AnchorPoint: "Anchor-4" 1158 326 basechar 0
AnchorPoint: "Anchor-3" 619 0 basechar 0
AnchorPoint: "Anchor-1" 611 1087 basechar 0
AnchorPoint: "Anchor-0" 611 0 basechar 0
LayerCount: 2
Fore
SplineSet
249 -418 m 1,0,-1
 831 1490 l 1,1,-1
 993 1490 l 1,2,-1
 409 -418 l 1,3,-1
 249 -418 l 1,0,-1
623 -22 m 0,4,5
 452 -22 452 -22 323.5 47.5 c 128,-1,6
 195 117 195 117 124.5 244.5 c 128,-1,7
 54 372 54 372 54 542 c 0,8,9
 54 710 54 710 124.5 837 c 128,-1,10
 195 964 195 964 321 1035 c 128,-1,11
 447 1106 447 1106 614 1106 c 0,12,13
 738 1106 738 1106 840 1067 c 128,-1,14
 942 1028 942 1028 1015.5 954 c 128,-1,15
 1089 880 1089 880 1128.5 778 c 128,-1,16
 1168 676 1168 676 1168 549 c 2,17,-1
 1168 450 l 1,18,-1
 175 450 l 1,19,-1
 175 672 l 1,20,-1
 983 672 l 1,21,-1
 798 629 l 1,22,23
 798 691 798 691 777.5 734 c 128,-1,24
 757 777 757 777 718 799.5 c 128,-1,25
 679 822 679 822 622 822 c 256,26,27
 565 822 565 822 526 799.5 c 128,-1,28
 487 777 487 777 466 734 c 128,-1,29
 445 691 445 691 445 629 c 2,30,-1
 445 460 l 2,31,32
 445 395 445 395 468.5 349.5 c 128,-1,33
 492 304 492 304 534.5 281 c 128,-1,34
 577 258 577 258 635 258 c 0,35,36
 677 258 677 258 711 269.5 c 128,-1,37
 745 281 745 281 769 302 c 128,-1,38
 793 323 793 323 804 352 c 1,39,-1
 1158 326 l 1,40,41
 1135 223 1135 223 1061.5 144.5 c 128,-1,42
 988 66 988 66 876 22 c 128,-1,43
 764 -22 764 -22 623 -22 c 0,4,5
EndSplineSet
EndChar

StartChar: eturn
Encoding: 477 477 646
Width: 1218
GlyphClass: 2
Flags: W
AnchorPoint: "Anchor-4" 962 50 basechar 0
AnchorPoint: "Anchor-3" 634 0 basechar 0
AnchorPoint: "Anchor-1" 622 1087 basechar 0
AnchorPoint: "Anchor-0" 628 0 basechar 0
LayerCount: 2
Fore
SplineSet
596 1109 m 0,0,1
 769 1109 769 1109 896.5 1039.5 c 128,-1,2
 1024 970 1024 970 1094 843.5 c 128,-1,3
 1164 717 1164 717 1164 545 c 0,4,5
 1164 379 1164 379 1094 251.5 c 128,-1,6
 1024 124 1024 124 898 52.5 c 128,-1,7
 772 -19 772 -19 605 -19 c 0,8,9
 481 -19 481 -19 379 21 c 128,-1,10
 277 61 277 61 203.5 134 c 128,-1,11
 130 207 130 207 90 310 c 128,-1,12
 50 413 50 413 50 539 c 2,13,-1
 50 639 l 1,14,-1
 1043 639 l 1,15,-1
 1043 417 l 1,16,-1
 235 417 l 1,17,-1
 422 459 l 1,18,19
 422 398 422 398 442.5 354.5 c 128,-1,20
 463 311 463 311 502 288 c 128,-1,21
 541 265 541 265 598 265 c 0,22,23
 654 265 654 265 693.5 288 c 128,-1,24
 733 311 733 311 753 354.5 c 128,-1,25
 773 398 773 398 773 459 c 2,26,-1
 773 627 l 2,27,28
 773 694 773 694 750.5 739 c 128,-1,29
 728 784 728 784 685.5 806.5 c 128,-1,30
 643 829 643 829 584 829 c 0,31,32
 542 829 542 829 508 818 c 128,-1,33
 474 807 474 807 450 786 c 128,-1,34
 426 765 426 765 414 735 c 1,35,-1
 60 761 l 1,36,37
 85 866 85 866 158 944 c 128,-1,38
 231 1022 231 1022 343.5 1065.5 c 128,-1,39
 456 1109 456 1109 596 1109 c 0,0,1
EndSplineSet
EndChar

StartChar: _part.f_base
Encoding: 1114123 -1 647
Width: 834
GlyphClass: 2
Flags: W
AnchorPoint: "Anchor-1" 433 1521 basechar 0
AnchorPoint: "Anchor-0" 377 0 basechar 0
LayerCount: 2
Fore
SplineSet
176 0 m 1,0,-1
 176 1151 l 2,1,2
 176 1278 176 1278 222 1361 c 128,-1,3
 268 1444 268 1444 356.5 1484.5 c 128,-1,4
 445 1525 445 1525 575 1525 c 0,5,6
 648 1525 648 1525 715.5 1519.5 c 128,-1,7
 783 1514 783 1514 813 1509 c 1,8,-1
 784 1213 l 1,9,10
 766 1217 766 1217 735 1219 c 128,-1,11
 704 1221 704 1221 679 1221 c 0,12,13
 621 1221 621 1221 598.5 1196.5 c 128,-1,14
 576 1172 576 1172 576 1124 c 2,15,-1
 576 0 l 1,16,-1
 176 0 l 1,0,-1
EndSplineSet
EndChar

StartChar: f
Encoding: 102 102 648
Width: 869
GlyphClass: 2
Flags: W
AnchorPoint: "Anchor-1" 463 1521 basechar 0
AnchorPoint: "Anchor-0" 406 0 basechar 0
LayerCount: 2
Fore
SplineSet
822 1087 m 1,0,-1
 822 789 l 1,1,-1
 21 789 l 1,2,-1
 21 1087 l 1,3,-1
 822 1087 l 1,0,-1
207 0 m 1,4,-1
 207 1151 l 2,5,6
 207 1278 207 1278 252 1361 c 128,-1,7
 297 1444 297 1444 386.5 1484.5 c 128,-1,8
 476 1525 476 1525 606 1525 c 0,9,10
 678 1525 678 1525 745.5 1519.5 c 128,-1,11
 813 1514 813 1514 844 1509 c 1,12,-1
 815 1213 l 1,13,14
 795 1217 795 1217 764 1219 c 128,-1,15
 733 1221 733 1221 708 1221 c 0,16,17
 651 1221 651 1221 629 1196.5 c 128,-1,18
 607 1172 607 1172 607 1124 c 2,19,-1
 607 0 l 1,20,-1
 207 0 l 1,4,-1
EndSplineSet
Substitution2: "'cv12' Character Variants 12 in Latin lookup 66 subtable" f.1
Substitution2: "'salt' Stylistic Alternatives in Latin lookup 46 subtable" f.1
Substitution2: "'sups' Superscript in Latin lookup 39 subtable" f.sups
Substitution2: "'subs' Subscript in Latin lookup 38 subtable" f.subs
Substitution2: "Single Substitution lookup 36 subtable" f.1
Substitution2: "Single Substitution lookup 35 subtable" f.i.1
Substitution2: "Single Substitution lookup 34 subtable" f.i
Substitution2: "'sinf' Scientific Inferiors in Latin lookup 18 subtable" f.subs
AlternateSubs2: "'aalt' Access All Alternates in Latin lookup 1 subtable" f.sups f.subs
EndChar

StartChar: f.1
Encoding: 60941 60941 649
Width: 756
GlyphClass: 2
Flags: W
AnchorPoint: "Anchor-1" 351 1521 basechar 0
AnchorPoint: "Anchor-0" 295 0 basechar 0
LayerCount: 2
Fore
SplineSet
710 1087 m 1,0,-1
 710 789 l 1,1,-1
 293 789 l 1,2,-1
 293 1087 l 1,3,-1
 710 1087 l 1,0,-1
94 0 m 1,4,-1
 94 1151 l 2,5,6
 94 1278 94 1278 140 1361 c 128,-1,7
 186 1444 186 1444 274.5 1484.5 c 128,-1,8
 363 1525 363 1525 493 1525 c 0,9,10
 566 1525 566 1525 633.5 1519.5 c 128,-1,11
 701 1514 701 1514 731 1509 c 1,12,-1
 702 1213 l 1,13,14
 684 1217 684 1217 653 1219 c 128,-1,15
 622 1221 622 1221 597 1221 c 0,16,17
 539 1221 539 1221 516.5 1196.5 c 128,-1,18
 494 1172 494 1172 494 1124 c 2,19,-1
 494 0 l 1,20,-1
 94 0 l 1,4,-1
EndSplineSet
EndChar

StartChar: f.i
Encoding: 60942 60942 650
Width: 798
GlyphClass: 2
Flags: W
AnchorPoint: "Anchor-1" 463 1521 basechar 0
AnchorPoint: "Anchor-0" 406 0 basechar 0
LayerCount: 2
Fore
SplineSet
207 0 m 1,0,-1
 207 1151 l 2,1,2
 207 1278 207 1278 252 1361 c 128,-1,3
 297 1444 297 1444 386.5 1484.5 c 128,-1,4
 476 1525 476 1525 606 1525 c 0,5,6
 647 1525 647 1525 688 1523 c 128,-1,7
 729 1521 729 1521 767 1518 c 1,8,-1
 767 1217 l 1,9,10
 753 1219 753 1219 737.5 1220 c 128,-1,11
 722 1221 722 1221 708 1221 c 0,12,13
 651 1221 651 1221 629 1196.5 c 128,-1,14
 607 1172 607 1172 607 1124 c 2,15,-1
 607 0 l 1,16,-1
 207 0 l 1,0,-1
21 789 m 1,17,-1
 21 1087 l 1,18,-1
 1101 1087 l 1,19,-1
 1101 789 l 1,20,-1
 21 789 l 1,17,-1
EndSplineSet
Substitution2: "Single Substitution lookup 35 subtable" f.i.1
EndChar

StartChar: f.i.1
Encoding: 60943 60943 651
Width: 690
GlyphClass: 2
Flags: W
AnchorPoint: "Anchor-1" 351 1521 basechar 0
AnchorPoint: "Anchor-0" 295 0 basechar 0
LayerCount: 2
Fore
SplineSet
94 0 m 1,0,-1
 94 1151 l 2,1,2
 94 1278 94 1278 140 1361 c 128,-1,3
 186 1444 186 1444 274.5 1484.5 c 128,-1,4
 363 1525 363 1525 493 1525 c 0,5,6
 535 1525 535 1525 576 1523 c 128,-1,7
 617 1521 617 1521 655 1518 c 1,8,-1
 655 1217 l 1,9,10
 640 1219 640 1219 625 1220 c 128,-1,11
 610 1221 610 1221 597 1221 c 0,12,13
 539 1221 539 1221 516.5 1196.5 c 128,-1,14
 494 1172 494 1172 494 1124 c 2,15,-1
 494 0 l 1,16,-1
 94 0 l 1,0,-1
297 789 m 1,17,-1
 297 1087 l 1,18,-1
 1030 1087 l 1,19,-1
 1030 789 l 1,20,-1
 297 789 l 1,17,-1
EndSplineSet
EndChar

StartChar: g
Encoding: 103 103 659
Width: 1303
GlyphClass: 2
Flags: W
AnchorPoint: "Anchor-1" 636 1087 basechar 0
AnchorPoint: "Anchor-0" 635 -416 basechar 0
LayerCount: 2
Fore
SplineSet
635 -437 m 0,0,1
 470 -437 470 -437 356.5 -393.5 c 128,-1,2
 243 -350 243 -350 179 -274 c 128,-1,3
 115 -198 115 -198 99 -100 c 1,4,-1
 464 -74 l 1,5,6
 470 -101 470 -101 492.5 -121.5 c 128,-1,7
 515 -142 515 -142 551 -153 c 128,-1,8
 587 -164 587 -164 634 -164 c 0,9,10
 724 -164 724 -164 768.5 -119.5 c 128,-1,11
 813 -75 813 -75 813 18 c 2,12,-1
 813 194 l 1,13,-1
 798 194 l 1,14,15
 775 135 775 135 733.5 95 c 128,-1,16
 692 55 692 55 633.5 35 c 128,-1,17
 575 15 575 15 502 15 c 0,18,19
 374 15 374 15 272.5 77 c 128,-1,20
 171 139 171 139 112.5 258.5 c 128,-1,21
 54 378 54 378 54 550 c 0,22,23
 54 730 54 730 115 854 c 128,-1,24
 176 978 176 978 277 1042 c 128,-1,25
 378 1106 378 1106 499 1106 c 0,26,27
 576 1106 576 1106 635 1082.5 c 128,-1,28
 694 1059 694 1059 737 1016.5 c 128,-1,29
 780 974 780 974 807 918 c 1,30,-1
 812 918 l 1,31,-1
 812 1087 l 1,32,-1
 1209 1087 l 1,33,-1
 1209 60 l 2,34,35
 1209 -107 1209 -107 1139.5 -217.5 c 128,-1,36
 1070 -328 1070 -328 941 -382.5 c 128,-1,37
 812 -437 812 -437 635 -437 c 0,0,1
636 312 m 256,38,39
 691 312 691 312 732 341 c 128,-1,40
 773 370 773 370 795.5 425 c 128,-1,41
 818 480 818 480 818 554 c 0,42,43
 818 631 818 631 795.5 686 c 128,-1,44
 773 741 773 741 732.5 771 c 128,-1,45
 692 801 692 801 636 801 c 0,46,47
 582 801 582 801 543 771 c 128,-1,48
 504 741 504 741 484 685.5 c 128,-1,49
 464 630 464 630 464 554 c 0,50,51
 464 479 464 479 484 424 c 128,-1,52
 504 369 504 369 542.5 340.5 c 128,-1,53
 581 312 581 312 636 312 c 256,38,39
EndSplineSet
Substitution2: "'smcp' Lowercase to Small Capitals in Latin lookup 69 subtable" g.sc
Substitution2: "'sups' Superscript in Latin lookup 39 subtable" g.sups
Substitution2: "'subs' Subscript in Latin lookup 38 subtable" g.subs
Substitution2: "'sinf' Scientific Inferiors in Latin lookup 18 subtable" g.subs
AlternateSubs2: "'aalt' Access All Alternates in Latin lookup 1 subtable" g.sc g.sups g.subs
EndChar

StartChar: uni0260
Encoding: 608 608 660
Width: 1303
GlyphClass: 2
Flags: W
AnchorPoint: "Anchor-1" 636 1087 basechar 0
AnchorPoint: "Anchor-0" 635 -416 basechar 0
LayerCount: 2
Fore
SplineSet
808 836 m 1,0,-1
 808 1124 l 2,1,2
 808 1311 808 1311 911 1404 c 128,-1,3
 1014 1497 1014 1497 1224 1497 c 0,4,5
 1286 1497 1286 1497 1339.5 1494.5 c 128,-1,6
 1393 1492 1393 1492 1431 1486 c 1,7,-1
 1431 1192 l 1,8,9
 1408 1194 1408 1194 1376 1195 c 128,-1,10
 1344 1196 1344 1196 1306 1196 c 0,11,12
 1255 1196 1255 1196 1232 1176.5 c 128,-1,13
 1209 1157 1209 1157 1209 1113 c 2,14,-1
 1209 836 l 1,15,-1
 808 836 l 1,0,-1
635 -437 m 0,16,17
 470 -437 470 -437 356.5 -393.5 c 128,-1,18
 243 -350 243 -350 179 -274 c 128,-1,19
 115 -198 115 -198 99 -100 c 1,20,-1
 464 -74 l 1,21,22
 470 -101 470 -101 492.5 -121.5 c 128,-1,23
 515 -142 515 -142 551 -153 c 128,-1,24
 587 -164 587 -164 634 -164 c 0,25,26
 724 -164 724 -164 768.5 -119.5 c 128,-1,27
 813 -75 813 -75 813 18 c 2,28,-1
 813 194 l 1,29,-1
 798 194 l 1,30,31
 775 135 775 135 733.5 95 c 128,-1,32
 692 55 692 55 633.5 35 c 128,-1,33
 575 15 575 15 502 15 c 0,34,35
 374 15 374 15 272.5 77 c 128,-1,36
 171 139 171 139 112.5 258.5 c 128,-1,37
 54 378 54 378 54 550 c 0,38,39
 54 730 54 730 115 854 c 128,-1,40
 176 978 176 978 277 1042 c 128,-1,41
 378 1106 378 1106 499 1106 c 0,42,43
 576 1106 576 1106 635 1082.5 c 128,-1,44
 694 1059 694 1059 737 1016.5 c 128,-1,45
 780 974 780 974 807 918 c 1,46,-1
 812 918 l 1,47,-1
 812 1087 l 1,48,-1
 1209 1087 l 1,49,-1
 1209 60 l 2,50,51
 1209 -107 1209 -107 1139.5 -217.5 c 128,-1,52
 1070 -328 1070 -328 941 -382.5 c 128,-1,53
 812 -437 812 -437 635 -437 c 0,16,17
636 312 m 256,54,55
 691 312 691 312 732 341 c 128,-1,56
 773 370 773 370 795.5 425 c 128,-1,57
 818 480 818 480 818 554 c 0,58,59
 818 631 818 631 795.5 686 c 128,-1,60
 773 741 773 741 732.5 771 c 128,-1,61
 692 801 692 801 636 801 c 0,62,63
 582 801 582 801 543 771 c 128,-1,64
 504 741 504 741 484 685.5 c 128,-1,65
 464 630 464 630 464 554 c 0,66,67
 464 479 464 479 484 424 c 128,-1,68
 504 369 504 369 542.5 340.5 c 128,-1,69
 581 312 581 312 636 312 c 256,54,55
EndSplineSet
Substitution2: "'smcp' Lowercase to Small Capitals in Latin lookup 69 subtable" uni0260.sc
Substitution2: "'c2sc' Capitals to Small Capitals in Latin lookup 68 subtable" uni0260.sc
Substitution2: "'aalt' Access All Alternates in Latin lookup 0 subtable" uni0260.sc
EndChar

StartChar: g.sc
Encoding: 610 610 669
Width: 1135
GlyphClass: 2
Flags: W
AnchorPoint: "Anchor-1" 575 1087 basechar 0
AnchorPoint: "Anchor-0" 571 0 basechar 0
LayerCount: 2
Fore
SplineSet
585 -16 m 0,0,1
 418 -16 418 -16 292 51.5 c 128,-1,2
 166 119 166 119 96 244 c 128,-1,3
 26 369 26 369 26 542 c 0,4,5
 26 726 26 726 102.5 851 c 128,-1,6
 179 976 179 976 306 1039.5 c 128,-1,7
 433 1103 433 1103 584 1103 c 0,8,9
 718 1103 718 1103 829.5 1055.5 c 128,-1,10
 941 1008 941 1008 1012 921 c 128,-1,11
 1083 834 1083 834 1091 714 c 1,12,-1
 700 714 l 1,13,14
 695 738 695 738 681.5 750 c 128,-1,15
 668 762 668 762 646.5 766.5 c 128,-1,16
 625 771 625 771 595 771 c 0,17,18
 536 771 536 771 497.5 745.5 c 128,-1,19
 459 720 459 720 441 669.5 c 128,-1,20
 423 619 423 619 423 546 c 0,21,22
 423 472 423 472 440 421 c 128,-1,23
 457 370 457 370 494.5 343.5 c 128,-1,24
 532 317 532 317 594 317 c 0,25,26
 669 317 669 317 700 335 c 128,-1,27
 731 353 731 353 731 382 c 1,28,-1
 795 376 l 1,29,-1
 587 376 l 1,30,-1
 587 644 l 1,31,-1
 1104 644 l 1,32,-1
 1104 462 l 2,33,34
 1104 311 1104 311 1038 204 c 128,-1,35
 972 97 972 97 855 40.5 c 128,-1,36
 738 -16 738 -16 585 -16 c 0,0,1
EndSplineSet
EndChar

StartChar: uni0260.sc
Encoding: 60947 60947 670
Width: 1280
GlyphClass: 2
Flags: W
AnchorPoint: "Anchor-1" 575 1087 basechar 0
AnchorPoint: "Anchor-0" 571 0 basechar 0
LayerCount: 2
Fore
SplineSet
847 714 m 1,0,-1
 822 888 l 2,1,2
 805 1007 805 1007 820.5 1091.5 c 128,-1,3
 836 1176 836 1176 899 1221.5 c 128,-1,4
 962 1267 962 1267 1081 1267 c 0,5,6
 1127 1267 1127 1267 1170 1264 c 128,-1,7
 1213 1261 1213 1261 1253 1255 c 1,8,-1
 1253 962 l 1,9,10
 1230 964 1230 964 1207.5 965 c 128,-1,11
 1185 966 1185 966 1163 966 c 0,12,13
 1112 966 1112 966 1094 936 c 128,-1,14
 1076 906 1076 906 1085 834 c 1,15,-1
 1091 714 l 1,16,-1
 847 714 l 1,0,-1
585 -16 m 0,17,18
 418 -16 418 -16 292 51.5 c 128,-1,19
 166 119 166 119 96 244 c 128,-1,20
 26 369 26 369 26 542 c 0,21,22
 26 726 26 726 102.5 851 c 128,-1,23
 179 976 179 976 306 1039.5 c 128,-1,24
 433 1103 433 1103 584 1103 c 0,25,26
 718 1103 718 1103 829.5 1055.5 c 128,-1,27
 941 1008 941 1008 1012 921 c 128,-1,28
 1083 834 1083 834 1091 714 c 1,29,-1
 700 714 l 1,30,31
 695 738 695 738 681.5 750 c 128,-1,32
 668 762 668 762 646.5 766.5 c 128,-1,33
 625 771 625 771 595 771 c 0,34,35
 536 771 536 771 497.5 745.5 c 128,-1,36
 459 720 459 720 441 669.5 c 128,-1,37
 423 619 423 619 423 546 c 0,38,39
 423 472 423 472 440 421 c 128,-1,40
 457 370 457 370 494.5 343.5 c 128,-1,41
 532 317 532 317 594 317 c 0,42,43
 669 317 669 317 700 335 c 128,-1,44
 731 353 731 353 731 382 c 1,45,-1
 795 376 l 1,46,-1
 587 376 l 1,47,-1
 587 644 l 1,48,-1
 1104 644 l 1,49,-1
 1104 462 l 2,50,51
 1104 311 1104 311 1038 204 c 128,-1,52
 972 97 972 97 855 40.5 c 128,-1,53
 738 -16 738 -16 585 -16 c 0,17,18
EndSplineSet
EndChar

StartChar: h
Encoding: 104 104 671
Width: 1299
GlyphClass: 2
Flags: W
AnchorPoint: "Anchor-3" 294 0 basechar 0
AnchorPoint: "Anchor-1" 291 1490 basechar 0
AnchorPoint: "Anchor-0" 649 0 basechar 0
LayerCount: 2
Fore
SplineSet
495 594 m 2,0,-1
 495 0 l 1,1,-1
 94 0 l 1,2,-1
 94 1490 l 1,3,-1
 490 1490 l 1,4,-1
 490 799 l 1,5,-1
 453 799 l 1,6,7
 496 932 496 932 585 1019 c 128,-1,8
 674 1106 674 1106 831 1106 c 0,9,10
 950 1106 950 1106 1033.5 1054 c 128,-1,11
 1117 1002 1117 1002 1161 908 c 128,-1,12
 1205 814 1205 814 1205 689 c 2,13,-1
 1205 0 l 1,14,-1
 803 0 l 1,15,-1
 803 603 l 2,16,17
 803 684 803 684 763 729 c 128,-1,18
 723 774 723 774 650 774 c 0,19,20
 602 774 602 774 567.5 753.5 c 128,-1,21
 533 733 533 733 514 693 c 128,-1,22
 495 653 495 653 495 594 c 2,0,-1
EndSplineSet
Substitution2: "'smcp' Lowercase to Small Capitals in Latin lookup 69 subtable" h.sc
Substitution2: "'sups' Superscript in Latin lookup 39 subtable" h.sups
Substitution2: "'subs' Subscript in Latin lookup 38 subtable" h.subs
Substitution2: "'sinf' Scientific Inferiors in Latin lookup 18 subtable" h.subs
AlternateSubs2: "'aalt' Access All Alternates in Latin lookup 1 subtable" h.sups h.subs h.sc
EndChar

StartChar: uni0452
Encoding: 1106 1106 674
Width: 1299
GlyphClass: 2
Flags: W
AnchorPoint: "Anchor-3" 294 0 basechar 0
AnchorPoint: "Anchor-1" 291 1490 basechar 0
AnchorPoint: "Anchor-0" 649 0 basechar 0
LayerCount: 2
Fore
SplineSet
796 -429 m 0,0,1
 734 -429 734 -429 678.5 -426 c 128,-1,2
 623 -423 623 -423 584 -417 c 1,3,-1
 584 -124 l 1,4,5
 609 -126 609 -126 640.5 -127 c 128,-1,6
 672 -128 672 -128 710 -128 c 0,7,8
 760 -128 760 -128 781.5 -108.5 c 128,-1,9
 803 -89 803 -89 803 -44 c 2,10,-1
 803 0 l 1,11,-1
 1205 0 l 1,12,-1
 1205 -55 l 2,13,14
 1205 -242 1205 -242 1105.5 -335.5 c 128,-1,15
 1006 -429 1006 -429 796 -429 c 0,0,1
495 594 m 2,16,-1
 495 0 l 1,17,-1
 94 0 l 1,18,-1
 94 1490 l 1,19,-1
 490 1490 l 1,20,-1
 490 799 l 1,21,-1
 453 799 l 1,22,23
 496 932 496 932 585 1019 c 128,-1,24
 674 1106 674 1106 831 1106 c 0,25,26
 950 1106 950 1106 1033.5 1054 c 128,-1,27
 1117 1002 1117 1002 1161 908 c 128,-1,28
 1205 814 1205 814 1205 689 c 2,29,-1
 1205 0 l 1,30,-1
 803 0 l 1,31,-1
 803 603 l 2,32,33
 803 684 803 684 763 729 c 128,-1,34
 723 774 723 774 650 774 c 0,35,36
 602 774 602 774 567.5 753.5 c 128,-1,37
 533 733 533 733 514 693 c 128,-1,38
 495 653 495 653 495 594 c 2,16,-1
-36 1175 m 1,39,-1
 -36 1391 l 1,40,-1
 786 1391 l 1,41,-1
 786 1175 l 1,42,-1
 -36 1175 l 1,39,-1
EndSplineSet
EndChar

StartChar: uni0266
Encoding: 614 614 675
Width: 1298
GlyphClass: 2
Flags: W
AnchorPoint: "Anchor-1" 649 1087 basechar 0
AnchorPoint: "Anchor-0" 649 0 basechar 0
LayerCount: 2
Fore
SplineSet
94 836 m 1,0,-1
 94 1124 l 2,1,2
 94 1311 94 1311 197 1404 c 128,-1,3
 300 1497 300 1497 510 1497 c 0,4,5
 572 1497 572 1497 625.5 1494.5 c 128,-1,6
 679 1492 679 1492 717 1486 c 1,7,-1
 717 1192 l 1,8,9
 694 1194 694 1194 662 1195 c 128,-1,10
 630 1196 630 1196 592 1196 c 0,11,12
 541 1196 541 1196 518 1176.5 c 128,-1,13
 495 1157 495 1157 495 1113 c 2,14,-1
 495 836 l 1,15,-1
 94 836 l 1,0,-1
495 594 m 2,16,-1
 495 0 l 1,17,-1
 94 0 l 1,18,-1
 94 1087 l 1,19,-1
 481 1087 l 1,20,-1
 484 799 l 1,21,-1
 453 799 l 1,22,23
 496 932 496 932 585 1019 c 128,-1,24
 674 1106 674 1106 831 1106 c 0,25,26
 950 1106 950 1106 1033 1054 c 128,-1,27
 1116 1002 1116 1002 1160 908 c 128,-1,28
 1204 814 1204 814 1204 689 c 2,29,-1
 1204 0 l 1,30,-1
 803 0 l 1,31,-1
 803 603 l 2,32,33
 803 684 803 684 763 729 c 128,-1,34
 723 774 723 774 650 774 c 0,35,36
 602 774 602 774 567.5 753.5 c 128,-1,37
 533 733 533 733 514 693 c 128,-1,38
 495 653 495 653 495 594 c 2,16,-1
EndSplineSet
EndChar

StartChar: uni0267
Encoding: 615 615 676
Width: 1298
GlyphClass: 2
Flags: W
AnchorPoint: "Anchor-1" 649 1087 basechar 0
AnchorPoint: "Anchor-0" 649 0 basechar 0
LayerCount: 2
Fore
SplineSet
796 -429 m 0,0,1
 734 -429 734 -429 678.5 -426 c 128,-1,2
 623 -423 623 -423 584 -417 c 1,3,-1
 584 -124 l 1,4,5
 609 -126 609 -126 640.5 -127 c 128,-1,6
 672 -128 672 -128 710 -128 c 0,7,8
 760 -128 760 -128 781.5 -108.5 c 128,-1,9
 803 -89 803 -89 803 -44 c 2,10,-1
 803 0 l 1,11,-1
 1205 0 l 1,12,-1
 1205 -55 l 2,13,14
 1205 -242 1205 -242 1105.5 -335.5 c 128,-1,15
 1006 -429 1006 -429 796 -429 c 0,0,1
495 594 m 2,16,-1
 495 0 l 1,17,-1
 94 0 l 1,18,-1
 94 1087 l 1,19,-1
 481 1087 l 1,20,-1
 484 799 l 1,21,-1
 453 799 l 1,22,23
 496 932 496 932 585 1019 c 128,-1,24
 674 1106 674 1106 831 1106 c 0,25,26
 950 1106 950 1106 1033 1054 c 128,-1,27
 1116 1002 1116 1002 1160 908 c 128,-1,28
 1204 814 1204 814 1204 689 c 2,29,-1
 1204 0 l 1,30,-1
 803 0 l 1,31,-1
 803 603 l 2,32,33
 803 684 803 684 763 729 c 128,-1,34
 723 774 723 774 650 774 c 0,35,36
 602 774 602 774 567.5 753.5 c 128,-1,37
 533 733 533 733 514 693 c 128,-1,38
 495 653 495 653 495 594 c 2,16,-1
94 836 m 1,39,-1
 94 1124 l 2,40,41
 94 1311 94 1311 197 1404 c 128,-1,42
 300 1497 300 1497 510 1497 c 0,43,44
 572 1497 572 1497 625.5 1494.5 c 128,-1,45
 679 1492 679 1492 717 1486 c 1,46,-1
 717 1192 l 1,47,48
 694 1194 694 1194 662 1195 c 128,-1,49
 630 1196 630 1196 592 1196 c 0,50,51
 541 1196 541 1196 518 1176.5 c 128,-1,52
 495 1157 495 1157 495 1113 c 2,53,-1
 495 836 l 1,54,-1
 94 836 l 1,39,-1
EndSplineSet
EndChar

StartChar: uni0195
Encoding: 405 405 677
Width: 2047
Flags: W
LayerCount: 2
Fore
SplineSet
1322 -22 m 0,0,1
 1154 -22 1154 -22 1042 36 c 128,-1,2
 930 94 930 94 874.5 196 c 128,-1,3
 819 298 819 298 819 431 c 2,4,-1
 819 607 l 2,5,6
 819 689 819 689 777 735.5 c 128,-1,7
 735 782 735 782 658 782 c 0,8,9
 609 782 609 782 572.5 761 c 128,-1,10
 536 740 536 740 515.5 701 c 128,-1,11
 495 662 495 662 495 606 c 2,12,-1
 495 0 l 1,13,-1
 94 0 l 1,14,-1
 94 1490 l 1,15,-1
 487 1490 l 1,16,-1
 487 880 l 1,17,-1
 495 880 l 1,18,19
 532 987 532 987 619 1046.5 c 128,-1,20
 706 1106 706 1106 829 1106 c 0,21,22
 947 1106 947 1106 1035 1052.5 c 128,-1,23
 1123 999 1123 999 1171.5 905 c 128,-1,24
 1220 811 1220 811 1220 689 c 2,25,-1
 1220 431 l 2,26,27
 1220 392 1220 392 1234 364.5 c 128,-1,28
 1248 337 1248 337 1273.5 321.5 c 128,-1,29
 1299 306 1299 306 1334 306 c 0,30,31
 1418 306 1418 306 1465 391 c 128,-1,32
 1512 476 1512 476 1532 634.5 c 128,-1,33
 1552 793 1552 793 1552 1012 c 2,34,-1
 1552 1087 l 1,35,-1
 1953 1087 l 1,36,-1
 1953 1012 l 2,37,38
 1953 673 1953 673 1893.5 442.5 c 128,-1,39
 1834 212 1834 212 1696 95 c 128,-1,40
 1558 -22 1558 -22 1322 -22 c 0,0,1
EndSplineSet
EndChar

StartChar: hturn
Encoding: 613 613 678
Width: 1299
GlyphClass: 2
Flags: W
AnchorPoint: "Anchor-3" 1005 1087 basechar 0
AnchorPoint: "Anchor-1" 649 1087 basechar 0
AnchorPoint: "Anchor-0" 650 1087 basechar 0
LayerCount: 2
Fore
SplineSet
804 493 m 2,0,-1
 804 1087 l 1,1,-1
 1205 1087 l 1,2,-1
 1205 -403 l 1,3,-1
 809 -403 l 1,4,-1
 809 289 l 1,5,-1
 846 289 l 1,6,7
 803 157 803 157 714 69 c 128,-1,8
 625 -19 625 -19 468 -19 c 0,9,10
 350 -19 350 -19 266 33.5 c 128,-1,11
 182 86 182 86 138 180 c 128,-1,12
 94 274 94 274 94 398 c 2,13,-1
 94 1087 l 1,14,-1
 496 1087 l 1,15,-1
 496 486 l 2,16,17
 496 405 496 405 536 359 c 128,-1,18
 576 313 576 313 649 313 c 0,19,20
 698 313 698 313 732 334 c 128,-1,21
 766 355 766 355 785 395.5 c 128,-1,22
 804 436 804 436 804 493 c 2,0,-1
EndSplineSet
EndChar

StartChar: hturnlthook
Encoding: 686 686 679
Width: 1467
Flags: W
LayerCount: 2
Fore
SplineSet
977 -418 m 1,0,-1
 977 289 l 1,1,-1
 1015 289 l 1,2,3
 971 156 971 156 882 68.5 c 128,-1,4
 793 -19 793 -19 636 -19 c 0,5,6
 517 -19 517 -19 433.5 33.5 c 128,-1,7
 350 86 350 86 306 180 c 128,-1,8
 262 274 262 274 262 398 c 2,9,-1
 262 713 l 2,10,11
 262 757 262 757 227 774.5 c 128,-1,12
 192 792 192 792 144 792 c 0,13,14
 129 792 129 792 106 791.5 c 128,-1,15
 83 791 83 791 59.5 790.5 c 128,-1,16
 36 790 36 790 21 789 c 1,17,-1
 21 1088 l 1,18,19
 63 1091 63 1091 116.5 1092.5 c 128,-1,20
 170 1094 170 1094 231 1094 c 0,21,22
 327 1094 327 1094 406.5 1076 c 128,-1,23
 486 1058 486 1058 543.5 1017.5 c 128,-1,24
 601 977 601 977 632 908.5 c 128,-1,25
 663 840 663 840 663 739 c 2,26,-1
 663 486 l 2,27,28
 663 405 663 405 703.5 359 c 128,-1,29
 744 313 744 313 817 313 c 0,30,31
 865 313 865 313 900 334 c 128,-1,32
 935 355 935 355 953 395.5 c 128,-1,33
 971 436 971 436 971 493 c 2,34,-1
 971 1087 l 1,35,-1
 1373 1087 l 1,36,-1
 1373 -418 l 1,37,-1
 977 -418 l 1,0,-1
EndSplineSet
EndChar

StartChar: hturnhook2
Encoding: 687 687 680
Width: 1472
Flags: W
LayerCount: 2
Fore
SplineSet
1345 -429 m 0,0,1
 1163 -429 1163 -429 1070 -342 c 128,-1,2
 977 -255 977 -255 977 -87 c 2,3,-1
 977 289 l 1,4,-1
 1015 289 l 1,5,6
 971 156 971 156 882 68.5 c 128,-1,7
 793 -19 793 -19 636 -19 c 0,8,9
 517 -19 517 -19 433.5 33.5 c 128,-1,10
 350 86 350 86 306 180 c 128,-1,11
 262 274 262 274 262 398 c 2,12,-1
 262 713 l 2,13,14
 262 757 262 757 227 774.5 c 128,-1,15
 192 792 192 792 144 792 c 0,16,17
 129 792 129 792 106 791.5 c 128,-1,18
 83 791 83 791 59.5 790.5 c 128,-1,19
 36 790 36 790 21 789 c 1,20,-1
 21 1088 l 1,21,22
 63 1091 63 1091 116.5 1092.5 c 128,-1,23
 170 1094 170 1094 231 1094 c 0,24,25
 327 1094 327 1094 406.5 1076 c 128,-1,26
 486 1058 486 1058 543.5 1017.5 c 128,-1,27
 601 977 601 977 632 908.5 c 128,-1,28
 663 840 663 840 663 739 c 2,29,-1
 663 486 l 2,30,31
 663 405 663 405 703.5 359 c 128,-1,32
 744 313 744 313 817 313 c 0,33,34
 865 313 865 313 900 334 c 128,-1,35
 935 355 935 355 953 395.5 c 128,-1,36
 971 436 971 436 971 493 c 2,37,-1
 971 1087 l 1,38,-1
 1373 1087 l 1,39,-1
 1373 -60 l 2,40,41
 1373 -98 1373 -98 1393.5 -115.5 c 128,-1,42
 1414 -133 1414 -133 1459 -133 c 0,43,44
 1497 -133 1497 -133 1534.5 -132 c 128,-1,45
 1572 -131 1572 -131 1597 -129 c 1,46,-1
 1597 -417 l 1,47,48
 1571 -421 1571 -421 1527 -423.5 c 128,-1,49
 1483 -426 1483 -426 1434.5 -427.5 c 128,-1,50
 1386 -429 1386 -429 1345 -429 c 0,0,1
EndSplineSet
EndChar

StartChar: dotlessi
Encoding: 305 305 691
Width: 589
GlyphClass: 2
Flags: W
AnchorPoint: "Anchor-4" 495 0 basechar 0
AnchorPoint: "Anchor-1" 294 1087 basechar 0
AnchorPoint: "Anchor-0" 296 0 basechar 0
LayerCount: 2
Fore
SplineSet
94 0 m 1,0,-1
 94 1087 l 1,1,-1
 495 1087 l 1,2,-1
 495 0 l 1,3,-1
 94 0 l 1,0,-1
EndSplineSet
EndChar

StartChar: uni0237
Encoding: 567 567 713
Width: 590
GlyphClass: 2
Flags: W
AnchorPoint: "Anchor-1" 296 1087 basechar 0
AnchorPoint: "Anchor-0" 237 -397 basechar 0
LayerCount: 2
Fore
SplineSet
96 1087 m 1,0,-1
 496 1087 l 1,1,-1
 496 -38 l 2,2,3
 497 -175 497 -175 442.5 -258 c 128,-1,4
 388 -341 388 -341 286 -379.5 c 128,-1,5
 184 -418 184 -418 40 -418 c 2,6,-1
 -78 -418 l 1,7,-1
 -78 -118 l 1,8,-1
 -17 -118 l 2,9,10
 45 -118 45 -118 70.5 -93.5 c 128,-1,11
 96 -69 96 -69 96 -15 c 2,12,-1
 96 1087 l 1,0,-1
EndSplineSet
EndChar

StartChar: i.sc
Encoding: 60950 60950 720
Width: 790
GlyphClass: 2
Flags: W
AnchorPoint: "Anchor-4" 763 0 basechar 0
AnchorPoint: "Anchor-1" 395 1087 basechar 0
AnchorPoint: "Anchor-0" 395 0 basechar 0
LayerCount: 2
Fore
SplineSet
27 0 m 1,0,-1
 27 314 l 1,1,-1
 195 314 l 1,2,-1
 195 774 l 1,3,-1
 27 774 l 1,4,-1
 27 1087 l 1,5,-1
 763 1087 l 1,6,-1
 763 774 l 1,7,-1
 596 774 l 1,8,-1
 596 314 l 1,9,-1
 763 314 l 1,10,-1
 763 0 l 1,11,-1
 27 0 l 1,0,-1
EndSplineSet
EndChar

StartChar: jcrosstail.ccmp
Encoding: 57423 57423 722
Width: 1122
GlyphClass: 2
Flags: W
AnchorPoint: "Anchor-4" 945 0 basechar 0
AnchorPoint: "Anchor-1" 744 1087 basechar 0
AnchorPoint: "Anchor-0" 772 -460 basechar 0
LayerCount: 2
Fore
SplineSet
479 -442 m 0,0,1
 335 -442 335 -442 243 -405.5 c 128,-1,2
 151 -369 151 -369 107.5 -304 c 128,-1,3
 64 -239 64 -239 63 -152 c 0,4,5
 63 -67 63 -67 103.5 -3 c 128,-1,6
 144 61 144 61 227.5 97.5 c 128,-1,7
 311 134 311 134 439 134 c 2,8,-1
 1251 134 l 1,9,-1
 1251 -110 l 1,10,-1
 485 -110 l 2,11,12
 451 -110 451 -110 419 -118 c 128,-1,13
 387 -126 387 -126 387 -166 c 0,14,15
 386 -203 386 -203 413 -212.5 c 128,-1,16
 440 -222 440 -222 473 -222 c 0,17,18
 525 -222 525 -222 534.5 -196.5 c 128,-1,19
 544 -171 544 -171 544 -126 c 2,20,-1
 544 254 l 1,21,-1
 945 254 l 1,22,-1
 945 -18 l 2,23,24
 945 -97 945 -97 926.5 -173 c 128,-1,25
 908 -249 908 -249 858 -309.5 c 128,-1,26
 808 -370 808 -370 716.5 -406 c 128,-1,27
 625 -442 625 -442 479 -442 c 0,0,1
544 0 m 1,28,-1
 544 1087 l 1,29,-1
 945 1087 l 1,30,-1
 945 0 l 1,31,-1
 544 0 l 1,28,-1
EndSplineSet
EndChar

StartChar: k
Encoding: 107 107 729
Width: 1223
GlyphClass: 2
Flags: W
AnchorPoint: "Anchor-1" 295 1490 basechar 0
AnchorPoint: "Anchor-0" 621 0 basechar 0
LayerCount: 2
Fore
SplineSet
453 252 m 1,0,-1
 453 727 l 1,1,-1
 504 727 l 1,2,-1
 774 1087 l 1,3,-1
 1225 1087 l 1,4,-1
 775 516 l 1,5,-1
 662 516 l 1,6,-1
 453 252 l 1,0,-1
94 0 m 1,7,-1
 94 1490 l 1,8,-1
 495 1490 l 1,9,-1
 495 0 l 1,10,-1
 94 0 l 1,7,-1
780 0 m 1,11,-1
 526 427 l 1,12,-1
 786 709 l 1,13,-1
 1237 0 l 1,14,-1
 780 0 l 1,11,-1
EndSplineSet
Substitution2: "'sups' Superscript in Latin lookup 39 subtable" k.sups
Substitution2: "'subs' Subscript in Latin lookup 38 subtable" k.subs
Substitution2: "'sinf' Scientific Inferiors in Latin lookup 18 subtable" k.subs
AlternateSubs2: "'aalt' Access All Alternates in Latin lookup 1 subtable" k.sups k.subs
EndChar

StartChar: uni0199
Encoding: 409 409 730
Width: 1223
GlyphClass: 2
Flags: W
AnchorPoint: "Anchor-1" 295 1087 basechar 0
AnchorPoint: "Anchor-0" 621 0 basechar 0
LayerCount: 2
Fore
SplineSet
94 836 m 1,0,-1
 94 1124 l 2,1,2
 94 1311 94 1311 197 1404 c 128,-1,3
 300 1497 300 1497 510 1497 c 0,4,5
 572 1497 572 1497 625.5 1494.5 c 128,-1,6
 679 1492 679 1492 717 1486 c 1,7,-1
 717 1192 l 1,8,9
 694 1194 694 1194 662 1195 c 128,-1,10
 630 1196 630 1196 592 1196 c 0,11,12
 541 1196 541 1196 518 1176.5 c 128,-1,13
 495 1157 495 1157 495 1113 c 2,14,-1
 495 836 l 1,15,-1
 94 836 l 1,0,-1
453 252 m 1,16,-1
 453 727 l 1,17,-1
 504 727 l 1,18,-1
 774 1087 l 1,19,-1
 1225 1087 l 1,20,-1
 775 516 l 1,21,-1
 662 516 l 1,22,-1
 453 252 l 1,16,-1
94 0 m 1,23,-1
 94 1087 l 1,24,-1
 495 1087 l 1,25,-1
 495 0 l 1,26,-1
 94 0 l 1,23,-1
780 0 m 1,27,-1
 526 427 l 1,28,-1
 786 709 l 1,29,-1
 1237 0 l 1,30,-1
 780 0 l 1,27,-1
EndSplineSet
EndChar

StartChar: kturn
Encoding: 670 670 736
Width: 1223
GlyphClass: 2
Flags: W
AnchorPoint: "Anchor-1" 616 1087 basechar 0
AnchorPoint: "Anchor-0" 942 -372 basechar 0
LayerCount: 2
Fore
SplineSet
770 835 m 1,0,-1
 770 360 l 1,1,-1
 719 360 l 1,2,-1
 449 0 l 1,3,-1
 -2 0 l 1,4,-1
 448 573 l 1,5,-1
 561 573 l 1,6,-1
 770 835 l 1,0,-1
1129 1087 m 1,7,-1
 1129 -403 l 1,8,-1
 728 -403 l 1,9,-1
 728 1087 l 1,10,-1
 1129 1087 l 1,7,-1
443 1087 m 1,11,-1
 697 662 l 1,12,-1
 437 378 l 1,13,-1
 -14 1087 l 1,14,-1
 443 1087 l 1,11,-1
EndSplineSet
EndChar

StartChar: k.base
Encoding: 60951 60951 737
Width: 1223
GlyphClass: 2
Flags: W
AnchorPoint: "Anchor-1" 295 1087 basechar 0
AnchorPoint: "Anchor-0" 621 0 basechar 0
LayerCount: 2
Fore
SplineSet
453 252 m 1,0,-1
 453 727 l 1,1,-1
 504 727 l 1,2,-1
 774 1087 l 1,3,-1
 1225 1087 l 1,4,-1
 775 516 l 1,5,-1
 662 516 l 1,6,-1
 453 252 l 1,0,-1
94 0 m 1,7,-1
 94 1087 l 1,8,-1
 495 1087 l 1,9,-1
 495 0 l 1,10,-1
 94 0 l 1,7,-1
780 0 m 1,11,-1
 526 427 l 1,12,-1
 786 709 l 1,13,-1
 1237 0 l 1,14,-1
 780 0 l 1,11,-1
EndSplineSet
EndChar

StartChar: l
Encoding: 1114124 -1 738
Width: 589
GlyphClass: 2
Flags: W
AnchorPoint: "Anchor-1" 295 1490 basechar 0
AnchorPoint: "Anchor-0" 294 0 basechar 0
LayerCount: 2
Fore
SplineSet
495 1490 m 1,0,-1
 495 0 l 1,1,-1
 94 0 l 1,2,-1
 94 1490 l 1,3,-1
 495 1490 l 1,0,-1
EndSplineSet
Substitution2: "'smcp' Lowercase to Small Capitals in Latin lookup 69 subtable" l.sc
Substitution2: "'c2sc' Capitals to Small Capitals in Latin lookup 68 subtable" l.sc
Substitution2: "'cv05' Character Variants 05 in Latin lookup 59 subtable" l.ss02
Substitution2: "'ss04' Style Set 4 in Latin lookup 50 subtable" l.ss02
Substitution2: "'ss02' Style Set 2 in Latin lookup 48 subtable" l.ss02
Substitution2: "'salt' Stylistic Alternatives in Latin lookup 46 subtable" l.ss02
Substitution2: "'sups' Superscript in Latin lookup 39 subtable" l.sups
Substitution2: "'subs' Subscript in Latin lookup 38 subtable" l.subs
Substitution2: "'sinf' Scientific Inferiors in Latin lookup 18 subtable" l.subs
AlternateSubs2: "'aalt' Access All Alternates in Latin lookup 1 subtable" l.sc l.sups l.subs
EndChar

StartChar: lrthook
Encoding: 621 621 742
Width: 589
GlyphClass: 2
Flags: W
AnchorPoint: "Anchor-1" 295 1490 basechar 0
AnchorPoint: "Anchor-0" 294 0 basechar 0
LayerCount: 2
Fore
SplineSet
507 -429 m 0,0,1
 297 -429 297 -429 195.5 -335.5 c 128,-1,2
 94 -242 94 -242 94 -55 c 2,3,-1
 94 0 l 1,4,-1
 495 0 l 1,5,-1
 495 -44 l 2,6,7
 495 -89 495 -89 517 -108.5 c 128,-1,8
 539 -128 539 -128 589 -128 c 0,9,10
 626 -128 626 -128 658.5 -127 c 128,-1,11
 691 -126 691 -126 715 -124 c 1,12,-1
 715 -417 l 1,13,14
 676 -423 676 -423 622.5 -426 c 128,-1,15
 569 -429 569 -429 507 -429 c 0,0,1
495 1490 m 1,16,-1
 495 0 l 1,17,-1
 94 0 l 1,18,-1
 94 1490 l 1,19,-1
 495 1490 l 1,16,-1
EndSplineSet
EndChar

StartChar: uni026C
Encoding: 1114128 -1 743
Width: 1100
Flags: W
LayerCount: 2
Fore
SplineSet
1081 488 m 1,0,-1
 345 488 l 2,1,2
 226 488 226 488 146.5 525 c 128,-1,3
 67 562 67 562 26.5 627 c 128,-1,4
 -14 692 -14 692 -14 777 c 0,5,6
 -14 870 -14 870 31.5 943 c 128,-1,7
 77 1016 77 1016 166.5 1058 c 128,-1,8
 256 1100 256 1100 386 1100 c 0,9,10
 491 1100 491 1100 564.5 1063 c 128,-1,11
 638 1026 638 1026 683.5 960.5 c 128,-1,12
 729 895 729 895 750 808.5 c 128,-1,13
 771 722 771 722 771 623 c 2,14,-1
 771 373 l 1,15,-1
 461 373 l 1,16,-1
 461 734 l 2,17,18
 461 785 461 785 443 813 c 128,-1,19
 425 841 425 841 390 841 c 0,20,21
 366 841 366 841 348 833.5 c 128,-1,22
 330 826 330 826 320 814.5 c 128,-1,23
 310 803 310 803 310 788 c 0,24,25
 310 767 310 767 330 750.5 c 128,-1,26
 350 734 350 734 391 734 c 2,27,-1
 1081 734 l 1,28,-1
 1081 488 l 1,0,-1
863 1490 m 1,29,-1
 863 0 l 1,30,-1
 461 0 l 1,31,-1
 461 1490 l 1,32,-1
 863 1490 l 1,29,-1
EndSplineSet
Substitution2: "'cv05' Character Variants 05 in Latin lookup 59 subtable" uni026C.ss02
Substitution2: "'ss04' Style Set 4 in Latin lookup 50 subtable" uni026C.ss02
Substitution2: "'ss02' Style Set 2 in Latin lookup 48 subtable" uni026C.ss02
Substitution2: "'salt' Stylistic Alternatives in Latin lookup 46 subtable" uni026C.ss02
EndChar

StartChar: uni0234
Encoding: 564 564 744
Width: 909
GlyphClass: 2
Flags: W
AnchorPoint: "Anchor-1" 295 1490 basechar 0
AnchorPoint: "Anchor-0" 294 0 basechar 0
LayerCount: 2
Fore
SplineSet
569 -418 m 0,0,1
 405 -418 405 -418 300 -374 c 128,-1,2
 195 -330 195 -330 144.5 -240 c 128,-1,3
 94 -150 94 -150 94 -12 c 2,4,-1
 94 192 l 1,5,-1
 495 192 l 1,6,-1
 495 -122 l 2,7,8
 495 -161 495 -161 519.5 -181 c 128,-1,9
 544 -201 544 -201 581 -201 c 0,10,11
 615 -201 615 -201 637 -186 c 128,-1,12
 659 -171 659 -171 659 -144 c 0,13,14
 659 -115 659 -115 635.5 -96.5 c 128,-1,15
 612 -78 612 -78 562 -78 c 0,16,17
 532 -78 532 -78 498.5 -87.5 c 128,-1,18
 465 -97 465 -97 414 -126 c 128,-1,19
 363 -155 363 -155 281 -211 c 2,20,-1
 -36 -430 l 1,21,-1
 -202 -207 l 1,22,-1
 133 23 l 2,23,24
 212 75 212 75 315.5 118.5 c 128,-1,25
 419 162 419 162 543 162 c 0,26,27
 752 162 752 162 869 69 c 128,-1,28
 986 -24 986 -24 986 -162 c 0,29,30
 986 -288 986 -288 880 -353 c 128,-1,31
 774 -418 774 -418 569 -418 c 0,0,1
495 1490 m 1,32,-1
 495 0 l 1,33,-1
 94 0 l 1,34,-1
 94 1490 l 1,35,-1
 495 1490 l 1,32,-1
EndSplineSet
EndChar

StartChar: l.ss02
Encoding: 57424 57424 753
AltUni2: 00006c.ffffffff.0
Width: 663
GlyphClass: 2
Flags: W
AnchorPoint: "Anchor-1" 295 1490 basechar 0
AnchorPoint: "Anchor-0" 351 0 basechar 0
LayerCount: 2
Fore
SplineSet
497 -3 m 0,0,1
 287 -3 287 -3 190.5 75 c 128,-1,2
 94 153 94 153 94 326 c 2,3,-1
 94 1490 l 1,4,-1
 495 1490 l 1,5,-1
 495 365 l 2,6,7
 495 331 495 331 514 313 c 128,-1,8
 533 295 533 295 570 295 c 0,9,10
 585 295 585 295 596.5 295.5 c 128,-1,11
 608 296 608 296 616 298 c 1,12,-1
 645 13 l 1,13,14
 619 8 619 8 581.5 2.5 c 128,-1,15
 544 -3 544 -3 497 -3 c 0,0,1
EndSplineSet
EndChar

StartChar: uni026C.ss02
Encoding: 57428 57428 757
AltUni2: 00026c.ffffffff.0
Width: 1114
GlyphClass: 2
Flags: W
AnchorPoint: "Anchor-1" 703 1490 basechar 0
AnchorPoint: "Anchor-0" 758 0 basechar 0
LayerCount: 2
Fore
SplineSet
389 528 m 2,0,1
 281 528 281 528 198 570 c 128,-1,2
 115 612 115 612 68 689 c 128,-1,3
 21 766 21 766 21 866 c 0,4,5
 21 963 21 963 62.5 1037.5 c 128,-1,6
 104 1112 104 1112 175 1154 c 128,-1,7
 246 1196 246 1196 334 1196 c 0,8,9
 449 1196 449 1196 514 1129 c 128,-1,10
 579 1062 579 1062 606 952 c 128,-1,11
 633 842 633 842 633 712 c 2,12,-1
 633 638 l 1,13,-1
 503 638 l 1,14,-1
 503 824 l 2,15,16
 503 867 503 867 477 898.5 c 128,-1,17
 451 930 451 930 409 930 c 0,18,19
 378 930 378 930 360.5 914 c 128,-1,20
 343 898 343 898 343 870 c 0,21,22
 343 841 343 841 365 824.5 c 128,-1,23
 387 808 387 808 425 808 c 2,24,-1
 1078 816 l 1,25,-1
 1078 528 l 1,26,-1
 389 528 l 2,0,1
904 -3 m 0,27,28
 694 -3 694 -3 598.5 75 c 128,-1,29
 503 153 503 153 503 326 c 2,30,-1
 503 1490 l 1,31,-1
 904 1490 l 1,32,-1
 904 365 l 2,33,34
 904 331 904 331 923 313 c 128,-1,35
 942 295 942 295 977 295 c 0,36,37
 993 295 993 295 1004.5 295.5 c 128,-1,38
 1016 296 1016 296 1025 298 c 1,39,-1
 1054 13 l 1,40,41
 1027 8 1027 8 989 2.5 c 128,-1,42
 951 -3 951 -3 904 -3 c 0,27,28
EndSplineSet
EndChar

StartChar: l.sc
Encoding: 60952 60952 767
Width: 994
Flags: W
LayerCount: 2
Fore
SplineSet
94 0 m 1,0,-1
 94 1087 l 1,1,-1
 495 1087 l 1,2,-1
 495 310 l 1,3,-1
 946 310 l 1,4,-1
 946 0 l 1,5,-1
 94 0 l 1,0,-1
EndSplineSet
EndChar

StartChar: m
Encoding: 109 109 768
Width: 1910
GlyphClass: 2
Flags: W
AnchorPoint: "Anchor-1" 955 1087 basechar 0
AnchorPoint: "Anchor-0" 956 0 basechar 0
LayerCount: 2
Fore
SplineSet
94 0 m 1,0,-1
 94 1087 l 1,1,-1
 470 1087 l 1,2,-1
 483 808 l 1,3,-1
 462 808 l 1,4,5
 488 914 488 914 539.5 979.5 c 128,-1,6
 591 1045 591 1045 660 1075.5 c 128,-1,7
 729 1106 729 1106 805 1106 c 0,8,9
 924 1106 924 1106 1006 1033 c 128,-1,10
 1088 960 1088 960 1120 792 c 1,11,-1
 1084 792 l 1,12,13
 1107 904 1107 904 1163.5 973 c 128,-1,14
 1220 1042 1220 1042 1297 1074 c 128,-1,15
 1374 1106 1374 1106 1457 1106 c 0,16,17
 1563 1106 1563 1106 1644 1059.5 c 128,-1,18
 1725 1013 1725 1013 1770.5 929 c 128,-1,19
 1816 845 1816 845 1816 730 c 2,20,-1
 1816 0 l 1,21,-1
 1416 0 l 1,22,-1
 1416 630 l 2,23,24
 1416 701 1416 701 1378.5 743 c 128,-1,25
 1341 785 1341 785 1279 785 c 0,26,27
 1239 785 1239 785 1209 766 c 128,-1,28
 1179 747 1179 747 1163 712.5 c 128,-1,29
 1147 678 1147 678 1147 629 c 2,30,-1
 1147 0 l 1,31,-1
 765 0 l 1,32,-1
 765 630 l 2,33,34
 765 702 765 702 728 743.5 c 128,-1,35
 691 785 691 785 628 785 c 0,36,37
 588 785 588 785 558 766.5 c 128,-1,38
 528 748 528 748 511.5 713 c 128,-1,39
 495 678 495 678 495 629 c 2,40,-1
 495 0 l 1,41,-1
 94 0 l 1,0,-1
EndSplineSet
Substitution2: "'smcp' Lowercase to Small Capitals in Latin lookup 69 subtable" m.sc
Substitution2: "'c2sc' Capitals to Small Capitals in Latin lookup 68 subtable" m.sc
Substitution2: "'sups' Superscript in Latin lookup 39 subtable" m.sups
Substitution2: "'subs' Subscript in Latin lookup 38 subtable" m.subs
Substitution2: "'sinf' Scientific Inferiors in Latin lookup 18 subtable" m.subs
AlternateSubs2: "'aalt' Access All Alternates in Latin lookup 1 subtable" m.sups m.subs m.sc
EndChar

StartChar: uni0271
Encoding: 625 625 769
Width: 1910
GlyphClass: 2
Flags: W
AnchorPoint: "Anchor-1" 955 1087 basechar 0
AnchorPoint: "Anchor-0" 956 0 basechar 0
LayerCount: 2
Fore
SplineSet
1407 -429 m 0,0,1
 1346 -429 1346 -429 1290.5 -426 c 128,-1,2
 1235 -423 1235 -423 1197 -417 c 1,3,-1
 1197 -124 l 1,4,5
 1220 -126 1220 -126 1252.5 -127 c 128,-1,6
 1285 -128 1285 -128 1322 -128 c 0,7,8
 1373 -128 1373 -128 1394.5 -108.5 c 128,-1,9
 1416 -89 1416 -89 1416 -44 c 2,10,-1
 1416 0 l 1,11,-1
 1816 0 l 1,12,-1
 1816 -55 l 2,13,14
 1816 -242 1816 -242 1717.5 -335.5 c 128,-1,15
 1619 -429 1619 -429 1407 -429 c 0,0,1
94 0 m 1,16,-1
 94 1087 l 1,17,-1
 470 1087 l 1,18,-1
 483 808 l 1,19,-1
 462 808 l 1,20,21
 488 914 488 914 539.5 979.5 c 128,-1,22
 591 1045 591 1045 660 1075.5 c 128,-1,23
 729 1106 729 1106 805 1106 c 0,24,25
 924 1106 924 1106 1006 1033 c 128,-1,26
 1088 960 1088 960 1120 792 c 1,27,-1
 1084 792 l 1,28,29
 1107 904 1107 904 1163.5 973 c 128,-1,30
 1220 1042 1220 1042 1297 1074 c 128,-1,31
 1374 1106 1374 1106 1458 1106 c 0,32,33
 1564 1106 1564 1106 1644.5 1059.5 c 128,-1,34
 1725 1013 1725 1013 1770.5 929 c 128,-1,35
 1816 845 1816 845 1816 730 c 2,36,-1
 1816 0 l 1,37,-1
 1416 0 l 1,38,-1
 1416 630 l 2,39,40
 1416 702 1416 702 1378.5 743.5 c 128,-1,41
 1341 785 1341 785 1280 785 c 0,42,43
 1239 785 1239 785 1209 766.5 c 128,-1,44
 1179 748 1179 748 1163 713 c 128,-1,45
 1147 678 1147 678 1147 629 c 2,46,-1
 1147 0 l 1,47,-1
 765 0 l 1,48,-1
 765 630 l 2,49,50
 765 702 765 702 728 743.5 c 128,-1,51
 691 785 691 785 629 785 c 0,52,53
 588 785 588 785 558 766.5 c 128,-1,54
 528 748 528 748 511.5 713 c 128,-1,55
 495 678 495 678 495 629 c 2,56,-1
 495 0 l 1,57,-1
 94 0 l 1,16,-1
EndSplineSet
EndChar

StartChar: mturn
Encoding: 623 623 770
Width: 1910
GlyphClass: 2
Flags: W
AnchorPoint: "Anchor-1" 956 1087 basechar 0
AnchorPoint: "Anchor-0" 955 0 basechar 0
LayerCount: 2
Fore
SplineSet
1816 1087 m 1,0,-1
 1816 0 l 1,1,-1
 1441 0 l 1,2,-1
 1428 279 l 1,3,-1
 1450 279 l 1,4,5
 1425 174 1425 174 1373 108 c 128,-1,6
 1321 42 1321 42 1251.5 11.5 c 128,-1,7
 1182 -19 1182 -19 1105 -19 c 0,8,9
 988 -19 988 -19 905.5 54.5 c 128,-1,10
 823 128 823 128 791 295 c 1,11,-1
 827 295 l 1,12,13
 804 185 804 185 747.5 115.5 c 128,-1,14
 691 46 691 46 614 13.5 c 128,-1,15
 537 -19 537 -19 454 -19 c 0,16,17
 347 -19 347 -19 266 27.5 c 128,-1,18
 185 74 185 74 139.5 159 c 128,-1,19
 94 244 94 244 94 357 c 2,20,-1
 94 1087 l 1,21,-1
 496 1087 l 1,22,-1
 496 459 l 2,23,24
 496 386 496 386 532.5 344 c 128,-1,25
 569 302 569 302 632 302 c 0,26,27
 673 302 673 302 702.5 321.5 c 128,-1,28
 732 341 732 341 748.5 375.5 c 128,-1,29
 765 410 765 410 765 458 c 2,30,-1
 765 1087 l 1,31,-1
 1147 1087 l 1,32,-1
 1147 459 l 2,33,34
 1147 386 1147 386 1184 344 c 128,-1,35
 1221 302 1221 302 1281 302 c 0,36,37
 1323 302 1323 302 1353 321.5 c 128,-1,38
 1383 341 1383 341 1399 375.5 c 128,-1,39
 1415 410 1415 410 1415 458 c 2,40,-1
 1415 1087 l 1,41,-1
 1816 1087 l 1,0,-1
EndSplineSet
EndChar

StartChar: mturndescend
Encoding: 624 624 771
Width: 1910
GlyphClass: 2
Flags: W
AnchorPoint: "Anchor-1" 956 1087 basechar 0
AnchorPoint: "Anchor-0" 955 0 basechar 0
LayerCount: 2
Fore
SplineSet
1434 -418 m 1,0,-1
 1434 0 l 1,1,-1
 1816 0 l 1,2,-1
 1816 -418 l 1,3,-1
 1434 -418 l 1,0,-1
1816 1087 m 1,4,-1
 1816 0 l 1,5,-1
 1441 0 l 1,6,-1
 1428 279 l 1,7,-1
 1450 279 l 1,8,9
 1425 174 1425 174 1373 108 c 128,-1,10
 1321 42 1321 42 1251.5 11.5 c 128,-1,11
 1182 -19 1182 -19 1105 -19 c 0,12,13
 988 -19 988 -19 905.5 54.5 c 128,-1,14
 823 128 823 128 791 295 c 1,15,-1
 827 295 l 1,16,17
 804 185 804 185 747.5 115.5 c 128,-1,18
 691 46 691 46 614 13.5 c 128,-1,19
 537 -19 537 -19 454 -19 c 0,20,21
 347 -19 347 -19 266 27.5 c 128,-1,22
 185 74 185 74 139.5 159 c 128,-1,23
 94 244 94 244 94 357 c 2,24,-1
 94 1087 l 1,25,-1
 496 1087 l 1,26,-1
 496 459 l 2,27,28
 496 386 496 386 532.5 344 c 128,-1,29
 569 302 569 302 632 302 c 0,30,31
 673 302 673 302 702.5 321.5 c 128,-1,32
 732 341 732 341 748.5 375.5 c 128,-1,33
 765 410 765 410 765 458 c 2,34,-1
 765 1087 l 1,35,-1
 1147 1087 l 1,36,-1
 1147 459 l 2,37,38
 1147 386 1147 386 1184 344 c 128,-1,39
 1221 302 1221 302 1281 302 c 0,40,41
 1323 302 1323 302 1353 321.5 c 128,-1,42
 1383 341 1383 341 1399 375.5 c 128,-1,43
 1415 410 1415 410 1415 458 c 2,44,-1
 1415 1087 l 1,45,-1
 1816 1087 l 1,4,-1
EndSplineSet
EndChar

StartChar: n
Encoding: 110 110 775
Width: 1298
GlyphClass: 2
Flags: W
AnchorPoint: "Anchor-1" 649 1087 basechar 0
AnchorPoint: "Anchor-0" 649 0 basechar 0
LayerCount: 2
Fore
SplineSet
495 594 m 2,0,-1
 495 0 l 1,1,-1
 94 0 l 1,2,-1
 94 1087 l 1,3,-1
 481 1087 l 1,4,-1
 484 799 l 1,5,-1
 453 799 l 1,6,7
 496 932 496 932 585 1019 c 128,-1,8
 674 1106 674 1106 831 1106 c 0,9,10
 950 1106 950 1106 1033 1054 c 128,-1,11
 1116 1002 1116 1002 1160 908 c 128,-1,12
 1204 814 1204 814 1204 689 c 2,13,-1
 1204 0 l 1,14,-1
 803 0 l 1,15,-1
 803 603 l 2,16,17
 803 684 803 684 763 729 c 128,-1,18
 723 774 723 774 650 774 c 0,19,20
 602 774 602 774 567.5 753.5 c 128,-1,21
 533 733 533 733 514 693 c 128,-1,22
 495 653 495 653 495 594 c 2,0,-1
EndSplineSet
Substitution2: "'smcp' Lowercase to Small Capitals in Latin lookup 69 subtable" n.sc
Substitution2: "'c2sc' Capitals to Small Capitals in Latin lookup 68 subtable" n.sc
Substitution2: "'sups' Superscript in Latin lookup 39 subtable" n.sups
Substitution2: "'subs' Subscript in Latin lookup 38 subtable" n.subs
Substitution2: "'numr' Numerators in Latin lookup 19 subtable" n.numr
Substitution2: "'sinf' Scientific Inferiors in Latin lookup 18 subtable" n.subs
AlternateSubs2: "'aalt' Access All Alternates in Latin lookup 1 subtable" n.sc n.numr n.sups n.subs
EndChar

StartChar: nrthook
Encoding: 627 627 777
Width: 1298
GlyphClass: 2
Flags: W
AnchorPoint: "Anchor-1" 649 1087 basechar 0
AnchorPoint: "Anchor-0" 649 0 basechar 0
LayerCount: 2
Fore
SplineSet
1217 -429 m 0,0,1
 1005 -429 1005 -429 904.5 -335.5 c 128,-1,2
 804 -242 804 -242 804 -55 c 2,3,-1
 804 0 l 1,4,-1
 1205 0 l 1,5,-1
 1205 -44 l 2,6,7
 1205 -89 1205 -89 1226.5 -108.5 c 128,-1,8
 1248 -128 1248 -128 1298 -128 c 0,9,10
 1336 -128 1336 -128 1367.5 -127 c 128,-1,11
 1399 -126 1399 -126 1423 -124 c 1,12,-1
 1423 -417 l 1,13,14
 1385 -423 1385 -423 1331.5 -426 c 128,-1,15
 1278 -429 1278 -429 1217 -429 c 0,0,1
495 594 m 2,16,-1
 495 0 l 1,17,-1
 94 0 l 1,18,-1
 94 1087 l 1,19,-1
 481 1087 l 1,20,-1
 484 799 l 1,21,-1
 453 799 l 1,22,23
 496 932 496 932 585 1019 c 128,-1,24
 674 1106 674 1106 831 1106 c 0,25,26
 950 1106 950 1106 1033 1054 c 128,-1,27
 1116 1002 1116 1002 1160 908 c 128,-1,28
 1204 814 1204 814 1204 689 c 2,29,-1
 1204 0 l 1,30,-1
 803 0 l 1,31,-1
 803 603 l 2,32,33
 803 684 803 684 763 729 c 128,-1,34
 723 774 723 774 650 774 c 0,35,36
 602 774 602 774 567.5 753.5 c 128,-1,37
 533 733 533 733 514 693 c 128,-1,38
 495 653 495 653 495 594 c 2,16,-1
EndSplineSet
EndChar

StartChar: eng
Encoding: 331 331 778
Width: 1298
GlyphClass: 2
Flags: W
AnchorPoint: "Anchor-1" 649 1087 basechar 0
AnchorPoint: "Anchor-0" 649 0 basechar 0
LayerCount: 2
Fore
SplineSet
603 -417 m 1,0,-1
 603 -111 l 1,1,2
 634 -114 634 -114 656 -115 c 128,-1,3
 678 -116 678 -116 709 -116 c 0,4,5
 759 -116 759 -116 781 -96.5 c 128,-1,6
 803 -77 803 -77 803 -32 c 2,7,-1
 803 0 l 1,8,-1
 1205 0 l 1,9,-1
 1205 -55 l 2,10,11
 1205 -242 1205 -242 1103 -335.5 c 128,-1,12
 1001 -429 1001 -429 790 -429 c 0,13,14
 729 -429 729 -429 685.5 -426 c 128,-1,15
 642 -423 642 -423 603 -417 c 1,0,-1
495 594 m 2,16,-1
 495 0 l 1,17,-1
 94 0 l 1,18,-1
 94 1087 l 1,19,-1
 481 1087 l 1,20,-1
 484 799 l 1,21,-1
 453 799 l 1,22,23
 496 932 496 932 585 1019 c 128,-1,24
 674 1106 674 1106 831 1106 c 0,25,26
 950 1106 950 1106 1033 1054 c 128,-1,27
 1116 1002 1116 1002 1160 908 c 128,-1,28
 1204 814 1204 814 1204 689 c 2,29,-1
 1204 0 l 1,30,-1
 803 0 l 1,31,-1
 803 603 l 2,32,33
 803 684 803 684 763 729 c 128,-1,34
 723 774 723 774 650 774 c 0,35,36
 602 774 602 774 567.5 753.5 c 128,-1,37
 533 733 533 733 514 693 c 128,-1,38
 495 653 495 653 495 594 c 2,16,-1
EndSplineSet
EndChar

StartChar: uni0235
Encoding: 565 565 779
Width: 1618
GlyphClass: 2
Flags: W
AnchorPoint: "Anchor-1" 649 1087 basechar 0
AnchorPoint: "Anchor-0" 649 0 basechar 0
LayerCount: 2
Fore
SplineSet
1279 -418 m 0,0,1
 1115 -418 1115 -418 1009.5 -374 c 128,-1,2
 904 -330 904 -330 854 -240 c 128,-1,3
 804 -150 804 -150 804 -12 c 2,4,-1
 804 192 l 1,5,-1
 1205 192 l 1,6,-1
 1205 -122 l 2,7,8
 1205 -161 1205 -161 1228.5 -181 c 128,-1,9
 1252 -201 1252 -201 1291 -201 c 0,10,11
 1323 -201 1323 -201 1346 -186 c 128,-1,12
 1369 -171 1369 -171 1369 -144 c 0,13,14
 1369 -115 1369 -115 1344.5 -96.5 c 128,-1,15
 1320 -78 1320 -78 1270 -78 c 0,16,17
 1242 -78 1242 -78 1208.5 -87.5 c 128,-1,18
 1175 -97 1175 -97 1124 -126 c 128,-1,19
 1073 -155 1073 -155 991 -211 c 2,20,-1
 672 -430 l 1,21,-1
 506 -207 l 1,22,-1
 843 23 l 2,23,24
 920 75 920 75 1024.5 118.5 c 128,-1,25
 1129 162 1129 162 1253 162 c 0,26,27
 1462 162 1462 162 1578 69 c 128,-1,28
 1694 -24 1694 -24 1694 -162 c 0,29,30
 1694 -288 1694 -288 1589 -353 c 128,-1,31
 1484 -418 1484 -418 1279 -418 c 0,0,1
495 594 m 2,32,-1
 495 0 l 1,33,-1
 94 0 l 1,34,-1
 94 1087 l 1,35,-1
 481 1087 l 1,36,-1
 484 799 l 1,37,-1
 453 799 l 1,38,39
 496 932 496 932 585 1019 c 128,-1,40
 674 1106 674 1106 831 1106 c 0,41,42
 950 1106 950 1106 1033 1054 c 128,-1,43
 1116 1002 1116 1002 1160 908 c 128,-1,44
 1204 814 1204 814 1204 689 c 2,45,-1
 1204 0 l 1,46,-1
 803 0 l 1,47,-1
 803 603 l 2,48,49
 803 684 803 684 763 729 c 128,-1,50
 723 774 723 774 650 774 c 0,51,52
 602 774 602 774 567.5 753.5 c 128,-1,53
 533 733 533 733 514 693 c 128,-1,54
 495 653 495 653 495 594 c 2,32,-1
EndSplineSet
EndChar

StartChar: nlfthook
Encoding: 626 626 780
Width: 1298
GlyphClass: 2
Flags: W
AnchorPoint: "Anchor-1" 649 1087 basechar 0
AnchorPoint: "Anchor-0" 649 0 basechar 0
LayerCount: 2
Fore
SplineSet
87 -429 m 0,0,1
 25 -429 25 -429 -30.5 -426 c 128,-1,2
 -86 -423 -86 -423 -125 -417 c 1,3,-1
 -125 -124 l 1,4,5
 -100 -126 -100 -126 -68.5 -127 c 128,-1,6
 -37 -128 -37 -128 1 -128 c 0,7,8
 51 -128 51 -128 72.5 -108.5 c 128,-1,9
 94 -89 94 -89 94 -44 c 2,10,-1
 94 0 l 1,11,-1
 496 0 l 1,12,-1
 496 -55 l 2,13,14
 496 -242 496 -242 396.5 -335.5 c 128,-1,15
 297 -429 297 -429 87 -429 c 0,0,1
495 594 m 2,16,-1
 495 0 l 1,17,-1
 94 0 l 1,18,-1
 94 1087 l 1,19,-1
 481 1087 l 1,20,-1
 484 799 l 1,21,-1
 453 799 l 1,22,23
 496 932 496 932 585 1019 c 128,-1,24
 674 1106 674 1106 831 1106 c 0,25,26
 950 1106 950 1106 1033 1054 c 128,-1,27
 1116 1002 1116 1002 1160 908 c 128,-1,28
 1204 814 1204 814 1204 689 c 2,29,-1
 1204 0 l 1,30,-1
 803 0 l 1,31,-1
 803 603 l 2,32,33
 803 684 803 684 763 729 c 128,-1,34
 723 774 723 774 650 774 c 0,35,36
 602 774 602 774 567.5 753.5 c 128,-1,37
 533 733 533 733 514 693 c 128,-1,38
 495 653 495 653 495 594 c 2,16,-1
EndSplineSet
EndChar

StartChar: n.sc
Encoding: 60953 60953 791
Width: 1308
GlyphClass: 2
Flags: W
AnchorPoint: "Anchor-1" 655 1087 basechar 0
AnchorPoint: "Anchor-0" 655 0 basechar 0
LayerCount: 2
Fore
SplineSet
94 0 m 1,0,-1
 94 1087 l 1,1,-1
 463 1087 l 1,2,-1
 675 777 l 2,3,4
 742 676 742 676 792.5 588 c 128,-1,5
 843 500 843 500 888 420 c 1,6,-1
 835 420 l 1,7,8
 834 480 834 480 833 534.5 c 128,-1,9
 832 589 832 589 831.5 647 c 128,-1,10
 831 705 831 705 831 777 c 2,11,-1
 831 1087 l 1,12,-1
 1214 1087 l 1,13,-1
 1214 0 l 1,14,-1
 846 0 l 1,15,-1
 634 313 l 2,16,17
 567 412 567 412 516.5 500 c 128,-1,18
 466 588 466 588 420 668 c 1,19,-1
 474 668 l 1,20,21
 476 579 476 579 477 499 c 128,-1,22
 478 419 478 419 478 313 c 2,23,-1
 478 0 l 1,24,-1
 94 0 l 1,0,-1
EndSplineSet
EndChar

StartChar: o
Encoding: 111 111 792
Width: 1262
GlyphClass: 2
Flags: W
AnchorPoint: "Anchor-4" 1208 542 basechar 0
AnchorPoint: "Anchor-1" 632 1087 basechar 0
AnchorPoint: "Anchor-0" 632 0 basechar 0
LayerCount: 2
Fore
SplineSet
632 -22 m 0,0,1
 456 -22 456 -22 326 48.5 c 128,-1,2
 196 119 196 119 125 245.5 c 128,-1,3
 54 372 54 372 54 542 c 0,4,5
 54 713 54 713 125 839.5 c 128,-1,6
 196 966 196 966 326 1036 c 128,-1,7
 456 1106 456 1106 632 1106 c 0,8,9
 809 1106 809 1106 938.5 1036 c 128,-1,10
 1068 966 1068 966 1138 839.5 c 128,-1,11
 1208 713 1208 713 1208 542 c 0,12,13
 1208 372 1208 372 1138 245.5 c 128,-1,14
 1068 119 1068 119 938.5 48.5 c 128,-1,15
 809 -22 809 -22 632 -22 c 0,0,1
632 285 m 256,16,17
 682 285 682 285 720 315 c 128,-1,18
 758 345 758 345 779.5 403 c 128,-1,19
 801 461 801 461 801 543 c 0,20,21
 801 627 801 627 779.5 684 c 128,-1,22
 758 741 758 741 720 771 c 128,-1,23
 682 801 682 801 632 801 c 256,24,25
 582 801 582 801 543.5 771.5 c 128,-1,26
 505 742 505 742 483.5 685 c 128,-1,27
 462 628 462 628 462 543 c 0,28,29
 462 460 462 460 483.5 402.5 c 128,-1,30
 505 345 505 345 543.5 315 c 128,-1,31
 582 285 582 285 632 285 c 256,16,17
EndSplineSet
Substitution2: "Single Substitution lookup 44 subtable" ordmasculine
Substitution2: "'sups' Superscript in Latin lookup 39 subtable" o.sups
Substitution2: "'subs' Subscript in Latin lookup 38 subtable" o.subs
Substitution2: "'sinf' Scientific Inferiors in Latin lookup 18 subtable" o.subs
AlternateSubs2: "'aalt' Access All Alternates in Latin lookup 1 subtable" ordmasculine o.sups o.subs
EndChar

StartChar: ohorn
Encoding: 417 417 796
Width: 1262
GlyphClass: 2
Flags: W
AnchorPoint: "Anchor-4" 1208 542 basechar 0
AnchorPoint: "Anchor-1" 632 1087 basechar 0
AnchorPoint: "Anchor-0" 632 0 basechar 0
LayerCount: 2
Fore
SplineSet
632 903 m 1,0,-1
 632 1106 l 1,1,2
 667 1106 667 1106 707.5 1103.5 c 128,-1,3
 748 1101 748 1101 786.5 1097.5 c 128,-1,4
 825 1094 825 1094 858.5 1091 c 128,-1,5
 892 1088 892 1088 914 1088 c 0,6,7
 970 1088 970 1088 970 1139 c 2,8,-1
 970 1331 l 1,9,-1
 1270 1331 l 1,10,-1
 1270 1155 l 2,11,12
 1270 1040 1270 1040 1191 971.5 c 128,-1,13
 1112 903 1112 903 979 903 c 0,14,15
 896 903 896 903 805 903 c 128,-1,16
 714 903 714 903 632 903 c 1,0,-1
632 -22 m 0,17,18
 456 -22 456 -22 326 48.5 c 128,-1,19
 196 119 196 119 125 245.5 c 128,-1,20
 54 372 54 372 54 542 c 0,21,22
 54 713 54 713 125 839.5 c 128,-1,23
 196 966 196 966 326 1036 c 128,-1,24
 456 1106 456 1106 632 1106 c 0,25,26
 809 1106 809 1106 938.5 1036 c 128,-1,27
 1068 966 1068 966 1138 839.5 c 128,-1,28
 1208 713 1208 713 1208 542 c 0,29,30
 1208 372 1208 372 1138 245.5 c 128,-1,31
 1068 119 1068 119 938.5 48.5 c 128,-1,32
 809 -22 809 -22 632 -22 c 0,17,18
632 285 m 256,33,34
 682 285 682 285 720 315 c 128,-1,35
 758 345 758 345 779.5 403 c 128,-1,36
 801 461 801 461 801 543 c 0,37,38
 801 627 801 627 779.5 684 c 128,-1,39
 758 741 758 741 720 771 c 128,-1,40
 682 801 682 801 632 801 c 256,41,42
 582 801 582 801 543.5 771.5 c 128,-1,43
 505 742 505 742 483.5 685 c 128,-1,44
 462 628 462 628 462 543 c 0,45,46
 462 460 462 460 483.5 402.5 c 128,-1,47
 505 345 505 345 543.5 315 c 128,-1,48
 582 285 582 285 632 285 c 256,33,34
EndSplineSet
EndChar

StartChar: uni1EE1
Encoding: 7905 7905 826
Width: 1262
GlyphClass: 2
Flags: W
AnchorPoint: "Anchor-4" 1208 542 basechar 0
AnchorPoint: "Anchor-1" 635 1496 basechar 0
AnchorPoint: "Anchor-0" 632 0 basechar 0
LayerCount: 2
Fore
SplineSet
632 -22 m 0,0,1
 456 -22 456 -22 326 48.5 c 128,-1,2
 196 119 196 119 125 245.5 c 128,-1,3
 54 372 54 372 54 542 c 0,4,5
 54 713 54 713 125 839.5 c 128,-1,6
 196 966 196 966 326 1036 c 128,-1,7
 456 1106 456 1106 632 1106 c 0,8,9
 809 1106 809 1106 938.5 1036 c 128,-1,10
 1068 966 1068 966 1138 839.5 c 128,-1,11
 1208 713 1208 713 1208 542 c 0,12,13
 1208 372 1208 372 1138 245.5 c 128,-1,14
 1068 119 1068 119 938.5 48.5 c 128,-1,15
 809 -22 809 -22 632 -22 c 0,0,1
632 285 m 256,16,17
 682 285 682 285 720 315 c 128,-1,18
 758 345 758 345 779.5 403 c 128,-1,19
 801 461 801 461 801 543 c 0,20,21
 801 627 801 627 779.5 684 c 128,-1,22
 758 741 758 741 720 771 c 128,-1,23
 682 801 682 801 632 801 c 256,24,25
 582 801 582 801 543.5 771.5 c 128,-1,26
 505 742 505 742 483.5 685 c 128,-1,27
 462 628 462 628 462 543 c 0,28,29
 462 460 462 460 483.5 402.5 c 128,-1,30
 505 345 505 345 543.5 315 c 128,-1,31
 582 285 582 285 632 285 c 256,16,17
632 903 m 1,32,-1
 632 1106 l 1,33,34
 667 1106 667 1106 707.5 1103.5 c 128,-1,35
 748 1101 748 1101 786.5 1097.5 c 128,-1,36
 825 1094 825 1094 858.5 1091 c 128,-1,37
 892 1088 892 1088 914 1088 c 0,38,39
 970 1088 970 1088 970 1139 c 2,40,-1
 970 1331 l 1,41,-1
 1270 1331 l 1,42,-1
 1270 1155 l 2,43,44
 1270 1040 1270 1040 1191 971.5 c 128,-1,45
 1112 903 1112 903 979 903 c 0,46,47
 896 903 896 903 805 903 c 128,-1,48
 714 903 714 903 632 903 c 1,32,-1
738 1261 m 0,49,50
 697 1261 697 1261 669.5 1275 c 128,-1,51
 642 1289 642 1289 621.5 1306.5 c 128,-1,52
 601 1324 601 1324 583.5 1337.5 c 128,-1,53
 566 1351 566 1351 547 1351 c 0,54,55
 522 1351 522 1351 508.5 1329.5 c 128,-1,56
 495 1308 495 1308 493 1267 c 1,57,-1
 353 1267 l 1,58,59
 356 1385 356 1385 405.5 1443 c 128,-1,60
 455 1501 455 1501 529 1501 c 0,61,62
 568 1501 568 1501 596 1487.5 c 128,-1,63
 624 1474 624 1474 645 1457 c 128,-1,64
 666 1440 666 1440 683 1427 c 128,-1,65
 700 1414 700 1414 719 1414 c 0,66,67
 749 1414 749 1414 761 1435.5 c 128,-1,68
 773 1457 773 1457 775 1496 c 1,69,-1
 913 1496 l 1,70,71
 911 1381 911 1381 860.5 1321 c 128,-1,72
 810 1261 810 1261 738 1261 c 0,49,50
EndSplineSet
Ligature2: "'ccmp' Glyph Composition/Decomposition in Latin lookup 6 subtable" ohorn tildecomb
EndChar

StartChar: obar
Encoding: 629 629 839
Width: 1262
GlyphClass: 2
Flags: W
AnchorPoint: "Anchor-4" 1208 542 basechar 0
AnchorPoint: "Anchor-1" 632 1087 basechar 0
AnchorPoint: "Anchor-0" 632 0 basechar 0
LayerCount: 2
Fore
SplineSet
974 623 m 1,0,-1
 974 465 l 1,1,-1
 290 465 l 1,2,-1
 290 623 l 1,3,-1
 974 623 l 1,0,-1
632 -22 m 0,4,5
 456 -22 456 -22 326 48.5 c 128,-1,6
 196 119 196 119 125 245.5 c 128,-1,7
 54 372 54 372 54 542 c 0,8,9
 54 713 54 713 125 839.5 c 128,-1,10
 196 966 196 966 326 1036 c 128,-1,11
 456 1106 456 1106 632 1106 c 0,12,13
 809 1106 809 1106 938.5 1036 c 128,-1,14
 1068 966 1068 966 1138 839.5 c 128,-1,15
 1208 713 1208 713 1208 542 c 0,16,17
 1208 372 1208 372 1138 245.5 c 128,-1,18
 1068 119 1068 119 938.5 48.5 c 128,-1,19
 809 -22 809 -22 632 -22 c 0,4,5
632 285 m 256,20,21
 682 285 682 285 720 315 c 128,-1,22
 758 345 758 345 779.5 403 c 128,-1,23
 801 461 801 461 801 543 c 0,24,25
 801 627 801 627 779.5 684 c 128,-1,26
 758 741 758 741 720 771 c 128,-1,27
 682 801 682 801 632 801 c 256,28,29
 582 801 582 801 543.5 771.5 c 128,-1,30
 505 742 505 742 483.5 685 c 128,-1,31
 462 628 462 628 462 543 c 0,32,33
 462 460 462 460 483.5 402.5 c 128,-1,34
 505 345 505 345 543.5 315 c 128,-1,35
 582 285 582 285 632 285 c 256,20,21
EndSplineSet
EndChar

StartChar: oe.sc
Encoding: 60954 60954 843
Width: 1653
Flags: W
LayerCount: 2
Fore
SplineSet
609 0 m 2,0,1
 429 0 429 0 305 70 c 128,-1,2
 181 140 181 140 117.5 263.5 c 128,-1,3
 54 387 54 387 54 544 c 2,4,-1
 54 550 l 2,5,6
 54 708 54 708 117.5 829 c 128,-1,7
 181 950 181 950 304 1018.5 c 128,-1,8
 427 1087 427 1087 606 1087 c 2,9,-1
 1014 1087 l 1,10,-1
 1014 802 l 1,11,-1
 639 802 l 2,12,13
 580 802 580 802 537 769.5 c 128,-1,14
 494 737 494 737 471 680 c 128,-1,15
 448 623 448 623 448 549 c 2,16,-1
 448 543 l 2,17,18
 448 470 448 470 471.5 412 c 128,-1,19
 495 354 495 354 539 321 c 128,-1,20
 583 288 583 288 643 288 c 2,21,-1
 1014 288 l 1,22,-1
 1014 0 l 1,23,-1
 609 0 l 2,0,1
988 0 m 1,24,-1
 988 288 l 1,25,-1
 1627 288 l 1,26,-1
 1627 0 l 1,27,-1
 988 0 l 1,24,-1
779 0 m 1,28,-1
 779 1087 l 1,29,-1
 1141 1087 l 1,30,-1
 1141 0 l 1,31,-1
 779 0 l 1,28,-1
988 416 m 1,32,-1
 988 682 l 1,33,-1
 1534 682 l 1,34,-1
 1534 416 l 1,35,-1
 988 416 l 1,32,-1
988 802 m 1,36,-1
 988 1087 l 1,37,-1
 1627 1087 l 1,38,-1
 1627 802 l 1,39,-1
 988 802 l 1,36,-1
EndSplineSet
EndChar

StartChar: p
Encoding: 112 112 845
Width: 1301
GlyphClass: 2
Flags: W
AnchorPoint: "Anchor-1" 684 1087 basechar 0
AnchorPoint: "Anchor-0" 297 -409 basechar 0
LayerCount: 2
Fore
SplineSet
94 -418 m 1,0,-1
 94 1087 l 1,1,-1
 491 1087 l 1,2,-1
 491 924 l 1,3,-1
 499 924 l 1,4,5
 526 978 526 978 568 1019.5 c 128,-1,6
 610 1061 610 1061 669 1083.5 c 128,-1,7
 728 1106 728 1106 803 1106 c 0,8,9
 925 1106 925 1106 1026 1041.5 c 128,-1,10
 1127 977 1127 977 1187 852 c 128,-1,11
 1247 727 1247 727 1247 544 c 0,12,13
 1247 364 1247 364 1189 238.5 c 128,-1,14
 1131 113 1131 113 1030 47 c 128,-1,15
 929 -19 929 -19 800 -19 c 0,16,17
 726 -19 726 -19 667 4.5 c 128,-1,18
 608 28 608 28 566 70.5 c 128,-1,19
 524 113 524 113 500 171 c 1,20,-1
 495 171 l 1,21,-1
 495 -418 l 1,22,-1
 94 -418 l 1,0,-1
666 292 m 0,23,24
 722 292 722 292 760 323 c 128,-1,25
 798 354 798 354 818.5 410.5 c 128,-1,26
 839 467 839 467 839 544 c 0,27,28
 839 622 839 622 818.5 678.5 c 128,-1,29
 798 735 798 735 759.5 766 c 128,-1,30
 721 797 721 797 666 797 c 0,31,32
 612 797 612 797 570.5 766 c 128,-1,33
 529 735 529 735 506 678.5 c 128,-1,34
 483 622 483 622 483 544 c 0,35,36
 483 468 483 468 506 411.5 c 128,-1,37
 529 355 529 355 570.5 323.5 c 128,-1,38
 612 292 612 292 666 292 c 0,23,24
EndSplineSet
Substitution2: "'sups' Superscript in Latin lookup 39 subtable" p.sups
Substitution2: "'subs' Subscript in Latin lookup 38 subtable" p.subs
Substitution2: "'sinf' Scientific Inferiors in Latin lookup 18 subtable" p.subs
AlternateSubs2: "'aalt' Access All Alternates in Latin lookup 1 subtable" p.sups p.subs
EndChar

StartChar: uni048F
Encoding: 1167 1167 846
Width: 1240
GlyphClass: 2
Flags: W
AnchorPoint: "Anchor-1" 696 1087 basechar 0
AnchorPoint: "Anchor-0" 309 -409 basechar 0
LayerCount: 2
Fore
SplineSet
709 488 m 1,0,-1
 1147 -52 l 1,1,-1
 1045 -122 l 1,2,-1
 609 418 l 1,3,-1
 709 488 l 1,0,-1
106 -418 m 1,4,-1
 106 1087 l 1,5,-1
 503 1087 l 1,6,-1
 503 924 l 1,7,-1
 511 924 l 1,8,9
 538 978 538 978 580 1019.5 c 128,-1,10
 622 1061 622 1061 681 1083.5 c 128,-1,11
 740 1106 740 1106 815 1106 c 0,12,13
 937 1106 937 1106 1038 1041.5 c 128,-1,14
 1139 977 1139 977 1199 852 c 128,-1,15
 1259 727 1259 727 1259 544 c 0,16,17
 1259 364 1259 364 1201 238.5 c 128,-1,18
 1143 113 1143 113 1042 47 c 128,-1,19
 941 -19 941 -19 812 -19 c 0,20,21
 738 -19 738 -19 679 4.5 c 128,-1,22
 620 28 620 28 578 70.5 c 128,-1,23
 536 113 536 113 512 171 c 1,24,-1
 507 171 l 1,25,-1
 507 -418 l 1,26,-1
 106 -418 l 1,4,-1
678 292 m 0,27,28
 734 292 734 292 772 323 c 128,-1,29
 810 354 810 354 830.5 410.5 c 128,-1,30
 851 467 851 467 851 544 c 0,31,32
 851 622 851 622 830.5 678.5 c 128,-1,33
 810 735 810 735 771.5 766 c 128,-1,34
 733 797 733 797 678 797 c 0,35,36
 624 797 624 797 582.5 766 c 128,-1,37
 541 735 541 735 518 678.5 c 128,-1,38
 495 622 495 622 495 544 c 0,39,40
 495 468 495 468 518 411.5 c 128,-1,41
 541 355 541 355 582.5 323.5 c 128,-1,42
 624 292 624 292 678 292 c 0,27,28
EndSplineSet
EndChar

StartChar: uni01A5
Encoding: 421 421 847
Width: 1301
GlyphClass: 2
Flags: W
AnchorPoint: "Anchor-1" 684 1087 basechar 0
AnchorPoint: "Anchor-0" 297 -409 basechar 0
LayerCount: 2
Fore
SplineSet
94 836 m 1,0,-1
 94 1124 l 2,1,2
 94 1311 94 1311 197 1404 c 128,-1,3
 300 1497 300 1497 510 1497 c 0,4,5
 572 1497 572 1497 625.5 1494.5 c 128,-1,6
 679 1492 679 1492 717 1486 c 1,7,-1
 717 1192 l 1,8,9
 694 1194 694 1194 662 1195 c 128,-1,10
 630 1196 630 1196 592 1196 c 0,11,12
 541 1196 541 1196 518 1176.5 c 128,-1,13
 495 1157 495 1157 495 1113 c 2,14,-1
 495 836 l 1,15,-1
 94 836 l 1,0,-1
94 -418 m 1,16,-1
 94 1087 l 1,17,-1
 491 1087 l 1,18,-1
 491 924 l 1,19,-1
 499 924 l 1,20,21
 526 978 526 978 568 1019.5 c 128,-1,22
 610 1061 610 1061 669 1083.5 c 128,-1,23
 728 1106 728 1106 803 1106 c 0,24,25
 925 1106 925 1106 1026 1041.5 c 128,-1,26
 1127 977 1127 977 1187 852 c 128,-1,27
 1247 727 1247 727 1247 544 c 0,28,29
 1247 364 1247 364 1189 238.5 c 128,-1,30
 1131 113 1131 113 1030 47 c 128,-1,31
 929 -19 929 -19 800 -19 c 0,32,33
 726 -19 726 -19 667 4.5 c 128,-1,34
 608 28 608 28 566 70.5 c 128,-1,35
 524 113 524 113 500 171 c 1,36,-1
 495 171 l 1,37,-1
 495 -418 l 1,38,-1
 94 -418 l 1,16,-1
666 292 m 0,39,40
 722 292 722 292 760 323 c 128,-1,41
 798 354 798 354 818.5 410.5 c 128,-1,42
 839 467 839 467 839 544 c 0,43,44
 839 622 839 622 818.5 678.5 c 128,-1,45
 798 735 798 735 759.5 766 c 128,-1,46
 721 797 721 797 666 797 c 0,47,48
 612 797 612 797 570.5 766 c 128,-1,49
 529 735 529 735 506 678.5 c 128,-1,50
 483 622 483 622 483 544 c 0,51,52
 483 468 483 468 506 411.5 c 128,-1,53
 529 355 529 355 570.5 323.5 c 128,-1,54
 612 292 612 292 666 292 c 0,39,40
EndSplineSet
EndChar

StartChar: q
Encoding: 113 113 851
Width: 1301
GlyphClass: 2
Flags: W
AnchorPoint: "Anchor-1" 651 1087 basechar 0
AnchorPoint: "Anchor-0" 1006 -409 basechar 0
LayerCount: 2
Fore
SplineSet
1207 -418 m 1,0,-1
 806 -418 l 1,1,-1
 806 171 l 1,2,-1
 801 171 l 1,3,4
 778 113 778 113 736 70.5 c 128,-1,5
 694 28 694 28 635.5 4.5 c 128,-1,6
 577 -19 577 -19 503 -19 c 0,7,8
 374 -19 374 -19 272.5 47 c 128,-1,9
 171 113 171 113 112.5 238.5 c 128,-1,10
 54 364 54 364 54 544 c 0,11,12
 54 727 54 727 115 852 c 128,-1,13
 176 977 176 977 276.5 1041.5 c 128,-1,14
 377 1106 377 1106 498 1106 c 0,15,16
 574 1106 574 1106 633 1083.5 c 128,-1,17
 692 1061 692 1061 734.5 1019.5 c 128,-1,18
 777 978 777 978 803 924 c 1,19,-1
 810 924 l 1,20,-1
 810 1087 l 1,21,-1
 1207 1087 l 1,22,-1
 1207 -418 l 1,0,-1
636 292 m 0,23,24
 691 292 691 292 732 323.5 c 128,-1,25
 773 355 773 355 795.5 411.5 c 128,-1,26
 818 468 818 468 818 544 c 0,27,28
 818 622 818 622 795.5 678.5 c 128,-1,29
 773 735 773 735 732 766 c 128,-1,30
 691 797 691 797 636 797 c 0,31,32
 582 797 582 797 543 766 c 128,-1,33
 504 735 504 735 484 678.5 c 128,-1,34
 464 622 464 622 464 544 c 0,35,36
 464 467 464 467 484 410.5 c 128,-1,37
 504 354 504 354 543 323 c 128,-1,38
 582 292 582 292 636 292 c 0,23,24
EndSplineSet
Substitution2: "'sups' Superscript in Latin lookup 39 subtable" q.sups
Substitution2: "'subs' Subscript in Latin lookup 38 subtable" q.subs
Substitution2: "'sinf' Scientific Inferiors in Latin lookup 18 subtable" q.subs
AlternateSubs2: "'aalt' Access All Alternates in Latin lookup 1 subtable" q.sups q.subs
EndChar

StartChar: uni02A0
Encoding: 672 672 852
Width: 1301
GlyphClass: 2
Flags: W
AnchorPoint: "Anchor-1" 651 1087 basechar 0
AnchorPoint: "Anchor-0" 1006 -409 basechar 0
LayerCount: 2
Fore
SplineSet
806 836 m 1,0,-1
 806 1124 l 2,1,2
 806 1311 806 1311 909 1404 c 128,-1,3
 1012 1497 1012 1497 1222 1497 c 0,4,5
 1284 1497 1284 1497 1337.5 1494.5 c 128,-1,6
 1391 1492 1391 1492 1429 1486 c 1,7,-1
 1429 1192 l 1,8,9
 1406 1194 1406 1194 1374 1195 c 128,-1,10
 1342 1196 1342 1196 1304 1196 c 0,11,12
 1253 1196 1253 1196 1230 1176.5 c 128,-1,13
 1207 1157 1207 1157 1207 1113 c 2,14,-1
 1207 836 l 1,15,-1
 806 836 l 1,0,-1
1207 -418 m 1,16,-1
 806 -418 l 1,17,-1
 806 171 l 1,18,-1
 801 171 l 1,19,20
 778 113 778 113 736 70.5 c 128,-1,21
 694 28 694 28 635.5 4.5 c 128,-1,22
 577 -19 577 -19 503 -19 c 0,23,24
 374 -19 374 -19 272.5 47 c 128,-1,25
 171 113 171 113 112.5 238.5 c 128,-1,26
 54 364 54 364 54 544 c 0,27,28
 54 727 54 727 115 852 c 128,-1,29
 176 977 176 977 276.5 1041.5 c 128,-1,30
 377 1106 377 1106 498 1106 c 0,31,32
 574 1106 574 1106 633 1083.5 c 128,-1,33
 692 1061 692 1061 734.5 1019.5 c 128,-1,34
 777 978 777 978 803 924 c 1,35,-1
 810 924 l 1,36,-1
 810 1087 l 1,37,-1
 1207 1087 l 1,38,-1
 1207 -418 l 1,16,-1
636 292 m 0,39,40
 691 292 691 292 732 323.5 c 128,-1,41
 773 355 773 355 795.5 411.5 c 128,-1,42
 818 468 818 468 818 544 c 0,43,44
 818 622 818 622 795.5 678.5 c 128,-1,45
 773 735 773 735 732 766 c 128,-1,46
 691 797 691 797 636 797 c 0,47,48
 582 797 582 797 543 766 c 128,-1,49
 504 735 504 735 484 678.5 c 128,-1,50
 464 622 464 622 464 544 c 0,51,52
 464 467 464 467 484 410.5 c 128,-1,53
 504 354 504 354 543 323 c 128,-1,54
 582 292 582 292 636 292 c 0,39,40
EndSplineSet
EndChar

StartChar: qrthook
Encoding: 587 587 853
Width: 1298
GlyphClass: 2
Flags: W
AnchorPoint: "Anchor-4" 1204 0 basechar 0
AnchorPoint: "Anchor-1" 647 1087 basechar 0
AnchorPoint: "Anchor-0" 652 0 basechar 0
LayerCount: 2
Fore
SplineSet
1216 -429 m 0,0,1
 1006 -429 1006 -429 906.5 -335.5 c 128,-1,2
 807 -242 807 -242 807 -55 c 2,3,-1
 807 209 l 1,4,-1
 1204 209 l 1,5,-1
 1204 -44 l 2,6,7
 1204 -89 1204 -89 1226 -108.5 c 128,-1,8
 1248 -128 1248 -128 1298 -128 c 0,9,10
 1336 -128 1336 -128 1368 -127 c 128,-1,11
 1400 -126 1400 -126 1423 -124 c 1,12,-1
 1423 -417 l 1,13,14
 1385 -423 1385 -423 1331.5 -426 c 128,-1,15
 1278 -429 1278 -429 1216 -429 c 0,0,1
502 -19 m 0,16,17
 374 -19 374 -19 273 47 c 128,-1,18
 172 113 172 113 113 238.5 c 128,-1,19
 54 364 54 364 54 544 c 0,20,21
 54 727 54 727 115 852 c 128,-1,22
 176 977 176 977 277 1041.5 c 128,-1,23
 378 1106 378 1106 499 1106 c 0,24,25
 576 1106 576 1106 634 1083 c 128,-1,26
 692 1060 692 1060 734.5 1019 c 128,-1,27
 777 978 777 978 804 924 c 1,28,-1
 810 924 l 1,29,-1
 810 1087 l 1,30,-1
 1204 1087 l 1,31,-1
 1204 0 l 1,32,-1
 810 0 l 1,33,-1
 810 171 l 1,34,-1
 804 171 l 1,35,36
 781 113 781 113 738.5 71 c 128,-1,37
 696 29 696 29 636.5 5 c 128,-1,38
 577 -19 577 -19 502 -19 c 0,16,17
636 292 m 256,39,40
 691 292 691 292 732 323.5 c 128,-1,41
 773 355 773 355 795.5 411.5 c 128,-1,42
 818 468 818 468 818 544 c 0,43,44
 818 622 818 622 795.5 678.5 c 128,-1,45
 773 735 773 735 732.5 766 c 128,-1,46
 692 797 692 797 636 797 c 0,47,48
 582 797 582 797 543 766 c 128,-1,49
 504 735 504 735 484 679 c 128,-1,50
 464 623 464 623 464 544 c 0,51,52
 464 467 464 467 484 410.5 c 128,-1,53
 504 354 504 354 542.5 323 c 128,-1,54
 581 292 581 292 636 292 c 256,39,40
EndSplineSet
EndChar

StartChar: r
Encoding: 114 114 854
Width: 871
GlyphClass: 2
Flags: W
AnchorPoint: "Anchor-1" 474 1087 basechar 0
AnchorPoint: "Anchor-0" 297 0 basechar 0
LayerCount: 2
Fore
SplineSet
94 0 m 1,0,-1
 94 1087 l 1,1,-1
 483 1087 l 1,2,-1
 483 884 l 1,3,-1
 490 884 l 1,4,5
 520 998 520 998 584 1046 c 128,-1,6
 648 1094 648 1094 746 1094 c 0,7,8
 774 1094 774 1094 799 1092 c 128,-1,9
 824 1090 824 1090 848 1087 c 1,10,-1
 848 755 l 1,11,12
 822 761 822 761 778.5 763 c 128,-1,13
 735 765 735 765 701 765 c 0,14,15
 640 765 640 765 593.5 738 c 128,-1,16
 547 711 547 711 521 661.5 c 128,-1,17
 495 612 495 612 495 544 c 2,18,-1
 495 0 l 1,19,-1
 94 0 l 1,0,-1
EndSplineSet
Substitution2: "'smcp' Lowercase to Small Capitals in Latin lookup 69 subtable" r.sc
Substitution2: "'c2sc' Capitals to Small Capitals in Latin lookup 68 subtable" r.sc
Substitution2: "'sups' Superscript in Latin lookup 39 subtable" r.sups
Substitution2: "'subs' Subscript in Latin lookup 38 subtable" r.subs
Substitution2: "'sinf' Scientific Inferiors in Latin lookup 18 subtable" r.subs
AlternateSubs2: "'aalt' Access All Alternates in Latin lookup 1 subtable" r.sc r.sups r.subs
EndChar

StartChar: rrthook
Encoding: 57437 57437 855
Width: 871
GlyphClass: 2
Flags: W
AnchorPoint: "Anchor-1" 474 1087 basechar 0
AnchorPoint: "Anchor-0" 297 0 basechar 0
LayerCount: 2
Fore
SplineSet
507 -429 m 0,0,1
 297 -429 297 -429 195.5 -335.5 c 128,-1,2
 94 -242 94 -242 94 -55 c 2,3,-1
 94 0 l 1,4,-1
 495 0 l 1,5,-1
 495 -44 l 2,6,7
 495 -89 495 -89 517 -108.5 c 128,-1,8
 539 -128 539 -128 589 -128 c 0,9,10
 626 -128 626 -128 658.5 -127 c 128,-1,11
 691 -126 691 -126 715 -124 c 1,12,-1
 715 -417 l 1,13,14
 676 -423 676 -423 622.5 -426 c 128,-1,15
 569 -429 569 -429 507 -429 c 0,0,1
94 0 m 1,16,-1
 94 1087 l 1,17,-1
 483 1087 l 1,18,-1
 483 884 l 1,19,-1
 490 884 l 1,20,21
 520 998 520 998 584 1046 c 128,-1,22
 648 1094 648 1094 746 1094 c 0,23,24
 774 1094 774 1094 799 1092 c 128,-1,25
 824 1090 824 1090 848 1087 c 1,26,-1
 848 755 l 1,27,28
 822 761 822 761 778.5 763 c 128,-1,29
 735 765 735 765 701 765 c 0,30,31
 640 765 640 765 593.5 738 c 128,-1,32
 547 711 547 711 521 661.5 c 128,-1,33
 495 612 495 612 495 544 c 2,34,-1
 495 0 l 1,35,-1
 94 0 l 1,16,-1
EndSplineSet
EndChar

StartChar: rturn
Encoding: 633 633 857
Width: 871
GlyphClass: 2
Flags: W
AnchorPoint: "Anchor-1" 581 1087 basechar 0
AnchorPoint: "Anchor-0" 440 0 basechar 0
LayerCount: 2
Fore
SplineSet
777 1087 m 1,0,-1
 777 0 l 1,1,-1
 388 0 l 1,2,-1
 388 203 l 1,3,-1
 381 203 l 1,4,5
 352 92 352 92 287.5 42.5 c 128,-1,6
 223 -7 223 -7 125 -7 c 0,7,8
 98 -7 98 -7 73 -4.5 c 128,-1,9
 48 -2 48 -2 23 2 c 1,10,-1
 23 332 l 1,11,12
 49 327 49 327 93 324.5 c 128,-1,13
 137 322 137 322 170 322 c 0,14,15
 232 322 232 322 278 349.5 c 128,-1,16
 324 377 324 377 350 426.5 c 128,-1,17
 376 476 376 476 376 543 c 2,18,-1
 376 1087 l 1,19,-1
 777 1087 l 1,0,-1
EndSplineSet
EndChar

StartChar: rturnrthook
Encoding: 635 635 858
Width: 871
GlyphClass: 2
Flags: W
AnchorPoint: "Anchor-1" 581 1087 basechar 0
AnchorPoint: "Anchor-0" 440 0 basechar 0
LayerCount: 2
Fore
SplineSet
749 -429 m 0,0,1
 569 -429 569 -429 478 -342 c 128,-1,2
 387 -255 387 -255 387 -87 c 2,3,-1
 387 0 l 1,4,-1
 776 0 l 1,5,-1
 776 -60 l 2,6,7
 776 -98 776 -98 795.5 -115.5 c 128,-1,8
 815 -133 815 -133 860 -133 c 0,9,10
 897 -133 897 -133 934.5 -132 c 128,-1,11
 972 -131 972 -131 995 -129 c 1,12,-1
 995 -417 l 1,13,14
 970 -421 970 -421 928 -423.5 c 128,-1,15
 886 -426 886 -426 838.5 -427.5 c 128,-1,16
 791 -429 791 -429 749 -429 c 0,0,1
777 1087 m 1,17,-1
 777 0 l 1,18,-1
 388 0 l 1,19,-1
 388 203 l 1,20,-1
 381 203 l 1,21,22
 352 92 352 92 287.5 42.5 c 128,-1,23
 223 -7 223 -7 125 -7 c 0,24,25
 98 -7 98 -7 73 -4.5 c 128,-1,26
 48 -2 48 -2 23 2 c 1,27,-1
 23 332 l 1,28,29
 49 327 49 327 93 324.5 c 128,-1,30
 137 322 137 322 170 322 c 0,31,32
 232 322 232 322 278 349.5 c 128,-1,33
 324 377 324 377 350 426.5 c 128,-1,34
 376 476 376 476 376 543 c 2,35,-1
 376 1087 l 1,36,-1
 777 1087 l 1,17,-1
EndSplineSet
EndChar

StartChar: rfishhookrev
Encoding: 639 639 859
Width: 832
Flags: W
LayerCount: 2
Fore
SplineSet
738 0 m 1,0,-1
 337 0 l 1,1,-1
 337 576 l 2,2,3
 337 639 337 639 315.5 682.5 c 128,-1,4
 294 726 294 726 253 749 c 128,-1,5
 212 772 212 772 155 772 c 0,6,7
 122 772 122 772 85.5 771 c 128,-1,8
 49 770 49 770 23 767 c 1,9,-1
 23 1088 l 1,10,11
 41 1090 41 1090 68 1091 c 128,-1,12
 95 1092 95 1092 125.5 1093 c 128,-1,13
 156 1094 156 1094 181 1094 c 0,14,15
 365 1094 365 1094 488.5 1039 c 128,-1,16
 612 984 612 984 675 877.5 c 128,-1,17
 738 771 738 771 738 617 c 2,18,-1
 738 0 l 1,0,-1
EndSplineSet
EndChar

StartChar: uni027E
Encoding: 638 638 860
Width: 832
Flags: W
LayerCount: 2
Fore
SplineSet
94 0 m 1,0,-1
 94 617 l 2,1,2
 94 771 94 771 157 877.5 c 128,-1,3
 220 984 220 984 344.5 1039 c 128,-1,4
 469 1094 469 1094 652 1094 c 0,5,6
 677 1094 677 1094 707.5 1093 c 128,-1,7
 738 1092 738 1092 765 1091 c 128,-1,8
 792 1090 792 1090 809 1088 c 1,9,-1
 809 767 l 1,10,11
 784 770 784 770 747.5 771 c 128,-1,12
 711 772 711 772 677 772 c 0,13,14
 621 772 621 772 580.5 749 c 128,-1,15
 540 726 540 726 517.5 682.5 c 128,-1,16
 495 639 495 639 495 576 c 2,17,-1
 495 0 l 1,18,-1
 94 0 l 1,0,-1
EndSplineSet
EndChar

StartChar: rdescend
Encoding: 57438 57438 861
Width: 871
GlyphClass: 2
Flags: W
AnchorPoint: "Anchor-1" 474 1087 basechar 0
AnchorPoint: "Anchor-0" 297 0 basechar 0
LayerCount: 2
Fore
SplineSet
94 -418 m 1,0,-1
 94 0 l 1,1,-1
 496 0 l 1,2,-1
 496 -418 l 1,3,-1
 94 -418 l 1,0,-1
94 0 m 1,4,-1
 94 1087 l 1,5,-1
 483 1087 l 1,6,-1
 483 884 l 1,7,-1
 490 884 l 1,8,9
 520 998 520 998 584 1046 c 128,-1,10
 648 1094 648 1094 746 1094 c 0,11,12
 774 1094 774 1094 799 1092 c 128,-1,13
 824 1090 824 1090 848 1087 c 1,14,-1
 848 755 l 1,15,16
 822 761 822 761 778.5 763 c 128,-1,17
 735 765 735 765 701 765 c 0,18,19
 640 765 640 765 593.5 738 c 128,-1,20
 547 711 547 711 521 661.5 c 128,-1,21
 495 612 495 612 495 544 c 2,22,-1
 495 0 l 1,23,-1
 94 0 l 1,4,-1
EndSplineSet
EndChar

StartChar: r.sc
Encoding: 60955 60955 871
Width: 1211
Flags: W
LayerCount: 2
Fore
SplineSet
94 0 m 1,0,-1
 94 1087 l 1,1,-1
 670 1087 l 2,2,3
 893 1087 893 1087 1022.5 981.5 c 128,-1,4
 1152 876 1152 876 1152 694 c 0,5,6
 1152 522 1152 522 1018.5 422.5 c 128,-1,7
 885 323 885 323 656 323 c 2,8,-1
 314 323 l 1,9,-1
 314 590 l 1,10,-1
 605 590 l 2,11,12
 681 590 681 590 719 613 c 128,-1,13
 757 636 757 636 757 688 c 0,14,15
 757 741 757 741 721 764.5 c 128,-1,16
 685 788 685 788 610 788 c 2,17,-1
 469 788 l 1,18,-1
 469 0 l 1,19,-1
 94 0 l 1,0,-1
768 0 m 1,20,-1
 459 486 l 1,21,-1
 878 486 l 1,22,-1
 1197 0 l 1,23,-1
 768 0 l 1,20,-1
EndSplineSet
EndChar

StartChar: rinv.sc
Encoding: 60956 60956 872
Width: 1211
Flags: W
LayerCount: 2
Fore
SplineSet
94 0 m 1,0,-1
 94 1087 l 1,1,-1
 469 1087 l 1,2,-1
 469 301 l 1,3,-1
 610 301 l 2,4,5
 685 301 685 301 721 325 c 128,-1,6
 757 349 757 349 757 401 c 0,7,8
 757 451 757 451 719 475 c 128,-1,9
 681 499 681 499 605 499 c 2,10,-1
 314 499 l 1,11,-1
 314 764 l 1,12,-1
 656 764 l 2,13,14
 884 764 884 764 1018 666 c 128,-1,15
 1152 568 1152 568 1152 395 c 0,16,17
 1152 212 1152 212 1022.5 106 c 128,-1,18
 893 0 893 0 670 0 c 2,19,-1
 94 0 l 1,0,-1
459 601 m 1,20,-1
 768 1087 l 1,21,-1
 1197 1087 l 1,22,-1
 878 601 l 1,23,-1
 459 601 l 1,20,-1
EndSplineSet
EndChar

StartChar: s
Encoding: 115 115 873
Width: 1175
GlyphClass: 2
Flags: W
AnchorPoint: "Anchor-3" 591 0 basechar 0
AnchorPoint: "Anchor-1" 587 1087 basechar 0
AnchorPoint: "Anchor-0" 589 0 basechar 0
LayerCount: 2
Fore
SplineSet
593 -23 m 0,0,1
 438 -23 438 -23 320.5 22 c 128,-1,2
 203 67 203 67 131.5 148.5 c 128,-1,3
 60 230 60 230 44 341 c 1,4,-1
 428 367 l 1,5,6
 441 311 441 311 483 278.5 c 128,-1,7
 525 246 525 246 599 246 c 0,8,9
 658 246 658 246 691 264 c 128,-1,10
 724 282 724 282 724 315 c 0,11,12
 724 344 724 344 693.5 362 c 128,-1,13
 663 380 663 380 600 391 c 2,14,-1
 402 425 l 2,15,16
 238 453 238 453 153.5 534.5 c 128,-1,17
 69 616 69 616 69 746 c 0,18,19
 69 859 69 859 130.5 939 c 128,-1,20
 192 1019 192 1019 306 1062 c 128,-1,21
 420 1105 420 1105 579 1105 c 0,22,23
 732 1105 732 1105 845 1063 c 128,-1,24
 958 1021 958 1021 1023 943.5 c 128,-1,25
 1088 866 1088 866 1098 758 c 1,26,-1
 740 732 l 1,27,28
 733 783 733 783 691 811 c 128,-1,29
 649 839 649 839 590 839 c 0,30,31
 536 839 536 839 502 820 c 128,-1,32
 468 801 468 801 468 769 c 0,33,34
 468 744 468 744 491.5 724.5 c 128,-1,35
 515 705 515 705 570 695 c 2,36,-1
 798 656 l 2,37,38
 967 627 967 627 1049 555 c 128,-1,39
 1131 483 1131 483 1131 362 c 0,40,41
 1131 246 1131 246 1062.5 159.5 c 128,-1,42
 994 73 994 73 873 25 c 128,-1,43
 752 -23 752 -23 593 -23 c 0,0,1
EndSplineSet
Substitution2: "'sups' Superscript in Latin lookup 39 subtable" s.sups
Substitution2: "'subs' Subscript in Latin lookup 38 subtable" s.subs
Substitution2: "'sinf' Scientific Inferiors in Latin lookup 18 subtable" s.subs
AlternateSubs2: "'aalt' Access All Alternates in Latin lookup 1 subtable" s.sups s.subs
EndChar

StartChar: srthook
Encoding: 642 642 874
Width: 1175
GlyphClass: 2
Flags: W
AnchorPoint: "Anchor-3" 591 0 basechar 0
AnchorPoint: "Anchor-1" 587 1087 basechar 0
AnchorPoint: "Anchor-0" 589 0 basechar 0
LayerCount: 2
Fore
SplineSet
412 -429 m 0,0,1
 232 -429 232 -429 138 -342.5 c 128,-1,2
 44 -256 44 -256 44 -87 c 2,3,-1
 44 341 l 1,4,-1
 398 352 l 1,5,-1
 398 -60 l 2,6,7
 398 -98 398 -98 421.5 -116 c 128,-1,8
 445 -134 445 -134 497 -134 c 0,9,10
 522 -134 522 -134 555 -133 c 128,-1,11
 588 -132 588 -132 618.5 -131 c 128,-1,12
 649 -130 649 -130 665 -129 c 1,13,-1
 665 -418 l 1,14,15
 639 -422 639 -422 595.5 -424.5 c 128,-1,16
 552 -427 552 -427 503 -428 c 128,-1,17
 454 -429 454 -429 412 -429 c 0,0,1
593 -23 m 0,18,19
 438 -23 438 -23 320.5 22 c 128,-1,20
 203 67 203 67 131.5 148.5 c 128,-1,21
 60 230 60 230 44 341 c 1,22,-1
 428 367 l 1,23,24
 441 311 441 311 483 278.5 c 128,-1,25
 525 246 525 246 599 246 c 0,26,27
 658 246 658 246 691 264 c 128,-1,28
 724 282 724 282 724 315 c 0,29,30
 724 344 724 344 693.5 362 c 128,-1,31
 663 380 663 380 600 391 c 2,32,-1
 402 425 l 2,33,34
 238 453 238 453 153.5 534.5 c 128,-1,35
 69 616 69 616 69 746 c 0,36,37
 69 859 69 859 130.5 939 c 128,-1,38
 192 1019 192 1019 306 1062 c 128,-1,39
 420 1105 420 1105 579 1105 c 0,40,41
 732 1105 732 1105 845 1063 c 128,-1,42
 958 1021 958 1021 1023 943.5 c 128,-1,43
 1088 866 1088 866 1098 758 c 1,44,-1
 740 732 l 1,45,46
 733 783 733 783 691 811 c 128,-1,47
 649 839 649 839 590 839 c 0,48,49
 536 839 536 839 502 820 c 128,-1,50
 468 801 468 801 468 769 c 0,51,52
 468 744 468 744 491.5 724.5 c 128,-1,53
 515 705 515 705 570 695 c 2,54,-1
 798 656 l 2,55,56
 967 627 967 627 1049 555 c 128,-1,57
 1131 483 1131 483 1131 362 c 0,58,59
 1131 246 1131 246 1062.5 159.5 c 128,-1,60
 994 73 994 73 873 25 c 128,-1,61
 752 -23 752 -23 593 -23 c 0,18,19
EndSplineSet
EndChar

StartChar: uni023F
Encoding: 575 575 875
Width: 1175
GlyphClass: 2
Flags: W
AnchorPoint: "Anchor-3" 591 0 basechar 0
AnchorPoint: "Anchor-1" 587 1087 basechar 0
AnchorPoint: "Anchor-0" 589 0 basechar 0
LayerCount: 2
Fore
SplineSet
350 309 m 1,0,1
 428 149 428 149 481.5 54.5 c 128,-1,2
 535 -40 535 -40 572.5 -86.5 c 128,-1,3
 610 -133 610 -133 642 -147.5 c 128,-1,4
 674 -162 674 -162 710 -162 c 0,5,6
 787 -162 787 -162 839.5 -135 c 128,-1,7
 892 -108 892 -108 932 -76 c 1,8,-1
 1042 -268 l 1,9,10
 980 -318 980 -318 896.5 -368 c 128,-1,11
 813 -418 813 -418 694 -418 c 0,12,13
 585 -418 585 -418 508.5 -369 c 128,-1,14
 432 -320 432 -320 378 -248.5 c 128,-1,15
 324 -177 324 -177 282 -108 c 2,16,-1
 104 194 l 1,17,-1
 350 309 l 1,0,1
593 -23 m 0,18,19
 438 -23 438 -23 320.5 22 c 128,-1,20
 203 67 203 67 131.5 148.5 c 128,-1,21
 60 230 60 230 44 341 c 1,22,-1
 428 367 l 1,23,24
 441 311 441 311 483 278.5 c 128,-1,25
 525 246 525 246 599 246 c 0,26,27
 658 246 658 246 691 264 c 128,-1,28
 724 282 724 282 724 315 c 0,29,30
 724 344 724 344 693.5 362 c 128,-1,31
 663 380 663 380 600 391 c 2,32,-1
 402 425 l 2,33,34
 238 453 238 453 153.5 534.5 c 128,-1,35
 69 616 69 616 69 746 c 0,36,37
 69 859 69 859 130.5 939 c 128,-1,38
 192 1019 192 1019 306 1062 c 128,-1,39
 420 1105 420 1105 579 1105 c 0,40,41
 732 1105 732 1105 845 1063 c 128,-1,42
 958 1021 958 1021 1023 943.5 c 128,-1,43
 1088 866 1088 866 1098 758 c 1,44,-1
 740 732 l 1,45,46
 733 783 733 783 691 811 c 128,-1,47
 649 839 649 839 590 839 c 0,48,49
 536 839 536 839 502 820 c 128,-1,50
 468 801 468 801 468 769 c 0,51,52
 468 744 468 744 491.5 724.5 c 128,-1,53
 515 705 515 705 570 695 c 2,54,-1
 798 656 l 2,55,56
 967 627 967 627 1049 555 c 128,-1,57
 1131 483 1131 483 1131 362 c 0,58,59
 1131 246 1131 246 1062.5 159.5 c 128,-1,60
 994 73 994 73 873 25 c 128,-1,61
 752 -23 752 -23 593 -23 c 0,18,19
EndSplineSet
EndChar

